<svg width="30" height="30" viewBox="0 0 30 30" fill="none" xmlns="http://www.w3.org/2000/svg">
<g id="material-symbols:chevron-left-rounded">
<path id="Vector" d="M22 13L16.25 18.75C16.125 18.875 15.9896 18.9633 15.8437 19.015C15.6979 19.0675 15.5417 19.0937 15.375 19.0937C15.2083 19.0937 15.0521 19.0675 14.9062 19.015C14.7604 18.9633 14.625 18.875 14.5 18.75L8.75 13C8.52083 12.7708 8.40625 12.4792 8.40625 12.125C8.40625 11.7708 8.52083 11.4792 8.75 11.25C8.97917 11.0208 9.27083 10.9062 9.625 10.9062C9.97917 10.9062 10.2708 11.0208 10.5 11.25L15.375 16.125L20.25 11.25C20.4792 11.0208 20.7708 10.9062 21.125 10.9062C21.4792 10.9062 21.7708 11.0208 22 11.25C22.2292 11.4792 22.3437 11.7708 22.3437 12.125C22.3437 12.4792 22.2292 12.7708 22 13Z" fill="black"/>
</g>
</svg>
