<svg width="30" height="30" viewBox="0 0 30 30" fill="none" xmlns="http://www.w3.org/2000/svg">
<path d="M8.375 17.375L14.125 11.625C14.25 11.5 14.3854 11.4117 14.5313 11.36C14.6771 11.3075 14.8333 11.2812 15 11.2812C15.1667 11.2812 15.3229 11.3075 15.4688 11.36C15.6146 11.4117 15.75 11.5 15.875 11.625L21.625 17.375C21.8542 17.6042 21.9687 17.8958 21.9687 18.25C21.9687 18.6042 21.8542 18.8958 21.625 19.125C21.3958 19.3542 21.1042 19.4688 20.75 19.4688C20.3958 19.4688 20.1042 19.3542 19.875 19.125L15 14.25L10.125 19.125C9.89583 19.3542 9.60417 19.4688 9.25 19.4688C8.89583 19.4688 8.60417 19.3542 8.375 19.125C8.14583 18.8958 8.03125 18.6042 8.03125 18.25C8.03125 17.8958 8.14583 17.6042 8.375 17.375Z" fill="black"/>
</svg>
