<svg width="20" height="20" viewBox="0 0 20 20" fill="none" xmlns="http://www.w3.org/2000/svg">
<g id="material-symbols:turn-left-rounded">
<path id="Vector" d="M13.3339 16.667C13.0977 16.667 12.8997 16.587 12.7397 16.427C12.5797 16.267 12.5 16.0692 12.5005 15.8337V9.16699H5.66719L6.41719 9.91699C6.56996 10.0698 6.64635 10.2642 6.64635 10.5003C6.64635 10.7364 6.56996 10.9309 6.41719 11.0837C6.26441 11.2364 6.06996 11.3128 5.83385 11.3128C5.59774 11.3128 5.4033 11.2364 5.25052 11.0837L3.08385 8.91699C3.00052 8.83366 2.94135 8.74338 2.90635 8.64616C2.87135 8.54894 2.85441 8.44477 2.85552 8.33366C2.85552 8.22255 2.87302 8.11838 2.90802 8.02116C2.94302 7.92394 3.00163 7.83366 3.08385 7.75033L5.25052 5.58366C5.4033 5.43088 5.59774 5.35449 5.83385 5.35449C6.06996 5.35449 6.26441 5.43088 6.41719 5.58366C6.56996 5.73644 6.64635 5.93088 6.64635 6.16699C6.64635 6.4031 6.56996 6.59755 6.41719 6.75033L5.66719 7.50033H12.5005C12.9589 7.50033 13.3514 7.66366 13.678 7.99033C14.0047 8.31699 14.1677 8.70921 14.1672 9.16699V15.8337C14.1672 16.0698 14.0872 16.2678 13.9272 16.4278C13.7672 16.5878 13.5694 16.6675 13.3339 16.667Z" fill="black"/>
</g>
</svg>
