<svg width="20" height="21" viewBox="0 0 20 21" fill="none" xmlns="http://www.w3.org/2000/svg">
<path id="Vector" d="M10 12.768C9.68519 12.768 9.42148 12.6712 9.20889 12.4775C8.99556 12.2844 8.88889 12.045 8.88889 11.7591C8.88889 11.4733 8.99556 11.2335 9.20889 11.0398C9.42148 10.8467 9.68519 10.7502 10 10.7502C10.3148 10.7502 10.5789 10.8467 10.7922 11.0398C11.0048 11.2335 11.1111 11.4733 11.1111 11.7591C11.1111 12.045 11.0048 12.2844 10.7922 12.4775C10.5789 12.6712 10.3148 12.768 10 12.768ZM5.55556 12.768C5.24074 12.768 4.97667 12.6712 4.76333 12.4775C4.55074 12.2844 4.44444 12.045 4.44444 11.7591C4.44444 11.4733 4.55074 11.2335 4.76333 11.0398C4.97667 10.8467 5.24074 10.7502 5.55556 10.7502C5.87037 10.7502 6.13444 10.8467 6.34778 11.0398C6.56037 11.2335 6.66667 11.4733 6.66667 11.7591C6.66667 12.045 6.56037 12.2844 6.34778 12.4775C6.13444 12.6712 5.87037 12.768 5.55556 12.768ZM14.4444 12.768C14.1296 12.768 13.8659 12.6712 13.6533 12.4775C13.44 12.2844 13.3333 12.045 13.3333 11.7591C13.3333 11.4733 13.44 11.2335 13.6533 11.0398C13.8659 10.8467 14.1296 10.7502 14.4444 10.7502C14.7593 10.7502 15.023 10.8467 15.2356 11.0398C15.4489 11.2335 15.5556 11.4733 15.5556 11.7591C15.5556 12.045 15.4489 12.2844 15.2356 12.4775C15.023 12.6712 14.7593 12.768 14.4444 12.768ZM10 16.8037C9.68519 16.8037 9.42148 16.7068 9.20889 16.5131C8.99556 16.3201 8.88889 16.0806 8.88889 15.7948C8.88889 15.5089 8.99556 15.2695 9.20889 15.0764C9.42148 14.8827 9.68519 14.7859 10 14.7859C10.3148 14.7859 10.5789 14.8827 10.7922 15.0764C11.0048 15.2695 11.1111 15.5089 11.1111 15.7948C11.1111 16.0806 11.0048 16.3201 10.7922 16.5131C10.5789 16.7068 10.3148 16.8037 10 16.8037ZM5.55556 16.8037C5.24074 16.8037 4.97667 16.7068 4.76333 16.5131C4.55074 16.3201 4.44444 16.0806 4.44444 15.7948C4.44444 15.5089 4.55074 15.2695 4.76333 15.0764C4.97667 14.8827 5.24074 14.7859 5.55556 14.7859C5.87037 14.7859 6.13444 14.8827 6.34778 15.0764C6.56037 15.2695 6.66667 15.5089 6.66667 15.7948C6.66667 16.0806 6.56037 16.3201 6.34778 16.5131C6.13444 16.7068 5.87037 16.8037 5.55556 16.8037ZM14.4444 16.8037C14.1296 16.8037 13.8659 16.7068 13.6533 16.5131C13.44 16.3201 13.3333 16.0806 13.3333 15.7948C13.3333 15.5089 13.44 15.2695 13.6533 15.0764C13.8659 14.8827 14.1296 14.7859 14.4444 14.7859C14.7593 14.7859 15.023 14.8827 15.2356 15.0764C15.4489 15.2695 15.5556 15.5089 15.5556 15.7948C15.5556 16.0806 15.4489 16.3201 15.2356 16.5131C15.023 16.7068 14.7593 16.8037 14.4444 16.8037ZM2.22222 20.8393C1.61111 20.8393 1.08778 20.6419 0.652222 20.2471C0.217407 19.8516 0 19.3764 0 18.8215V4.69677C0 4.14187 0.217407 3.66701 0.652222 3.27219C1.08778 2.8767 1.61111 2.67895 2.22222 2.67895H3.33333V0.661133H5.55556V2.67895H14.4444V0.661133H16.6667V2.67895H17.7778C18.3889 2.67895 18.9122 2.8767 19.3478 3.27219C19.7826 3.66701 20 4.14187 20 4.69677V18.8215C20 19.3764 19.7826 19.8516 19.3478 20.2471C18.9122 20.6419 18.3889 20.8393 17.7778 20.8393H2.22222ZM2.22222 18.8215H17.7778V8.7324H2.22222V18.8215Z" fill="#56AB91"/>
</svg>
