<svg width="226" height="165" viewBox="0 0 226 165" fill="none" xmlns="http://www.w3.org/2000/svg">
<g id="Group 746">
<path id="Vector" fill-rule="evenodd" clip-rule="evenodd" d="M109.072 0.0480413C130.76 -1.03742 146.09 16.5124 163.598 28.2296C186.627 43.6422 227.221 51.9377 225.444 77.9294C223.644 104.254 179.769 105.29 157.2 121.798C139.346 134.857 131.423 158.534 109.072 163.046C82.8192 168.346 53.8471 162.845 33.5607 146.758C12.1378 129.77 -4.21678 103.237 1.7358 77.9294C7.27139 54.3949 39.5633 48.3938 60.2231 33.4034C76.7706 21.3969 87.9538 1.10501 109.072 0.0480413Z" fill="#3FC1C0"/>
<g id="employee-of-the-month/pana">
<g id="background-complete">
<path id="Vector_2" d="M106.048 1C106.167 1.13515 106.274 1.28049 106.368 1.43436C106.648 1.87595 106.845 2.36525 106.949 2.87795C107.125 3.69015 107.094 4.53358 106.86 5.33079C106.554 6.40068 105.853 7.31422 104.899 7.88583C104.322 8.22982 103.683 8.45456 103.018 8.54673C102.353 8.6389 101.676 8.59662 101.028 8.42239C100.295 8.23599 99.6339 7.83707 99.1274 7.27582C98.864 6.97561 98.6651 6.62448 98.543 6.24422C98.4178 5.84071 98.4358 5.40634 98.5941 5.01461C98.7864 4.6255 99.0953 4.30601 99.4776 4.10052C99.86 3.89504 100.297 3.81377 100.728 3.86803C101.607 3.98585 102.416 4.41398 103.008 5.07529C103.641 5.74568 104.084 6.57168 104.294 7.46926C104.504 8.36685 104.472 9.304 104.202 10.1854C103.896 11.0534 103.362 11.8233 102.656 12.4148C101.95 13.0063 101.099 13.3978 100.191 13.5484C99.329 13.7063 98.4395 13.604 97.6359 13.2546C97.2405 13.0789 96.8924 12.8118 96.6203 12.4753C96.3543 12.1352 96.1993 11.7216 96.1763 11.2904C96.1399 10.8673 96.2629 10.4458 96.5213 10.1087C96.7842 9.79275 97.149 9.5782 97.5529 9.5019C97.9284 9.43235 98.3145 9.44456 98.6849 9.53771C99.0552 9.63085 99.4012 9.80274 99.6991 10.0416C100.257 10.4774 100.67 11.0704 100.887 11.7439C101.079 12.3656 101.101 13.0272 100.951 13.6602C100.68 14.7367 100.07 15.6975 99.2105 16.4005C98.5721 16.9236 97.8539 17.3409 97.0834 17.6365C96.4348 17.9 95.7605 18.0949 95.0713 18.2178C95.1134 18.1988 95.1573 18.1838 95.2022 18.1731L95.5887 18.0613C96.0841 17.9176 96.5714 17.747 97.0483 17.5503C97.8015 17.2441 98.502 16.8217 99.1242 16.2983C99.9463 15.6048 100.526 14.6673 100.779 13.6219C100.917 13.0204 100.891 12.393 100.705 11.8046C100.496 11.1717 100.102 10.6157 99.5745 10.2077C99.2991 9.98844 98.9797 9.83101 98.638 9.74614C98.2964 9.66127 97.9404 9.65095 97.5944 9.71588C97.2386 9.78322 96.9177 9.97307 96.6874 10.2524C96.4654 10.5482 96.3608 10.9157 96.3935 11.284C96.4192 11.6652 96.5582 12.03 96.7927 12.3316C97.0441 12.6381 97.3634 12.882 97.7253 13.0438C98.4912 13.3716 99.337 13.4649 100.156 13.3121C101.022 13.1702 101.833 12.7992 102.507 12.2376C103.181 11.676 103.693 10.9442 103.988 10.1183C104.242 9.27906 104.271 8.38773 104.072 7.53389C103.872 6.68005 103.451 5.89379 102.851 5.25414C102.299 4.63483 101.546 4.23092 100.724 4.11396C100.34 4.06106 99.9486 4.12959 99.605 4.30996C99.2614 4.49034 98.9828 4.77354 98.808 5.12C98.6682 5.46371 98.6524 5.84541 98.7633 6.19951C98.8722 6.55265 99.0539 6.87904 99.2967 7.15765C99.774 7.69169 100.398 8.0728 101.092 8.25312C101.714 8.42414 102.365 8.46873 103.005 8.38425C103.645 8.29978 104.262 8.08795 104.819 7.76127C105.745 7.21384 106.429 6.33646 106.735 5.30524C106.973 4.52812 107.016 3.7043 106.86 2.9067C106.766 2.40204 106.586 1.91708 106.329 1.47268C106.154 1.1565 106.036 1.00958 106.048 1Z" fill="#E0E0E0"/>
<path id="Vector_3" d="M77.0228 133.776C77.1418 133.911 77.2487 134.056 77.3422 134.21C77.6227 134.651 77.8197 135.139 77.9235 135.651C78.0996 136.464 78.0689 137.308 77.834 138.107C77.5302 139.177 76.8287 140.091 75.873 140.662C75.2972 141.007 74.6576 141.233 73.9925 141.326C73.3275 141.418 72.6505 141.376 72.0021 141.201C71.2628 141.019 70.5952 140.618 70.0859 140.052C69.8208 139.754 69.6216 139.403 69.5014 139.023C69.3746 138.62 69.3927 138.185 69.5525 137.794C69.7448 137.404 70.0535 137.084 70.4358 136.878C70.8181 136.672 71.255 136.59 71.686 136.644C72.5648 136.764 73.3726 137.192 73.9663 137.851C74.5984 138.522 75.0419 139.348 75.2516 140.245C75.4614 141.143 75.4301 142.08 75.1608 142.961C74.854 143.829 74.32 144.599 73.6144 145.191C72.9089 145.782 72.0577 146.174 71.1494 146.324C70.2874 146.482 69.398 146.38 68.5944 146.03C68.1991 145.854 67.8511 145.587 67.5787 145.251C67.3161 144.913 67.1615 144.503 67.1348 144.076C67.1011 143.653 67.2251 143.232 67.4829 142.894C67.7453 142.578 68.1103 142.363 68.5145 142.287C68.89 142.217 69.2762 142.229 69.6467 142.323C70.0171 142.416 70.363 142.588 70.6608 142.827C71.2164 143.263 71.6299 143.855 71.8488 144.526C72.0402 145.148 72.0612 145.81 71.9095 146.442C71.6415 147.519 71.0333 148.48 70.1753 149.183C69.5369 149.706 68.8188 150.123 68.0482 150.419C67.3995 150.682 66.7252 150.877 66.0361 151C66.078 150.98 66.1219 150.965 66.1671 150.955L66.5535 150.844C67.049 150.7 67.5362 150.529 68.0131 150.333C68.7657 150.025 69.466 149.603 70.0891 149.081C70.9112 148.387 71.4907 147.45 71.7435 146.404C71.8814 145.803 71.856 145.175 71.67 144.587C71.4601 143.954 71.0665 143.398 70.5394 142.99C70.2638 142.771 69.9443 142.614 69.6026 142.53C69.2609 142.445 68.905 142.436 68.5592 142.501C68.2042 142.569 67.8836 142.757 67.6522 143.035C67.4301 143.332 67.3254 143.7 67.3584 144.069C67.3827 144.451 67.5219 144.816 67.7576 145.117C68.0082 145.424 68.3277 145.667 68.6902 145.826C69.4557 146.155 70.3015 146.249 71.1207 146.098C71.9864 145.956 72.7983 145.585 73.4723 145.023C74.1462 144.461 74.6575 143.73 74.9532 142.904C75.2074 142.065 75.2361 141.174 75.0365 140.321C74.8369 139.467 74.416 138.682 73.8162 138.043C73.2646 137.422 72.511 137.017 71.6892 136.899C71.3049 136.848 70.9141 136.917 70.5708 137.097C70.2276 137.278 69.9487 137.56 69.7729 137.905C69.633 138.249 69.6172 138.631 69.7282 138.985C69.8374 139.338 70.0191 139.664 70.2615 139.943C70.7397 140.476 71.3638 140.857 72.0564 141.039C72.6792 141.209 73.3296 141.253 73.9696 141.168C74.6096 141.084 75.2263 140.873 75.7836 140.547C76.7108 140.001 77.3958 139.123 77.6999 138.091C77.9403 137.314 77.9842 136.49 77.8276 135.692C77.7346 135.187 77.5552 134.702 77.2975 134.258C77.1282 133.932 77.01 133.785 77.0228 133.776Z" fill="#E0E0E0"/>
<path id="Vector_4" d="M29.4322 29.2045C29.607 29.1594 29.7855 29.1306 29.9655 29.1182C30.4867 29.0709 31.0122 29.1218 31.5145 29.2683C32.3171 29.4878 33.0517 29.9051 33.6512 30.482C34.4626 31.246 34.9506 32.2917 35.0149 33.4043C35.0541 34.074 34.9583 34.7447 34.7334 35.3767C34.5085 36.0088 34.1589 36.5892 33.7055 37.0836C33.2046 37.6457 32.5492 38.0478 31.8211 38.2397C31.4335 38.3368 31.0297 38.3509 30.6362 38.2812C30.2211 38.209 29.8446 37.9931 29.5727 37.6712C29.3159 37.3208 29.1745 36.8992 29.1682 36.4648C29.1619 36.0304 29.291 35.6048 29.5376 35.2471C30.0491 34.5226 30.8021 34.004 31.6615 33.7844C32.5449 33.531 33.4796 33.5157 34.3709 33.74C35.2621 33.9644 36.0782 34.4204 36.7364 35.0619C37.3647 35.7347 37.8013 36.5635 38.0007 37.4622C38.2001 38.3609 38.155 39.2966 37.8702 40.172C37.6107 41.0129 37.1071 41.7577 36.4234 42.3118C36.0849 42.5805 35.6876 42.7655 35.2641 42.8516C34.8432 42.9279 34.4091 42.8756 34.0185 42.7015C33.6272 42.5369 33.3108 42.233 33.1306 41.8487C32.9715 41.47 32.949 41.0478 33.0667 40.6542C33.1782 40.2886 33.3671 39.9513 33.6206 39.6653C33.8741 39.3792 34.1863 39.1512 34.5359 38.9966C35.1807 38.7048 35.8978 38.6115 36.5959 38.7284C37.2338 38.8487 37.8286 39.1352 38.3205 39.5588C39.1505 40.2943 39.7216 41.2776 39.9494 42.3629C40.1191 43.1712 40.1579 44.0015 40.0643 44.8221C39.9983 45.5191 39.8603 46.2073 39.6523 46.8758C39.6521 46.8293 39.6586 46.783 39.6715 46.7384C39.6907 46.6362 39.7194 46.5053 39.7513 46.3424C39.851 45.8366 39.9246 45.326 39.9717 44.8126C40.0489 44.0026 39.9972 43.1855 39.8184 42.3917C39.578 41.3519 39.0145 40.415 38.2087 39.7153C37.7372 39.3162 37.1688 39.0485 36.5607 38.9392C35.9015 38.832 35.2253 38.9243 34.6189 39.2042C34.2973 39.3477 34.0103 39.5585 33.7772 39.8224C33.5442 40.0863 33.3705 40.3972 33.2679 40.7341C33.1633 41.0802 33.1837 41.4521 33.3254 41.7848C33.4856 42.1182 33.7631 42.3808 34.1047 42.5226C34.4549 42.6765 34.8431 42.7221 35.2193 42.6536C35.6076 42.5729 35.9711 42.4011 36.2797 42.1521C36.9263 41.6278 37.4003 40.9212 37.6402 40.1241C37.913 39.2879 37.9561 38.3939 37.7651 37.5354C37.5741 36.6769 37.1559 35.8855 36.5544 35.2439C35.9288 34.6301 35.1522 34.1922 34.3032 33.9746C33.4541 33.757 32.5627 33.7674 31.7189 34.0047C30.9137 34.2081 30.2064 34.6901 29.7228 35.3653C29.5005 35.6808 29.3812 36.0573 29.3812 36.4432C29.3812 36.8291 29.5005 37.2056 29.7228 37.5211C29.9634 37.8049 30.2955 37.9958 30.6618 38.0609C31.0242 38.1255 31.396 38.1146 31.7541 38.0289C32.4484 37.8527 33.0744 37.4736 33.5522 36.9398C33.9906 36.4665 34.3295 35.9099 34.549 35.3032C34.7684 34.6964 34.8639 34.0518 34.8297 33.4075C34.7816 32.3337 34.3245 31.319 33.5522 30.5714C32.9784 30.005 32.2743 29.5883 31.5018 29.3578C31.0099 29.2064 30.4955 29.1416 29.9815 29.1661C29.6174 29.1757 29.4322 29.2204 29.4322 29.2045Z" fill="#E0E0E0"/>
<path id="Vector_5" d="M150.509 63.0301C150.366 62.9254 150.232 62.8079 150.11 62.6788C149.754 62.3074 149.468 61.8746 149.267 61.4013C148.937 60.6572 148.799 59.8426 148.864 59.0315C148.942 57.9423 149.433 56.9241 150.238 56.1858C150.722 55.7417 151.29 55.3997 151.909 55.1802C152.528 54.9607 153.185 54.8682 153.84 54.9083C154.581 54.9412 155.294 55.1935 155.891 55.6333C156.203 55.8675 156.463 56.1645 156.654 56.5052C156.857 56.8657 156.926 57.2867 156.849 57.6933C156.742 58.1047 156.509 58.4725 156.184 58.7455C155.858 59.0185 155.455 59.1833 155.032 59.2168C154.166 59.2745 153.307 59.0245 152.608 58.5109C151.87 57.9941 151.282 57.2914 150.904 56.4743C150.525 55.6571 150.369 54.7544 150.452 53.8576C150.573 52.9643 150.932 52.1199 151.491 51.4126C152.05 50.7053 152.788 50.1611 153.63 49.8366C154.427 49.513 155.303 49.4341 156.146 49.6098C156.56 49.7007 156.946 49.8878 157.274 50.1559C157.593 50.4285 157.823 50.7915 157.932 51.1971C158.048 51.5959 158.013 52.0237 157.833 52.398C157.644 52.7527 157.338 53.0305 156.967 53.1837C156.621 53.3245 156.248 53.3891 155.874 53.3731C155.501 53.3572 155.135 53.2609 154.802 53.091C154.181 52.7844 153.667 52.2981 153.326 51.6954C153.018 51.1392 152.866 50.5103 152.885 49.8749C152.929 48.7898 153.322 47.748 154.006 46.9046C154.515 46.2796 155.121 45.7404 155.801 45.3077C156.37 44.9266 156.977 44.6055 157.612 44.3496C157.577 44.3775 157.538 44.4011 157.497 44.4199L157.149 44.6019C156.703 44.8373 156.27 45.0975 155.852 45.3812C155.19 45.8239 154.602 46.3682 154.109 46.9941C153.459 47.8225 153.089 48.8356 153.051 49.8877C153.04 50.4916 153.189 51.0878 153.483 51.6155C153.811 52.1808 154.298 52.6364 154.885 52.925C155.192 53.08 155.53 53.1671 155.874 53.1803C156.219 53.1936 156.562 53.1326 156.881 53.0016C157.208 52.8685 157.479 52.6243 157.644 52.3118C157.797 51.9826 157.825 51.6088 157.721 51.261C157.621 50.9001 157.415 50.5775 157.13 50.3348C156.828 50.0916 156.474 49.9221 156.095 49.8398C155.296 49.6765 154.467 49.7543 153.713 50.0633C152.911 50.3723 152.208 50.8911 151.675 51.5654C151.143 52.2397 150.802 53.0446 150.688 53.8959C150.61 54.7503 150.758 55.6101 151.118 56.3889C151.478 57.1677 152.037 57.8379 152.738 58.3321C153.391 58.8171 154.195 59.0548 155.006 59.0028C155.383 58.976 155.743 58.8325 156.035 58.5921C156.327 58.3517 156.536 58.0264 156.635 57.6614C156.703 57.3042 156.643 56.9344 156.466 56.617C156.289 56.3022 156.05 56.0271 155.763 55.809C155.2 55.393 154.527 55.152 153.828 55.1159C153.197 55.0747 152.565 55.1603 151.968 55.3676C151.371 55.575 150.822 55.8999 150.353 56.3232C149.571 57.0296 149.087 58.0069 148.999 59.0571C148.923 59.8492 149.044 60.6477 149.35 61.3821C149.538 61.8513 149.807 62.2837 150.145 62.6597C150.375 62.9152 150.519 63.0301 150.509 63.0301Z" fill="#E0E0E0"/>
<path id="Vector_6" d="M155.347 33.2414C155.347 33.2414 154.677 30.4085 152.233 30.8142L152.757 28.9873C152.757 28.9873 156.823 29.6516 156.35 32.5612L155.347 33.2414Z" fill="#EBEBEB"/>
<path id="Vector_7" d="M145.52 147.893C145.52 147.893 144.85 145.06 142.406 145.468L142.93 143.642C142.93 143.642 146.993 144.306 146.523 147.215L145.52 147.893Z" fill="#EBEBEB"/>
<path id="Vector_8" d="M42.5263 141.125C42.5263 141.125 39.9298 142.438 40.8943 144.721L38.9972 144.638C38.9972 144.638 38.6938 140.531 41.6321 140.311L42.5263 141.125Z" fill="#EBEBEB"/>
<path id="Vector_9" d="M90.1495 144.5C90.1495 144.5 92.3851 146.378 94.0938 144.596L94.7613 146.375C94.7613 146.375 91.1012 148.263 89.7471 145.644L90.1495 144.5Z" fill="#EBEBEB"/>
<path id="Vector_10" d="M167.941 94.7825C167.941 94.7825 167.27 91.9496 164.827 92.3552L165.348 90.5283C165.348 90.5283 169.413 91.1926 168.944 94.1022L167.941 94.7825Z" fill="#F5F5F5"/>
<path id="Vector_11" d="M69.2078 10.2719C69.2078 10.2719 69.3994 7.36873 66.9434 7.03977L67.9782 5.44287C67.9782 5.44287 71.6702 7.26972 70.3671 9.91419L69.2078 10.2719Z" fill="#EBEBEB"/>
<path id="Vector_12" d="M50.3648 2.46592C50.3629 2.6133 50.3174 2.75684 50.2342 2.87848C50.1509 3.00011 50.0335 3.09441 49.8968 3.14951C49.7601 3.20461 49.6102 3.21805 49.4658 3.18814C49.3215 3.15823 49.1892 3.0863 49.0857 2.98141C48.9821 2.87652 48.9119 2.74335 48.8838 2.59865C48.8557 2.45394 48.8711 2.30417 48.9279 2.16817C48.9847 2.03216 49.0805 1.916 49.2032 1.8343C49.3259 1.7526 49.47 1.709 49.6174 1.70898C49.7164 1.70898 49.8143 1.72862 49.9056 1.76678C49.9969 1.80493 50.0798 1.86084 50.1493 1.93125C50.2188 2.00167 50.2737 2.08519 50.3106 2.17697C50.3476 2.26876 50.366 2.36697 50.3648 2.46592Z" fill="#EBEBEB"/>
<path id="Vector_13" d="M119.121 8.86307C119.121 9.01088 119.077 9.15538 118.995 9.27828C118.913 9.40118 118.796 9.49697 118.659 9.55353C118.523 9.6101 118.372 9.6249 118.228 9.59606C118.083 9.56722 117.949 9.49605 117.845 9.39153C117.74 9.28701 117.669 9.15384 117.64 9.00887C117.611 8.8639 117.626 8.71363 117.683 8.57707C117.739 8.44051 117.835 8.32379 117.958 8.24167C118.081 8.15955 118.226 8.11572 118.373 8.11572C118.571 8.11656 118.761 8.19557 118.901 8.33554C119.041 8.47552 119.12 8.66512 119.121 8.86307Z" fill="#EBEBEB"/>
<path id="Vector_14" d="M167.558 26.7422C167.556 26.8889 167.51 27.0316 167.427 27.1525C167.344 27.2734 167.227 27.3672 167.091 27.4222C166.955 27.4772 166.806 27.4909 166.662 27.4616C166.518 27.4324 166.386 27.3615 166.282 27.2577C166.179 27.154 166.108 27.022 166.078 26.8782C166.049 26.7345 166.063 26.5853 166.118 26.4492C166.173 26.3132 166.267 26.1964 166.388 26.1133C166.509 26.0302 166.651 25.9846 166.798 25.982C166.898 25.9803 166.998 25.9988 167.091 26.0364C167.184 26.074 167.268 26.1299 167.339 26.2008C167.41 26.2718 167.466 26.3562 167.504 26.4492C167.541 26.5423 167.56 26.6419 167.558 26.7422Z" fill="#EBEBEB"/>
<path id="Vector_15" d="M164.38 138.666C164.381 138.814 164.337 138.96 164.255 139.084C164.173 139.207 164.056 139.304 163.919 139.361C163.782 139.419 163.631 139.434 163.485 139.406C163.339 139.377 163.205 139.306 163.1 139.201C162.995 139.096 162.923 138.962 162.894 138.817C162.864 138.671 162.879 138.52 162.936 138.383C162.992 138.245 163.089 138.128 163.212 138.045C163.336 137.963 163.481 137.918 163.629 137.918C163.828 137.918 164.018 137.997 164.159 138.137C164.3 138.277 164.379 138.467 164.38 138.666Z" fill="#EBEBEB"/>
<path id="Vector_16" d="M126.422 147.027C126.423 147.175 126.379 147.321 126.297 147.444C126.215 147.568 126.098 147.665 125.961 147.722C125.824 147.78 125.673 147.795 125.527 147.766C125.381 147.738 125.247 147.667 125.142 147.562C125.037 147.457 124.965 147.323 124.936 147.177C124.906 147.032 124.921 146.881 124.978 146.743C125.034 146.606 125.131 146.489 125.254 146.406C125.378 146.323 125.523 146.279 125.671 146.279C125.87 146.279 126.06 146.358 126.201 146.498C126.342 146.638 126.421 146.828 126.422 147.027Z" fill="#EBEBEB"/>
<path id="Vector_17" d="M150.861 77.201C150.861 77.3488 150.817 77.4933 150.735 77.6162C150.653 77.7391 150.536 77.8349 150.4 77.8914C150.263 77.948 150.113 77.9628 149.968 77.934C149.823 77.9051 149.69 77.8339 149.585 77.7294C149.481 77.6249 149.409 77.4917 149.381 77.3468C149.352 77.2018 149.367 77.0515 149.423 76.915C149.48 76.7784 149.575 76.6617 149.698 76.5796C149.821 76.4974 149.966 76.4536 150.114 76.4536C150.312 76.4536 150.502 76.5323 150.642 76.6725C150.782 76.8127 150.861 77.0028 150.861 77.201Z" fill="#EBEBEB"/>
<path id="Vector_18" d="M45.171 31.6351C45.1716 31.7838 45.1281 31.9293 45.0458 32.0532C44.9636 32.1771 44.8464 32.2738 44.7092 32.331C44.5719 32.3882 44.4207 32.4034 44.2748 32.3745C44.1289 32.3457 43.9949 32.2741 43.8898 32.169C43.7846 32.0638 43.713 31.9298 43.6842 31.7839C43.6553 31.638 43.6705 31.4868 43.7277 31.3495C43.7849 31.2123 43.8816 31.0951 44.0055 31.0129C44.1294 30.9306 44.2749 30.8871 44.4237 30.8877C44.6219 30.8877 44.812 30.9664 44.9521 31.1066C45.0923 31.2468 45.171 31.4368 45.171 31.6351Z" fill="#EBEBEB"/>
<path id="Vector_19" d="M28.1515 87.191C28.1515 87.3396 28.1074 87.4848 28.0248 87.6083C27.9422 87.7318 27.8247 87.828 27.6874 87.8847C27.5501 87.9414 27.399 87.9561 27.2533 87.9269C27.1077 87.8976 26.9739 87.8258 26.8691 87.7206C26.7643 87.6153 26.693 87.4812 26.6644 87.3354C26.6358 87.1896 26.6511 87.0386 26.7084 86.9015C26.7657 86.7645 26.8624 86.6475 26.9863 86.5654C27.1101 86.4833 27.2556 86.4398 27.4041 86.4404C27.5025 86.4404 27.6 86.4599 27.6909 86.4976C27.7817 86.5354 27.8643 86.5907 27.9337 86.6605C28.0032 86.7302 28.0581 86.813 28.0955 86.904C28.1329 86.995 28.1519 87.0926 28.1515 87.191Z" fill="#EBEBEB"/>
</g>
<g id="Plants">
<path id="Vector_20" d="M150.601 125.708C151.179 127.54 151.166 129.506 150.563 131.329C149.183 130.167 147.621 128.219 147.142 126.478C146.649 124.758 146.696 122.927 147.276 121.234C148.83 122.336 149.994 123.903 150.601 125.708Z" fill="#455A64"/>
<path id="Vector_21" d="M149.819 128.605C149.816 128.498 149.804 128.391 149.784 128.286C149.755 128.091 149.704 127.807 149.63 127.462C149.442 126.556 149.196 125.663 148.892 124.788C148.591 123.915 148.234 123.062 147.826 122.233C147.669 121.914 147.535 121.662 147.436 121.489C147.389 121.397 147.336 121.309 147.276 121.224C147.309 121.323 147.35 121.418 147.401 121.508C147.487 121.684 147.612 121.943 147.762 122.265C148.059 122.904 148.442 123.805 148.797 124.82C149.096 125.691 149.351 126.577 149.56 127.474C149.643 127.816 149.704 128.097 149.745 128.292C149.761 128.398 149.785 128.503 149.819 128.605Z" fill="#263238"/>
<path id="Vector_22" d="M158.755 127.292C159.331 129.125 159.318 131.092 158.716 132.917C157.333 131.751 155.772 129.806 155.293 128.062C154.814 126.305 154.877 124.446 155.471 122.725C157.017 123.866 158.166 125.464 158.755 127.292Z" fill="#455A64"/>
<path id="Vector_23" d="M157.976 130.192C157.974 130.085 157.962 129.978 157.941 129.873C157.912 129.675 157.861 129.394 157.788 129.046C157.597 128.141 157.35 127.25 157.05 126.376C156.748 125.503 156.392 124.649 155.983 123.82C155.824 123.501 155.689 123.249 155.594 123.076C155.547 122.984 155.493 122.897 155.431 122.814C155.464 122.912 155.506 123.006 155.555 123.096C155.645 123.274 155.769 123.533 155.916 123.852C156.213 124.491 156.6 125.395 156.951 126.407C157.302 127.42 157.555 128.372 157.717 129.062C157.797 129.406 157.858 129.7 157.899 129.879C157.915 129.986 157.941 130.09 157.976 130.192Z" fill="#263238"/>
<path id="Vector_24" d="M163.497 121.776C164.979 120.553 166.036 118.893 166.519 117.034C164.727 117.26 162.367 118.049 161.013 119.269C159.656 120.483 158.697 122.078 158.263 123.846C160.182 123.723 162.013 122.999 163.497 121.776Z" fill="#455A64"/>
<path id="Vector_25" d="M164.418 118.921C164.358 119.006 164.292 119.086 164.22 119.161C164.089 119.308 163.9 119.519 163.645 119.771C162.993 120.428 162.301 121.043 161.572 121.614C160.845 122.184 160.082 122.708 159.289 123.182C158.969 123.364 158.733 123.501 158.557 123.597C158.469 123.65 158.376 123.695 158.279 123.731C158.359 123.667 158.444 123.61 158.535 123.562C158.707 123.46 158.95 123.31 159.25 123.121C159.847 122.744 160.659 122.198 161.508 121.524C162.358 120.85 163.083 120.202 163.594 119.71L164.191 119.123C164.261 119.049 164.337 118.982 164.418 118.921Z" fill="#263238"/>
<path id="Vector_26" d="M155.631 119.637C157.112 118.413 158.169 116.753 158.653 114.894C156.861 115.121 154.501 115.91 153.143 117.114C151.789 118.329 150.831 119.924 150.394 121.69C152.312 121.574 154.145 120.855 155.631 119.637Z" fill="#455A64"/>
<path id="Vector_27" d="M156.548 116.778C156.491 116.864 156.426 116.945 156.353 117.018C156.222 117.165 156.033 117.376 155.775 117.628C155.124 118.285 154.433 118.9 153.705 119.471C152.975 120.04 152.212 120.565 151.418 121.042C151.099 121.221 150.863 121.361 150.687 121.454C150.599 121.507 150.506 121.552 150.409 121.588C150.49 121.524 150.577 121.468 150.668 121.419C150.837 121.317 151.083 121.167 151.38 120.978C152.948 120 154.409 118.86 155.74 117.577C155.995 117.331 156.2 117.13 156.34 116.989C156.404 116.914 156.473 116.843 156.548 116.778Z" fill="#263238"/>
<path id="Vector_28" d="M141.595 121.576C141.67 121.556 141.747 121.543 141.825 121.534L142.486 121.445L142.965 121.381C143.141 121.362 143.332 121.349 143.54 121.333C143.952 121.301 144.418 121.253 144.939 121.247L145.756 121.221C146.037 121.221 146.334 121.221 146.641 121.221C147.251 121.221 147.902 121.272 148.589 121.314C150.076 121.443 151.553 121.67 153.009 121.994C154.462 122.334 155.89 122.768 157.286 123.294C157.925 123.553 158.535 123.789 159.084 124.054C159.362 124.185 159.633 124.3 159.886 124.431L160.611 124.805C161.077 125.035 161.479 125.284 161.837 125.488C162.013 125.593 162.182 125.686 162.332 125.782L162.738 126.044L163.293 126.414C163.361 126.454 163.426 126.5 163.485 126.552C163.414 126.519 163.346 126.48 163.281 126.437L162.709 126.092L162.297 125.836C162.147 125.747 161.978 125.657 161.799 125.555C161.438 125.357 161.035 125.114 160.566 124.891L159.841 124.527C159.585 124.399 159.314 124.287 159.039 124.159C158.487 123.898 157.877 123.668 157.241 123.415C154.459 122.361 151.544 121.696 148.58 121.442C147.896 121.397 147.248 121.339 146.638 121.336C146.318 121.336 146.037 121.314 145.756 121.336H144.942C144.424 121.336 143.958 121.381 143.546 121.403L142.971 121.438L142.492 121.489L141.828 121.557C141.751 121.568 141.673 121.574 141.595 121.576Z" fill="#263238"/>
<path id="Vector_29" d="M166.643 126.561C168.247 127.617 169.476 129.151 170.156 130.946C168.349 130.914 165.909 130.391 164.436 129.349C162.958 128.289 161.832 126.809 161.204 125.102C163.126 125.002 165.03 125.513 166.643 126.561Z" fill="#455A64"/>
<path id="Vector_30" d="M167.876 129.301C167.808 129.224 167.733 129.152 167.653 129.087C167.509 128.953 167.288 128.768 167.014 128.541C166.295 127.963 165.541 127.43 164.756 126.944C163.969 126.459 163.153 126.022 162.313 125.635C161.993 125.488 161.725 125.376 161.54 125.316C161.445 125.274 161.348 125.24 161.249 125.213C161.336 125.269 161.428 125.316 161.524 125.354L162.281 125.712C162.919 126.031 163.782 126.478 164.702 127.047C165.484 127.532 166.241 128.058 166.969 128.621C167.25 128.838 167.474 129.014 167.627 129.139C167.705 129.2 167.788 129.255 167.876 129.301Z" fill="#263238"/>
<path id="Vector_31" d="M155.852 100.56C157.932 100.027 160.128 100.162 162.128 100.947C160.745 102.416 158.477 104.039 156.507 104.46C154.52 104.887 152.451 104.704 150.569 103.936C151.933 102.285 153.781 101.105 155.852 100.56Z" fill="#455A64"/>
<path id="Vector_32" d="M159.033 101.611C158.919 101.607 158.804 101.613 158.691 101.63C158.471 101.649 158.152 101.691 157.759 101.749C155.716 102.064 153.721 102.633 151.818 103.441C151.454 103.598 151.164 103.732 150.966 103.831C150.86 103.877 150.759 103.932 150.662 103.994C150.771 103.961 150.878 103.92 150.981 103.872C151.183 103.786 151.48 103.662 151.847 103.518C153.759 102.754 155.744 102.188 157.772 101.828L158.695 101.675C158.809 101.662 158.922 101.641 159.033 101.611Z" fill="#263238"/>
<path id="Vector_33" d="M152.517 108.487C154.392 108.52 156.208 109.142 157.711 110.263C156.203 111.18 153.919 112.023 152.16 111.927C150.387 111.826 148.685 111.194 147.276 110.113C148.81 109.035 150.643 108.467 152.517 108.487Z" fill="#455A64"/>
<path id="Vector_34" d="M154.957 110.11C154.862 110.078 154.763 110.057 154.663 110.046C154.472 110.011 154.194 109.972 153.852 109.931C152.955 109.826 152.053 109.778 151.15 109.787C150.248 109.798 149.348 109.864 148.455 109.985C148.11 110.03 147.835 110.078 147.643 110.113C147.543 110.126 147.445 110.15 147.35 110.183C147.45 110.18 147.551 110.171 147.65 110.154C147.841 110.126 148.119 110.094 148.461 110.055C149.354 109.953 150.252 109.898 151.15 109.889C152.204 109.889 153.156 109.937 153.843 110.001C154.188 110.033 154.465 110.062 154.657 110.084C154.756 110.101 154.857 110.109 154.957 110.11Z" fill="#263238"/>
<path id="Vector_35" d="M148.87 102.879C148.459 101.05 147.484 99.3968 146.082 98.1523C145.488 99.8131 145.124 102.221 145.574 103.924C146.029 105.64 146.991 107.179 148.334 108.341C149.081 106.621 149.268 104.711 148.87 102.879Z" fill="#455A64"/>
<path id="Vector_36" d="M146.798 100.816C146.845 100.905 146.884 100.998 146.916 101.094C146.989 101.273 147.082 101.535 147.194 101.863C147.474 102.721 147.702 103.594 147.877 104.479C148.052 105.365 148.17 106.261 148.232 107.162C148.254 107.507 148.264 107.801 148.267 107.98C148.277 108.08 148.277 108.182 148.267 108.283C148.249 108.184 148.239 108.083 148.235 107.983C148.235 107.791 148.2 107.51 148.168 107.168C148.002 105.376 147.649 103.606 147.117 101.886C147.018 101.566 146.932 101.289 146.871 101.107C146.837 101.013 146.812 100.915 146.798 100.816Z" fill="#263238"/>
<path id="Vector_37" d="M151.332 95.4405C150.482 93.8158 149.141 92.5013 147.499 91.6846C147.359 93.4028 147.624 95.7662 148.48 97.2609C149.353 98.7629 150.659 99.967 152.226 100.717C152.489 98.9077 152.176 97.062 151.332 95.4405Z" fill="#455A64"/>
<path id="Vector_38" d="M148.848 94.0098C148.915 94.0816 148.977 94.1585 149.033 94.2397C149.145 94.393 149.301 94.6166 149.49 94.8976C150.458 96.3734 151.238 97.9646 151.812 99.634C151.92 99.9534 152 100.219 152.051 100.401C152.083 100.493 152.106 100.588 152.121 100.685C152.077 100.597 152.041 100.505 152.013 100.41C151.952 100.231 151.863 99.9758 151.744 99.6596C151.441 98.8356 151.095 98.0276 150.71 97.2387C150.322 96.4503 149.896 95.6818 149.432 94.936L149.004 94.2621C148.945 94.1822 148.893 94.0979 148.848 94.0098Z" fill="#263238"/>
<path id="Vector_39" d="M137.075 122.15C137.092 122.128 137.112 122.108 137.133 122.089L137.312 121.914L138.008 121.253L138.512 120.777L139.094 120.195C139.509 119.774 139.994 119.304 140.493 118.752L141.288 117.899C141.562 117.599 141.834 117.26 142.121 116.941C142.706 116.302 143.284 115.555 143.904 114.792C145.217 113.11 146.444 111.363 147.58 109.557C148.698 107.74 149.716 105.864 150.63 103.936C151.029 103.038 151.428 102.192 151.738 101.381C151.898 100.975 152.057 100.586 152.201 100.205C152.345 99.8254 152.466 99.4549 152.587 99.1036C152.849 98.4042 153.028 97.7558 153.204 97.1874L153.443 96.3985C153.507 96.1558 153.565 95.9322 153.616 95.7278C153.721 95.3317 153.801 95.022 153.859 94.8016C153.886 94.7036 153.909 94.6238 153.926 94.562C153.932 94.5333 153.941 94.5054 153.954 94.479C153.957 94.5077 153.957 94.5366 153.954 94.5652C153.938 94.6259 153.922 94.7058 153.9 94.808L153.68 95.7437C153.632 95.945 153.578 96.1717 153.52 96.4176L153.29 97.2097C153.124 97.7782 152.948 98.4297 152.693 99.126C152.575 99.4773 152.447 99.8478 152.316 100.231C152.185 100.614 152.016 101.007 151.856 101.416C151.537 102.237 151.157 103.086 150.761 103.99C149.85 105.927 148.832 107.811 147.711 109.634C146.574 111.445 145.341 113.194 144.019 114.875C143.396 115.638 142.814 116.373 142.224 117.021C141.933 117.34 141.658 117.66 141.384 117.979L140.579 118.832C140.074 119.378 139.586 119.844 139.164 120.259L138.557 120.837L138.043 121.304L137.331 121.942L137.142 122.109C137.122 122.125 137.099 122.139 137.075 122.15Z" fill="#263238"/>
<path id="Vector_40" d="M153.125 83.4896C153.399 82.9498 153.811 82.3845 154.402 82.3302C154.682 82.3324 154.954 82.4202 155.183 82.5818C155.411 82.7434 155.585 82.971 155.68 83.2341C155.856 83.7677 155.92 84.332 155.868 84.8917C156.126 83.649 156.842 82.5488 157.874 81.8096C158.216 81.5669 158.698 81.3721 159.033 81.6212C159.138 81.7253 159.221 81.8499 159.276 81.9872C159.331 82.1246 159.357 82.2718 159.353 82.4196C159.466 83.5918 159.417 84.7738 159.209 85.9328C159.651 85.5618 160.174 85.3003 160.735 85.1695C161.301 85.0833 161.968 85.3516 162.134 85.9009C162.201 86.21 162.182 86.5317 162.077 86.8303C161.55 88.7889 160.552 90.5892 159.171 92.0745C158.439 92.857 157.574 93.5692 156.51 93.7864C155.447 94.0036 154.112 94.0036 153.636 93.0326L153.808 93.2786C152.827 91.858 152.246 90.1998 152.126 88.4777C152.006 86.7555 152.351 85.0327 153.125 83.4896Z" fill="#FF725E"/>
<path id="Vector_41" d="M154.313 93.6455C154.326 93.6157 154.337 93.5847 154.345 93.5529C154.367 93.4858 154.393 93.3996 154.428 93.291C154.463 93.1824 154.501 93.0387 154.555 92.879C154.61 92.7193 154.667 92.5341 154.744 92.3361C154.82 92.138 154.897 91.9177 154.996 91.6973C155.095 91.4769 155.204 91.2246 155.316 90.9691C155.835 89.8653 156.493 88.8318 157.273 87.8935C157.455 87.6795 157.628 87.4751 157.8 87.2962C157.973 87.1174 158.12 86.9481 158.286 86.798C158.452 86.6479 158.583 86.5201 158.704 86.4052C158.826 86.2902 158.94 86.1976 159.024 86.1209L159.234 85.9421C159.279 85.9005 159.305 85.8782 159.301 85.875C159.273 85.8899 159.246 85.9081 159.222 85.9293L159.004 86.0954C158.909 86.1688 158.797 86.2583 158.669 86.37C158.541 86.4818 158.391 86.6064 158.241 86.7565C158.091 86.9066 157.922 87.0759 157.746 87.2483C157.57 87.4208 157.395 87.6316 157.209 87.8456C156.817 88.3174 156.454 88.8123 156.12 89.3275C155.795 89.8416 155.5 90.3749 155.239 90.9244C155.124 91.1799 155.012 91.4258 154.919 91.659C154.827 91.8921 154.744 92.1125 154.674 92.3137C154.603 92.5149 154.546 92.7002 154.498 92.863C154.45 93.0259 154.408 93.1633 154.38 93.2814C154.351 93.3996 154.332 93.4762 154.313 93.5465C154.309 93.5794 154.309 93.6126 154.313 93.6455Z" fill="#263238"/>
<path id="Vector_42" d="M155.983 89.7111C156 89.6464 156.008 89.5799 156.008 89.5131C156.008 89.3853 156.031 89.1937 156.043 88.9701C156.066 88.5134 156.082 87.881 156.066 87.1816C156.05 86.4821 156.015 85.8498 155.973 85.393C155.954 85.1631 155.935 84.9778 155.916 84.8533C155.912 84.7863 155.901 84.72 155.884 84.6553C155.877 84.7211 155.877 84.7874 155.884 84.8533C155.884 85.0002 155.903 85.1727 155.916 85.3962C155.941 85.853 155.97 86.4853 155.986 87.1816C156.002 87.8778 155.986 88.5134 155.986 88.9701C155.986 89.1841 155.986 89.3661 155.986 89.5131C155.978 89.5788 155.977 89.6451 155.983 89.7111Z" fill="#263238"/>
<g id="Group" opacity="0.3">
<path id="Vector_43" d="M159.23 85.9229C159.23 85.9229 156.541 86.9736 156.081 89.4807C156.081 89.4807 157.486 87.1557 159.23 85.9229Z" fill="black"/>
</g>
<path id="Vector_44" d="M164.548 104.099C164.983 103.904 165.506 103.754 165.912 104.016C166.084 104.153 166.21 104.34 166.273 104.552C166.335 104.763 166.331 104.989 166.26 105.197C166.108 105.611 165.872 105.99 165.567 106.309C166.333 105.669 167.311 105.341 168.307 105.389C168.627 105.405 169.029 105.52 169.112 105.836C169.125 105.95 169.115 106.065 169.083 106.175C169.05 106.284 168.996 106.386 168.924 106.475C168.425 107.252 167.821 107.955 167.129 108.567C167.582 108.553 168.032 108.646 168.442 108.838C168.643 108.94 168.803 109.108 168.895 109.314C168.987 109.52 169.007 109.751 168.949 109.969C168.841 110.194 168.67 110.384 168.458 110.515C167.179 111.466 165.686 112.09 164.111 112.332C163.281 112.509 162.418 112.424 161.639 112.09C160.885 111.713 160.042 111.055 160.243 110.234L160.227 110.47C160.313 109.119 160.758 107.816 161.518 106.695C162.278 105.575 163.325 104.678 164.548 104.099Z" fill="#FF725E"/>
<path id="Vector_45" d="M160.333 110.937L160.397 110.898L160.576 110.774L160.857 110.582C160.969 110.512 161.093 110.426 161.237 110.34C161.381 110.253 161.534 110.157 161.71 110.065C161.885 109.972 162.067 109.873 162.262 109.774C162.693 109.563 163.135 109.378 163.587 109.218C164.041 109.064 164.503 108.935 164.97 108.832C165.188 108.791 165.392 108.746 165.587 108.72C165.782 108.695 165.964 108.669 166.13 108.65C166.296 108.631 166.449 108.624 166.577 108.612C166.705 108.599 166.826 108.612 166.919 108.596C166.823 108.596 166.708 108.596 166.577 108.596C166.446 108.596 166.293 108.596 166.123 108.624C165.954 108.653 165.775 108.656 165.58 108.688C165.386 108.72 165.175 108.752 164.958 108.794C164.486 108.894 164.021 109.022 163.565 109.177C163.111 109.337 162.667 109.525 162.237 109.739C162.038 109.841 161.853 109.937 161.681 110.036C161.508 110.135 161.361 110.231 161.211 110.32C161.061 110.41 160.946 110.499 160.838 110.573C160.729 110.646 160.633 110.716 160.56 110.774L160.39 110.908L160.333 110.937Z" fill="#263238"/>
<path id="Vector_46" d="M163.28 109.34C163.321 109.308 163.359 109.271 163.392 109.231C163.462 109.158 163.558 109.049 163.676 108.912C163.916 108.64 164.232 108.257 164.564 107.82C164.896 107.382 165.181 106.973 165.379 106.673L165.609 106.312C165.66 106.226 165.688 106.178 165.682 106.175C165.646 106.212 165.614 106.252 165.586 106.296L165.34 106.644C165.133 106.941 164.845 107.344 164.513 107.781C164.181 108.219 163.874 108.605 163.641 108.883C163.536 109.014 163.446 109.126 163.373 109.203C163.337 109.244 163.305 109.291 163.28 109.34Z" fill="#263238"/>
<g id="Group_2" opacity="0.3">
<path id="Vector_47" d="M167.129 108.58C167.129 108.58 164.957 107.916 163.453 109.235C163.453 109.235 165.452 108.487 167.129 108.58Z" fill="black"/>
</g>
<path id="Vector_48" d="M45.0551 124.961C44.4766 126.793 44.49 128.761 45.0934 130.585C46.4731 129.42 48.0349 127.475 48.514 125.731C49.007 124.011 48.9601 122.182 48.3798 120.49C46.8259 121.59 45.6617 123.156 45.0551 124.961Z" fill="#455A64"/>
<path id="Vector_49" d="M45.8379 127.864C45.8405 127.757 45.8523 127.65 45.873 127.545C45.9018 127.347 45.9529 127.066 46.0263 126.718C46.2142 125.812 46.4606 124.919 46.7641 124.044C47.0666 123.172 47.4229 122.318 47.8308 121.489C47.9873 121.17 48.1215 120.918 48.2205 120.745C48.2667 120.654 48.3201 120.566 48.3802 120.483C48.3468 120.58 48.3051 120.675 48.2556 120.764C48.1694 120.943 48.0448 121.202 47.8947 121.521C47.5977 122.16 47.2144 123.064 46.8599 124.076C46.5604 124.948 46.3056 125.833 46.0966 126.73C46.0135 127.075 45.9529 127.353 45.9113 127.548C45.8954 127.655 45.8708 127.761 45.8379 127.864Z" fill="#263238"/>
<path id="Vector_50" d="M36.9022 126.548C36.3224 128.38 36.3325 130.347 36.931 132.172C38.3139 131.007 39.8757 129.058 40.3547 127.318C40.8332 125.561 40.7708 123.701 40.1759 121.981C38.6331 123.123 37.488 124.72 36.9022 126.548Z" fill="#455A64"/>
<path id="Vector_51" d="M37.6846 129.461C37.6875 129.354 37.6993 129.247 37.7197 129.141C37.7484 128.947 37.7995 128.662 37.873 128.317C38.0632 127.407 38.3096 126.509 38.6108 125.628C38.9127 124.755 39.269 123.902 39.6775 123.073C39.8372 122.754 39.9713 122.502 40.0671 122.329C40.1142 122.236 40.1686 122.148 40.23 122.064C40.1978 122.163 40.1561 122.258 40.1055 122.348C40.016 122.524 39.8915 122.783 39.7446 123.105C39.357 123.939 39.0116 124.792 38.7098 125.66C38.3585 126.679 38.1062 127.624 37.9433 128.314C37.8634 128.656 37.8027 128.953 37.7612 129.132C37.747 129.244 37.7213 129.354 37.6846 129.461Z" fill="#263238"/>
<path id="Vector_52" d="M32.159 121.032C30.6789 119.808 29.6218 118.149 29.1377 116.29C30.9294 116.516 33.2896 117.302 34.6438 118.506C35.9983 119.718 36.9565 121.309 37.3937 123.073C35.478 122.958 33.6469 122.244 32.159 121.032Z" fill="#455A64"/>
<path id="Vector_53" d="M31.2393 118.174C31.3 118.257 31.3661 118.336 31.4373 118.411C31.5682 118.561 31.7567 118.768 32.0122 119.021C32.6634 119.678 33.3557 120.294 34.0849 120.863C34.8117 121.436 35.5744 121.961 36.3685 122.435C36.6879 122.617 36.9242 122.754 37.0999 122.847C37.1883 122.9 37.2813 122.945 37.3777 122.981C37.2983 122.916 37.2127 122.86 37.1222 122.812C36.9498 122.71 36.707 122.563 36.4068 122.371C35.8096 121.994 34.9984 121.448 34.1488 120.774C33.2993 120.1 32.5743 119.452 32.0633 118.96L31.466 118.372C31.3968 118.299 31.3209 118.233 31.2393 118.174Z" fill="#263238"/>
<path id="Vector_54" d="M40.0252 118.893C38.5448 117.669 37.4876 116.009 37.0039 114.15C38.7956 114.377 41.1558 115.166 42.5132 116.366C43.8672 117.582 44.8251 119.177 45.2631 120.943C43.3452 120.826 41.5128 120.109 40.0252 118.893Z" fill="#455A64"/>
<path id="Vector_55" d="M39.1084 116.047C39.1659 116.132 39.2311 116.211 39.3032 116.283C39.4342 116.433 39.6226 116.641 39.8813 116.896C40.5323 117.552 41.2235 118.166 41.9509 118.736C42.6792 119.308 43.4429 119.832 44.2376 120.307C44.557 120.489 44.7934 120.627 44.969 120.719C45.0539 120.766 45.1426 120.806 45.2341 120.838C45.1521 120.775 45.0657 120.718 44.9754 120.668C44.8061 120.569 44.5602 120.419 44.2632 120.231C43.4831 119.737 42.7284 119.204 42.002 118.634C41.277 118.066 40.5819 117.46 39.9196 116.82C39.6641 116.577 39.4597 116.376 39.3192 116.232C39.2542 116.165 39.1836 116.103 39.1084 116.047Z" fill="#263238"/>
<path id="Vector_56" d="M54.0622 120.838C53.9863 120.821 53.9095 120.808 53.8322 120.799L53.1711 120.707L52.692 120.643C52.5164 120.624 52.3216 120.614 52.1172 120.595C51.7052 120.566 51.2389 120.515 50.7183 120.509L49.9007 120.486C49.6196 120.486 49.3226 120.486 49.016 120.486C48.406 120.486 47.7385 120.534 47.0678 120.579C45.5812 120.708 44.1047 120.935 42.6475 121.256C41.1952 121.597 39.7666 122.032 38.371 122.559C37.7323 122.818 37.1223 123.051 36.5729 123.319C36.2951 123.447 36.0236 123.565 35.7713 123.693L35.0463 124.067C34.58 124.3 34.1776 124.546 33.8199 124.753C33.6442 124.855 33.4749 124.951 33.3248 125.044L32.9192 125.309L32.3635 125.676C32.2963 125.717 32.2323 125.763 32.1719 125.814C32.2426 125.781 32.311 125.744 32.3763 125.702L32.948 125.354L33.36 125.101C33.5101 125.012 33.6793 124.919 33.8582 124.82C34.2191 124.622 34.6215 124.38 35.091 124.156L35.816 123.789C36.0715 123.664 36.343 123.549 36.6176 123.425C37.1702 123.163 37.7802 122.933 38.4158 122.677C39.8081 122.16 41.2323 121.734 42.6795 121.4C44.1295 121.079 45.5984 120.849 47.0773 120.713C47.7608 120.665 48.4092 120.608 49.0192 120.604C49.3386 120.604 49.6196 120.585 49.9007 120.589L50.7151 120.604C51.2325 120.604 51.6988 120.646 52.1108 120.668C52.3184 120.684 52.51 120.691 52.6857 120.707L53.1647 120.758L53.829 120.822C53.9061 120.834 53.9841 120.839 54.0622 120.838Z" fill="#263238"/>
<path id="Vector_57" d="M29.0132 125.814C27.4111 126.871 26.182 128.405 25.5 130.199C27.3077 130.167 29.7478 129.643 31.2201 128.602C32.695 127.539 33.8174 126.058 34.4426 124.351C32.5241 124.256 30.6243 124.768 29.0132 125.814Z" fill="#455A64"/>
<path id="Vector_58" d="M27.7871 128.554C27.8574 128.478 27.9321 128.407 28.0107 128.34C28.1544 128.206 28.3748 128.021 28.6494 127.794C30.0893 126.63 31.6686 125.651 33.3507 124.878C33.6701 124.731 33.9384 124.619 34.1236 124.559C34.2174 124.515 34.3146 124.48 34.4142 124.453C34.3281 124.51 34.236 124.557 34.1396 124.594C33.9607 124.677 33.702 124.798 33.3826 124.955C32.7439 125.274 31.8816 125.718 30.9617 126.286C30.1801 126.773 29.4233 127.299 28.6941 127.861C28.4131 128.078 28.1895 128.257 28.0362 128.381C27.9585 128.446 27.8752 128.504 27.7871 128.554Z" fill="#263238"/>
<path id="Vector_59" d="M39.8053 99.8163C37.7277 99.2845 35.5355 99.4197 33.5391 100.203C34.922 101.672 37.1896 103.291 39.1602 103.716C41.1471 104.139 43.2154 103.957 45.0974 103.192C43.7312 101.54 41.8798 100.359 39.8053 99.8163Z" fill="#455A64"/>
<path id="Vector_60" d="M36.6113 100.864C36.7257 100.862 36.84 100.869 36.9531 100.886C37.1734 100.905 37.4928 100.943 37.8825 101.004C38.9081 101.163 39.9225 101.387 40.9198 101.675C41.9134 101.957 42.8883 102.302 43.8389 102.706C44.203 102.863 44.4936 102.997 44.6916 103.096C44.8023 103.142 44.9091 103.196 45.011 103.259C44.9006 103.23 44.7935 103.189 44.6916 103.138C44.4904 103.051 44.1934 102.93 43.8261 102.783C42.8703 102.402 41.8961 102.07 40.907 101.787C39.7476 101.467 38.6713 101.234 37.9016 101.097C37.5152 101.026 37.199 100.975 36.9786 100.943C36.8539 100.928 36.731 100.902 36.6113 100.864Z" fill="#263238"/>
<path id="Vector_61" d="M43.1394 107.743C41.2654 107.775 39.4488 108.395 37.9463 109.516C39.4538 110.436 41.7373 111.279 43.4971 111.18C45.2701 111.079 46.9717 110.447 48.3804 109.366C46.8474 108.287 45.0135 107.72 43.1394 107.743Z" fill="#455A64"/>
<path id="Vector_62" d="M40.6992 109.362C40.7952 109.333 40.8935 109.313 40.993 109.302C41.1847 109.267 41.4625 109.225 41.8043 109.187C43.5985 108.978 45.4118 108.995 47.2018 109.238C47.5467 109.286 47.8214 109.33 48.013 109.369C48.1128 109.382 48.2111 109.405 48.3069 109.436C48.2061 109.435 48.1057 109.426 48.0066 109.407C47.815 109.382 47.5371 109.346 47.1954 109.308C46.5087 109.231 45.557 109.155 44.5062 109.142C43.6074 109.135 42.7088 109.174 41.8139 109.257C41.4689 109.289 41.1751 109.318 40.9994 109.34C40.9 109.355 40.7997 109.362 40.6992 109.362Z" fill="#263238"/>
<path id="Vector_63" d="M46.7869 102.135C47.196 100.305 48.1717 98.6514 49.575 97.4082C50.1691 99.0658 50.5332 101.474 50.0829 103.179C49.6282 104.896 48.6665 106.435 47.3234 107.596C46.5766 105.877 46.3889 103.967 46.7869 102.135Z" fill="#455A64"/>
<path id="Vector_64" d="M48.8663 100.078C48.819 100.166 48.7795 100.258 48.7481 100.353C48.6746 100.532 48.582 100.797 48.4702 101.126C48.1906 101.981 47.9634 102.852 47.79 103.735C47.6153 104.621 47.4969 105.517 47.4354 106.418C47.4131 106.763 47.4035 107.041 47.4003 107.235C47.39 107.335 47.39 107.436 47.4003 107.536C47.4181 107.436 47.4288 107.336 47.4323 107.235C47.4323 107.044 47.4674 106.766 47.4993 106.421C47.6602 104.63 48.007 102.861 48.5341 101.142C48.6331 100.822 48.7194 100.544 48.78 100.359C48.8184 100.269 48.8473 100.175 48.8663 100.078Z" fill="#263238"/>
<path id="Vector_65" d="M44.3238 94.6963C45.1735 93.0717 46.5149 91.7571 48.1564 90.9404C48.2969 92.6555 48.0318 95.0221 47.1759 96.5168C46.3087 98.0215 45.0074 99.2293 43.4423 99.9821C43.1731 98.1713 43.4816 96.3218 44.3238 94.6963Z" fill="#455A64"/>
<path id="Vector_66" d="M46.8088 93.2754C46.7403 93.3463 46.6783 93.4233 46.6236 93.5053C46.5118 93.6555 46.3553 93.8822 46.1668 94.1633C45.6838 94.9012 45.2465 95.6681 44.8574 96.4596C44.4692 97.251 44.1311 98.0659 43.845 98.8997C43.7364 99.219 43.6565 99.4809 43.6054 99.663C43.5743 99.7557 43.5508 99.8507 43.5352 99.9472C43.5792 99.8601 43.6155 99.7692 43.6437 99.6758C43.7044 99.4969 43.7939 99.2382 43.912 98.922C44.2157 98.098 44.561 97.29 44.9468 96.5011C45.3339 95.7137 45.7603 94.9462 46.2243 94.2016C46.4032 93.9141 46.5437 93.6842 46.6523 93.5277C46.7093 93.4467 46.7616 93.3625 46.8088 93.2754Z" fill="#263238"/>
<path id="Vector_67" d="M58.5816 121.406C58.5816 121.406 58.5624 121.381 58.5241 121.342L58.3452 121.167L57.649 120.518L57.1443 120.043L56.5631 119.458C56.1479 119.036 55.6624 118.57 55.1642 118.018L54.3689 117.162C54.0943 116.862 53.8228 116.539 53.5354 116.204C52.9509 115.565 52.3728 114.817 51.7532 114.054C50.4404 112.371 49.2134 110.623 48.0772 108.816C46.9604 106.999 45.9433 105.123 45.0303 103.195C44.631 102.295 44.2318 101.448 43.922 100.64C43.7623 100.231 43.6026 99.8418 43.4589 99.4617C43.3152 99.0816 43.1938 98.7111 43.0725 98.3598C42.8106 97.6636 42.6317 97.0152 42.4561 96.4435L42.2165 95.6547L42.0409 94.968C41.9355 94.572 41.8556 94.2622 41.7981 94.0386C41.7683 93.9385 41.746 93.8587 41.7311 93.7991C41.7255 93.7712 41.7158 93.7443 41.7023 93.7192C41.6995 93.7468 41.6995 93.7747 41.7023 93.8023C41.7183 93.8662 41.7343 93.946 41.7566 94.045C41.8077 94.2686 41.8812 94.5816 41.977 94.9808C42.0249 95.1852 42.0792 95.4088 42.1367 95.6547L42.3666 96.4499C42.5327 97.0152 42.7084 97.6668 42.9639 98.3662C43.082 98.7175 43.2098 99.088 43.3407 99.4745C43.4717 99.8609 43.641 100.247 43.8007 100.656C44.12 101.48 44.5001 102.33 44.8961 103.23C45.8068 105.167 46.8251 107.051 47.9462 108.874C49.0869 110.691 50.3247 112.446 51.6542 114.131C52.293 114.894 52.8583 115.629 53.4491 116.277C53.7398 116.596 54.0144 116.916 54.2891 117.235L55.0939 118.085C55.5986 118.634 56.0872 119.097 56.5088 119.512L57.0996 120.09L57.6138 120.557L58.3261 121.196L58.5145 121.358C58.5355 121.376 58.558 121.392 58.5816 121.406Z" fill="#263238"/>
<path id="Vector_68" d="M42.533 82.742C42.2583 82.2055 41.8463 81.637 41.2555 81.5827C40.9755 81.5856 40.703 81.674 40.4747 81.8361C40.2464 81.9983 40.073 82.2263 39.978 82.4897C39.8016 83.0223 39.7375 83.5855 39.7895 84.1441C39.5306 82.9018 38.8149 81.8019 37.7838 81.0621C37.4421 80.8194 36.9598 80.6245 36.6245 80.8768C36.5191 80.9807 36.4363 81.1053 36.3813 81.2427C36.3264 81.3801 36.3004 81.5274 36.3051 81.6753C36.1923 82.8474 36.2406 84.0295 36.4488 85.1885C36.0073 84.8165 35.4842 84.5539 34.9222 84.422C34.3569 84.3389 33.6894 84.604 33.5233 85.1533C33.4562 85.4625 33.4761 85.7842 33.5808 86.0827C34.1068 88.0419 35.1047 89.8425 36.4872 91.327C37.2185 92.1126 38.0841 92.8249 39.1476 93.0388C40.2111 93.2528 41.5461 93.256 42.006 92.2883L41.8336 92.5342C42.817 91.1145 43.4008 89.4566 43.5239 87.7339C43.6469 86.0112 43.3047 84.2871 42.533 82.742Z" fill="#FF725E"/>
<path id="Vector_69" d="M41.3445 92.8982C41.3305 92.8697 41.3198 92.8397 41.3125 92.8088C41.2902 92.7385 41.2646 92.6523 41.2295 92.5469C41.1943 92.4415 41.156 92.2914 41.1017 92.1317C41.0474 91.972 40.9899 91.79 40.9133 91.5888C40.8366 91.3876 40.76 91.1736 40.661 90.95C40.562 90.7264 40.4534 90.4741 40.3416 90.2186C40.0784 89.67 39.7841 89.1368 39.4601 88.6217C39.1293 88.1101 38.77 87.6175 38.3838 87.1462C38.2018 86.9322 38.0293 86.7278 37.8568 86.5458C37.6844 86.3637 37.5215 86.1976 37.3714 86.0507C37.2213 85.9038 37.0743 85.7729 36.953 85.6579C36.8316 85.5429 36.7166 85.4471 36.6336 85.3704L36.4228 85.1916C36.3781 85.1501 36.3525 85.1277 36.3557 85.1245C36.3834 85.141 36.4101 85.1591 36.4356 85.1788L36.6528 85.3449C36.7486 85.4173 36.855 85.5099 36.9721 85.6227C37.0999 85.7345 37.25 85.8559 37.4001 86.006C37.5502 86.1561 37.7195 86.3254 37.8951 86.501C38.0708 86.6767 38.2465 86.8843 38.4317 87.0951C38.8252 87.5679 39.1899 88.0638 39.524 88.5802C39.8483 89.0951 40.1426 89.6283 40.4055 90.1771C40.5205 90.4358 40.6322 90.6785 40.7249 90.9149C40.8175 91.1512 40.9005 91.3652 40.9708 91.5536C41.041 91.7421 41.0985 91.9401 41.1464 92.103C41.1943 92.2659 41.2359 92.4064 41.2646 92.5214C41.2934 92.6363 41.3125 92.7194 41.3317 92.7896C41.3408 92.8251 41.3451 92.8616 41.3445 92.8982Z" fill="#263238"/>
<path id="Vector_70" d="M39.6735 88.9635C39.6561 88.8989 39.6476 88.8323 39.6479 88.7655C39.6479 88.6377 39.6256 88.4461 39.6128 88.2257C39.5904 87.769 39.5745 87.1335 39.5904 86.434C39.6064 85.7346 39.6415 85.1022 39.6831 84.6455C39.7022 84.4187 39.7214 84.2335 39.7406 84.1057C39.7442 84.0388 39.7549 83.9724 39.7725 83.9077C39.7786 83.9746 39.7786 84.042 39.7725 84.1089C39.7725 84.2526 39.7533 84.4283 39.7406 84.6487C39.715 85.1054 39.6863 85.7378 39.6703 86.4372C39.6543 87.1367 39.6703 87.7658 39.6703 88.2225C39.6703 88.4397 39.6703 88.6218 39.6703 88.7655C39.6782 88.8312 39.6793 88.8976 39.6735 88.9635Z" fill="#263238"/>
<g id="Group_3" opacity="0.3">
<path id="Vector_71" d="M36.4268 85.1787C36.4268 85.1787 39.1159 86.2295 39.5758 88.7334C39.5758 88.7334 38.1706 86.4083 36.4268 85.1787Z" fill="black"/>
</g>
<path id="Vector_72" d="M31.1086 103.355C30.6742 103.157 30.1504 103.01 29.7448 103.269C29.5728 103.406 29.4472 103.593 29.385 103.805C29.3227 104.016 29.3268 104.241 29.3967 104.45C29.548 104.866 29.784 105.245 30.0897 105.565C29.3251 104.923 28.3465 104.593 27.3495 104.642C27.0301 104.642 26.6277 104.773 26.5446 105.092C26.5316 105.206 26.5415 105.321 26.5739 105.431C26.6063 105.54 26.6604 105.643 26.7331 105.731C27.2323 106.508 27.8363 107.211 28.528 107.823C28.0753 107.81 27.6258 107.903 27.2153 108.094C27.0122 108.197 26.8509 108.368 26.759 108.576C26.667 108.784 26.6499 109.018 26.7107 109.238C26.8208 109.462 26.9911 109.651 27.2026 109.784C28.4817 110.734 29.9741 111.357 31.5493 111.598C32.3784 111.774 33.2415 111.69 34.0213 111.358C34.775 110.978 35.6182 110.32 35.417 109.5V109.736C35.335 108.384 34.8921 107.079 34.1343 105.957C33.3766 104.835 32.3317 103.936 31.1086 103.355Z" fill="#FF725E"/>
<path id="Vector_73" d="M35.3333 110.196L35.2694 110.154L35.0906 110.033C35.0139 109.979 34.9213 109.912 34.8095 109.841C34.6977 109.771 34.5732 109.682 34.4294 109.599C34.2857 109.516 34.1292 109.417 33.9568 109.321C33.7843 109.225 33.599 109.129 33.4042 109.03C32.973 108.821 32.5305 108.635 32.0788 108.475C31.6259 108.319 31.1641 108.191 30.6959 108.091C30.4787 108.047 30.2743 108.005 30.0795 107.979C29.8847 107.954 29.7026 107.925 29.5365 107.909C29.3705 107.893 29.2172 107.88 29.0894 107.871C28.9617 107.861 28.8403 107.871 28.7477 107.852H28.5337H28.457H28.7477C28.8615 107.846 28.9756 107.846 29.0894 107.852C29.2235 107.852 29.3737 107.852 29.5429 107.88C29.7122 107.909 29.891 107.912 30.0859 107.941C30.2807 107.97 30.4915 108.008 30.7246 108.047C31.196 108.147 31.661 108.275 32.1171 108.43C32.5604 108.587 32.9944 108.769 33.417 108.976C33.615 109.078 33.8003 109.174 33.9727 109.276C34.1452 109.378 34.2921 109.471 34.4422 109.56C34.5923 109.65 34.7073 109.736 34.8159 109.813C34.912 109.875 35.0048 109.942 35.0937 110.014L35.263 110.145L35.3333 110.196Z" fill="#263238"/>
<path id="Vector_74" d="M32.3763 108.583C32.3354 108.551 32.2979 108.514 32.2645 108.474C32.1943 108.401 32.0985 108.292 31.9803 108.155C31.7408 107.883 31.4246 107.5 31.0924 107.063C30.7603 106.625 30.476 106.213 30.278 105.913C30.179 105.763 30.1023 105.638 30.0481 105.552C29.9938 105.466 29.9682 105.418 29.9746 105.415C30.0113 105.452 30.0435 105.494 30.0704 105.539L30.3163 105.887C30.5239 106.181 30.8114 106.587 31.1435 107.021C31.4757 107.455 31.7823 107.845 32.0154 108.123C32.1208 108.257 32.2103 108.366 32.2837 108.442C32.3206 108.485 32.3518 108.532 32.3763 108.583Z" fill="#263238"/>
<g id="Group_4" opacity="0.3">
<path id="Vector_75" d="M28.5283 107.833C28.5283 107.833 30.7001 107.168 32.2044 108.488C32.2044 108.488 30.2051 107.743 28.5283 107.833Z" fill="black"/>
</g>
</g>
<g id="Character">
<path id="Vector_76" d="M143.97 14.5835H52.8447V137.998H143.97V14.5835Z" fill="#1D4E89"/>
<path id="Vector_77" d="M143.973 137.998C143.973 137.334 143.941 87.6513 143.897 14.5836L143.973 14.6602H52.8574L52.9404 14.5772C52.9404 60.6286 52.9404 103.288 52.9404 137.992L52.8701 137.925L143.999 137.992L52.8701 138.059H52.8031V137.992C52.8031 103.288 52.8031 60.6286 52.7871 14.5772V14.4941H52.8829H143.999H144.072V14.5708C144.002 87.6513 143.973 137.334 143.973 137.998Z" fill="#263238"/>
<path id="Vector_78" d="M130.984 28.2373H64.8535V123.895H130.984V28.2373Z" fill="white"/>
<path id="Vector_79" d="M130.988 123.894C130.988 123.221 130.956 84.6745 130.911 28.2369L130.988 28.3135H64.876L64.959 28.2305C64.959 64.1671 64.959 97.3635 64.9431 123.888L64.876 123.821L131.01 123.888L64.876 123.955H64.8089V123.888C64.8089 97.3635 64.8089 64.1639 64.793 28.2305V28.1475H64.8856H130.997H131.071V28.2241C131.016 84.6745 130.988 123.221 130.988 123.894Z" fill="#263238"/>
<path id="Vector_80" d="M65.649 123.677C65.6841 123.709 62.8448 126.938 59.3093 130.892C55.7738 134.846 52.8802 138.03 52.845 137.998C52.8099 137.967 55.6492 134.738 59.1847 130.784C62.7203 126.83 65.6139 123.649 65.649 123.677Z" fill="#263238"/>
<path id="Vector_81" d="M143.973 15.1746C144.005 15.2065 141.166 18.3045 137.63 22.0955C134.095 25.8866 131.204 28.9367 131.169 28.9047C131.134 28.8728 133.973 25.7748 137.509 21.9837C141.044 18.1927 143.938 15.1426 143.973 15.1746Z" fill="#263238"/>
<path id="Vector_82" d="M52.8577 14.5837C52.8929 14.5518 55.7833 17.7328 59.3156 21.6867C62.8479 25.6407 65.684 28.8728 65.6489 28.9047C65.6138 28.9367 62.7234 25.7556 59.191 21.7985C55.6587 17.8414 52.8226 14.6157 52.8577 14.5837Z" fill="#263238"/>
<path id="Vector_83" d="M131.169 123.677C131.204 123.649 134.098 126.83 137.633 130.784C141.169 134.738 144.005 137.967 143.973 137.998C143.941 138.03 141.044 134.849 137.509 130.892C133.973 126.935 131.147 123.713 131.169 123.677Z" fill="#263238"/>
<path id="Vector_84" d="M127.86 31.1147H67.9766V121.467H127.86V31.1147Z" fill="#E0E0E0"/>
<path id="Vector_85" d="M118.371 83.9783C118.358 83.7841 118.299 83.5959 118.198 83.4293C118.098 83.2626 117.959 83.1224 117.793 83.0202C112.683 79.6347 108.822 72.1293 108.435 65.7737C108.435 65.4128 108.413 65.0455 108.4 64.675C108.103 55.5886 106.765 44.554 105.564 41.6349C103.348 36.2054 95.8359 35.7008 95.8359 35.7008C85.8617 34.9854 84.0796 42.6505 83.0607 49.629C82.422 53.9694 80.0234 69.4753 80.0234 69.4753L81.8567 70.1875C82.91 73.3557 84.6533 76.2506 86.9607 78.6636C89.2682 81.0766 92.0824 82.9474 95.2004 84.1412C97.0368 84.8343 98.5954 85.0993 99.3236 84.5149C102.238 87.4814 105.845 89.6765 109.818 90.9025C111.418 91.4435 113.109 91.668 114.794 91.5636C115.883 91.4614 117.03 91.1037 117.669 90.2222C117.951 89.8407 118.118 89.3869 118.152 88.9138C118.185 88.4407 118.084 87.9678 117.859 87.5503C117.634 87.1328 117.294 86.7879 116.881 86.5558C116.467 86.3237 115.996 86.214 115.523 86.2395C115.925 84.9971 118.413 85.358 118.371 83.9783Z" fill="#263238"/>
<path id="Vector_86" d="M97.1618 38.5213L96.523 37.9272L89.7809 40.6452C89.3102 40.6706 88.8662 40.8717 88.5368 41.2088C88.2073 41.546 88.0165 41.9945 88.002 42.4656L88.0626 64.4358C88.0626 65.9241 88.3501 67.2144 89.2507 68.4025L90.2089 69.6545C92.3679 72.5033 96.8073 72.2702 98.5128 69.1275C98.6155 68.95 98.6949 68.76 98.7491 68.5622C98.7922 68.4002 98.8263 68.236 98.8513 68.0703C99.0493 66.301 99.0621 64.7679 99.0621 64.7679C99.1834 62.8293 99.2218 62.0309 99.2218 62.05C99.2218 62.0692 103.351 61.5741 104.469 56.2756C105.025 53.6376 104.92 50.0126 104.763 46.4419C104.559 41.5011 101.125 38.5181 97.1618 38.5213Z" fill="#FFBE9D"/>
<path id="Vector_87" d="M95.7793 49.4024C95.7719 49.5806 95.6954 49.7489 95.566 49.8717C95.4367 49.9945 95.2646 50.0622 95.0863 50.0603C94.9999 50.0629 94.9138 50.0484 94.833 50.0177C94.7522 49.9869 94.6782 49.9406 94.6154 49.8813C94.5525 49.822 94.5019 49.7508 94.4665 49.6719C94.4311 49.5931 94.4117 49.508 94.4092 49.4216C94.4166 49.2428 94.4936 49.074 94.6236 48.9512C94.7537 48.8283 94.9265 48.761 95.1054 48.7637C95.1922 48.7589 95.2791 48.7719 95.3607 48.8018C95.4423 48.8318 95.5169 48.8781 95.58 48.9379C95.6431 48.9977 95.6933 49.0697 95.7276 49.1496C95.7618 49.2295 95.7794 49.3155 95.7793 49.4024Z" fill="#263238"/>
<path id="Vector_88" d="M102.751 49.5874C102.745 49.7664 102.668 49.9357 102.538 50.0587C102.407 50.1818 102.234 50.2488 102.055 50.2453C101.969 50.2479 101.883 50.2334 101.802 50.2026C101.721 50.1719 101.647 50.1256 101.584 50.0662C101.521 50.0069 101.471 49.9358 101.435 49.8569C101.4 49.778 101.38 49.693 101.378 49.6066C101.385 49.4278 101.462 49.259 101.592 49.1361C101.722 49.0133 101.895 48.946 102.074 48.9486C102.161 48.9456 102.247 48.9599 102.328 48.9904C102.409 49.021 102.483 49.0673 102.546 49.1267C102.609 49.1861 102.66 49.2574 102.695 49.3365C102.73 49.4156 102.749 49.5008 102.751 49.5874Z" fill="#263238"/>
<path id="Vector_89" d="M104.07 47.8534C103.98 47.9396 103.482 47.534 102.744 47.4925C102.007 47.451 101.448 47.8119 101.371 47.7065C101.294 47.6011 101.429 47.5053 101.69 47.3456C102.02 47.1408 102.405 47.0427 102.792 47.0645C103.176 47.0836 103.544 47.2233 103.843 47.4637C104.044 47.649 104.115 47.8151 104.07 47.8534Z" fill="#263238"/>
<path id="Vector_90" d="M96.587 47.9303C96.488 48.0037 96.0345 47.547 95.3095 47.4353C94.5845 47.3235 93.9905 47.6077 93.9234 47.5055C93.8915 47.4608 94 47.3139 94.2619 47.1861C94.6107 47.0164 95.0033 46.9584 95.3862 47.0201C95.7664 47.0778 96.1186 47.2544 96.3922 47.5247C96.5838 47.7259 96.6349 47.8952 96.587 47.9303Z" fill="#263238"/>
<path id="Vector_91" d="M99.1644 53.2988C99.5587 53.1962 99.9643 53.1436 100.372 53.1423C100.56 53.1423 100.742 53.104 100.78 52.9763C100.806 52.7821 100.771 52.5848 100.681 52.4109L100.196 50.9514C99.5253 48.869 99.0494 47.1635 99.1325 47.138C99.2155 47.1124 99.8287 48.7764 100.503 50.8556C100.662 51.3708 100.816 51.8605 100.963 52.3247C101.069 52.5581 101.09 52.8213 101.023 53.0689C100.993 53.1333 100.948 53.19 100.893 53.2347C100.838 53.2795 100.773 53.3113 100.704 53.3276C100.599 53.3513 100.492 53.361 100.384 53.3563C99.9769 53.3886 99.567 53.3693 99.1644 53.2988Z" fill="#263238"/>
<path id="Vector_92" d="M99.2343 62.0498C96.7161 61.9616 94.2716 61.1767 92.1729 59.7822C92.1729 59.7822 93.7793 63.5733 99.1609 63.3497L99.2343 62.0498Z" fill="#EB996E"/>
<path id="Vector_93" d="M98.7616 55.046C98.6303 54.8625 98.4543 54.7154 98.2503 54.6188C98.0464 54.5221 97.8211 54.479 97.5959 54.4935C97.432 54.5 97.2712 54.5396 97.123 54.6098C96.9748 54.6801 96.8423 54.7795 96.7336 54.9023C96.6298 55.0206 96.5645 55.1676 96.5463 55.3239C96.528 55.4802 96.5577 55.6383 96.6314 55.7774C96.7437 55.9161 96.8949 56.0182 97.0656 56.0705C97.2363 56.1228 97.4187 56.1231 97.5895 56.0712C97.9397 55.9631 98.2652 55.7873 98.5476 55.5538C98.6352 55.5002 98.7112 55.4296 98.7712 55.3462C98.7985 55.3056 98.8131 55.2578 98.8131 55.2089C98.8131 55.1599 98.7985 55.1121 98.7712 55.0715" fill="#EB996E"/>
<path id="Vector_94" d="M96.9729 53.6979C97.0943 53.6979 97.056 54.4995 97.7107 55.1C98.3654 55.7004 99.2246 55.6589 99.2246 55.7707C99.2246 55.8218 99.0265 55.9176 98.6656 55.908C98.1922 55.8939 97.7393 55.7116 97.3881 55.3938C97.0549 55.0908 96.8512 54.671 96.8196 54.2217C96.8132 53.8863 96.9122 53.6915 96.9729 53.6979Z" fill="#263238"/>
<path id="Vector_95" d="M97.2929 45.0558C97.1907 45.241 96.4752 45.0366 95.6033 45.0079C94.7314 44.9791 94.0064 45.1069 93.917 44.9121C93.8787 44.8195 94.0288 44.6502 94.3386 44.5033C94.7472 44.3247 95.1911 44.2416 95.6366 44.2604C96.0822 44.2792 96.5175 44.3994 96.9096 44.6119C97.2034 44.7843 97.3376 44.9664 97.2929 45.0558Z" fill="#263238"/>
<path id="Vector_96" d="M103.965 44.6851C103.827 44.8447 103.326 44.6467 102.716 44.6084C102.106 44.5701 101.582 44.6627 101.473 44.4807C101.426 44.3944 101.515 44.2315 101.748 44.0846C102.062 43.9101 102.42 43.8324 102.777 43.8614C103.135 43.8904 103.476 44.0248 103.757 44.2475C103.965 44.4296 104.025 44.6052 103.965 44.6851Z" fill="#263238"/>
<path id="Vector_97" d="M88.1523 51.852C88.1523 51.852 91.9306 53.0273 94.0672 43.7046C94.7986 40.5108 97.7529 37.9366 97.7529 37.9366L96.5552 37.5757C96.5552 37.5757 89.1073 39.674 88.9827 39.7666C88.8582 39.8593 87.1016 43.6215 87.1016 43.6215L88.1523 51.852Z" fill="#263238"/>
<path id="Vector_98" d="M89.0844 51.4944C89.1036 51.0983 88.6884 50.137 88.2987 50.054C87.2575 49.84 85.3636 49.8272 85.2103 52.4908C85.0059 56.1349 88.7043 55.592 88.7235 55.4866C88.7427 55.3812 89.0173 52.8677 89.0844 51.4944Z" fill="#FFBE9D"/>
<path id="Vector_99" d="M87.6823 54.0432C87.6823 54.0432 87.6152 54.0847 87.5067 54.1262C87.4302 54.1551 87.3488 54.1685 87.2671 54.1658C87.1854 54.163 87.1051 54.1441 87.0308 54.1102C86.6539 53.9474 86.3633 53.3182 86.392 52.6602C86.4005 52.348 86.4779 52.0416 86.6188 51.7628C86.6591 51.6509 86.7262 51.5505 86.8141 51.4703C86.9021 51.3902 87.0082 51.3327 87.1234 51.3029C87.1978 51.2862 87.2757 51.2966 87.3431 51.3323C87.4104 51.3681 87.4628 51.4267 87.4907 51.4977C87.5322 51.6031 87.5067 51.6734 87.5226 51.6798C87.5386 51.6861 87.6057 51.6255 87.5865 51.4722C87.57 51.3811 87.5239 51.2981 87.4556 51.2358C87.3587 51.1543 87.2336 51.1142 87.1074 51.124C86.9563 51.1447 86.813 51.204 86.6916 51.2964C86.5701 51.3887 86.4747 51.5109 86.4144 51.651C86.241 51.9575 86.1456 52.3019 86.1365 52.6539C86.1174 53.3884 86.4559 54.0975 86.9733 54.2795C87.0693 54.313 87.1716 54.3247 87.2727 54.3136C87.3739 54.3026 87.4712 54.2691 87.5578 54.2156C87.6695 54.1326 87.7111 54.0496 87.6823 54.0432Z" fill="#EB996E"/>
<path id="Vector_100" d="M90.7129 50.0602C90.8968 50.0327 91.0791 49.9954 91.259 49.9484C91.7433 49.8014 92.187 49.5446 92.5557 49.1979C92.8117 48.9602 93.0389 48.6933 93.2328 48.4026C93.4519 48.0679 93.636 47.7115 93.7821 47.3391C94.0969 46.4731 94.3593 45.5889 94.5678 44.6914C94.8022 43.7965 95.0815 42.9139 95.4046 42.047C95.673 41.3377 95.9932 40.6492 96.3627 39.987C96.6096 39.5417 96.8882 39.1148 97.1963 38.7094C97.3017 38.5625 97.3975 38.4603 97.4582 38.3901C97.4867 38.352 97.5188 38.3167 97.554 38.2847C97.5304 38.3268 97.5026 38.3664 97.471 38.4028C97.4167 38.4827 97.3273 38.5881 97.225 38.7222C96.932 39.132 96.6633 39.5585 96.4202 39.9997C96.0646 40.6628 95.7561 41.3501 95.4972 42.0565C95.197 42.8518 94.9223 43.7461 94.6668 44.6946C94.4598 45.5967 94.1941 46.4843 93.8716 47.3519C93.7201 47.7279 93.5307 48.0874 93.3063 48.425C93.1066 48.7178 92.8729 48.9858 92.61 49.2234C92.2302 49.573 91.7726 49.827 91.275 49.9644C91.093 50.0223 90.9038 50.0546 90.7129 50.0602Z" fill="#263238"/>
<path id="Vector_101" d="M85.738 65.6013C85.7171 65.5436 85.7031 65.4835 85.6965 65.4225L85.607 64.9051C85.5272 64.4388 85.4186 63.7745 85.2877 62.9281H85.3771C85.393 63.0623 85.4154 63.2092 85.4346 63.3593C85.4569 63.4072 85.4857 63.4647 85.5112 63.5222L85.4186 63.5541C84.5145 60.4149 84.047 57.1661 84.0293 53.8993C84.0293 52.5674 84.0293 51.1526 84.3902 49.7473C84.5344 49.1694 84.7568 48.6139 85.0513 48.0961C85.3409 47.5966 85.6778 47.126 86.0574 46.6908C86.7983 45.8349 87.5968 45.094 88.325 44.369L92.2374 40.5364L94.8818 37.9526L95.6068 37.2564L95.7985 37.0775L95.8687 37.02C95.8687 37.02 95.8527 37.0456 95.8112 37.0903L95.6324 37.2787L94.9297 37.9973C94.291 38.6361 93.4127 39.5176 92.3204 40.6194L88.4335 44.4903C87.7086 45.2249 86.9101 45.9659 86.1819 46.8122C85.4053 47.6628 84.8454 48.6883 84.5499 49.8016C84.2018 51.1845 84.205 52.593 84.189 53.9184C84.2029 57.1727 84.6486 60.4107 85.5144 63.5477L85.4218 63.5829L85.3483 63.4168C85.3292 63.2635 85.31 63.1166 85.294 62.9856H85.3803C85.5048 63.832 85.6006 64.4995 85.6677 64.969C85.6965 65.1893 85.7188 65.3618 85.738 65.4896C85.7394 65.5268 85.7394 65.5641 85.738 65.6013Z" fill="#455A64"/>
<path id="Vector_102" d="M82.8701 48.7604C82.8838 48.7064 82.9054 48.6548 82.934 48.6071C82.9915 48.4921 83.0617 48.3515 83.1448 48.1791C83.33 47.8086 83.6207 47.2848 84.0039 46.6493C84.3872 46.0137 84.8694 45.2727 85.4443 44.4775C86.0192 43.6822 86.6995 42.8422 87.4532 41.9959C88.207 41.1495 88.9831 40.399 89.7049 39.7379C90.4267 39.0768 91.1165 38.5178 91.7106 38.0739C92.3046 37.63 92.7933 37.2818 93.1446 37.0583L93.547 36.7996C93.5927 36.7691 93.6407 36.7424 93.6907 36.7197C93.6907 36.7197 93.6524 36.7612 93.563 36.8283L93.1797 37.1094C92.8412 37.3489 92.3621 37.7098 91.784 38.1665C91.2059 38.6232 90.5289 39.1917 89.8102 39.8497C89.0916 40.5076 88.3315 41.2709 87.5746 42.1077C86.8177 42.9444 86.1502 43.7876 85.5657 44.5669C84.9812 45.3462 84.4926 46.0839 84.0997 46.7099C83.7069 47.3359 83.4003 47.8501 83.1991 48.211L82.9595 48.623C82.9345 48.6717 82.9045 48.7177 82.8701 48.7604Z" fill="#455A64"/>
<path id="Vector_103" d="M87.041 64.2216C87.1688 64.0364 88.0183 62.3979 88.0183 62.3979L92.8218 66.5435C92.8218 66.5435 97.5422 70.4942 97.5422 70.2387L98.296 66.4381L99.2222 62.976L100.953 65.5949C100.953 65.5949 106.383 76.2622 106.383 76.39C106.383 76.5177 109.752 87.5683 109.752 87.5683L109.027 92.0396L108.941 107.897L98.7942 107.472L96.7917 104.278L93.3647 83.9401L87.041 64.2216Z" fill="white"/>
<path id="Vector_104" d="M98.4102 104.486H109.604L112.904 121.493H90.4736L98.4102 104.486Z" fill="#263238"/>
<path id="Vector_105" d="M85.2044 66.8631L78.6699 69.3159L84.7062 96.1982C84.7062 96.1982 84.3517 103.461 83.0678 107.162C81.7839 110.864 78.7689 121.493 78.7689 121.493H98.8452C98.8452 121.493 99.6979 106.904 99.3594 101.691C99.0208 96.4792 99.1613 86.6551 97.1652 81.529C95.1691 76.403 87.1686 63.8066 87.1686 63.8066L85.2044 66.8631Z" fill="#56AB91"/>
<path id="Vector_106" d="M99.5283 63.2827L102.489 65.7292L110.62 66.9396C110.62 66.9396 114.469 80.8806 113.757 86.3611C113.044 91.8417 114.038 101.33 114.038 101.33L117.602 121.493H109.777C109.777 121.493 107.542 97.9131 107.411 98.1973C107.28 98.4816 106.849 86.6645 105.996 82.832C105.143 78.9994 100.838 66.9524 100.838 66.9524L99.5283 63.2827Z" fill="#56AB91"/>
<path id="Vector_107" d="M120.875 97.9833C120.875 97.9833 124.152 96.4886 124.152 93.5695C124.152 90.6504 122.156 86.5208 121.731 84.9462C121.307 83.3717 111.62 66.7192 110.623 66.9332L109.627 67.1472L114.753 89.6475L107.774 91.3562L110.751 99.922L120.875 97.9833Z" fill="#56AB91"/>
<path id="Vector_108" d="M110.886 90.7108L112.323 86.0606L112.569 82.8924L115.951 80.6567C115.951 80.6567 116.858 80.7621 116.59 81.4648C116.322 82.1674 114.939 83.4322 114.939 83.4322L114.131 85.6902L115.443 83.397L117.36 82.4389L119.26 82.5794C119.26 82.5794 119.611 83.4226 118.733 83.4577H117.775L116.331 84.6202L115.431 86.7984L116.788 84.6905L118.794 83.9783L120.071 84.2977C120.071 84.2977 120.422 84.8598 119.79 84.9364C119.158 85.0131 118.736 85.0067 118.736 85.0067L117.577 85.6806L116.555 87.8204L118.35 86.3417L120.668 86.0638C120.668 86.0638 121.058 86.6228 120.458 86.8335C119.846 87.0846 119.248 87.3671 118.666 87.6799L117.363 89.2608L110.886 90.7108Z" fill="#FFBE9D"/>
<path id="Vector_109" d="M99.439 104.486C99.4229 104.452 99.4111 104.417 99.4038 104.381C99.3847 104.304 99.3559 104.199 99.324 104.061C99.2505 103.777 99.1515 103.375 99.0046 102.86C98.7459 101.803 98.3659 100.305 97.9123 98.4273C97.4588 96.5494 96.8935 94.3329 96.2611 91.8673C95.9418 90.6345 95.6032 89.341 95.2327 88.0028C95.0507 87.3353 94.8591 86.6582 94.6515 85.9747C94.5493 85.633 94.4343 85.2912 94.3321 84.9463C94.2121 84.6053 94.0724 84.2715 93.9137 83.9467C92.716 81.5417 91.4928 79.2773 90.4005 77.1886C89.3082 75.0998 88.2671 73.2027 87.3856 71.5611L87.3632 71.5164L87.3983 71.4844C87.6219 71.2832 87.8423 71.0948 88.0627 70.916C88.1712 70.8247 88.2853 70.7405 88.4044 70.6636L88.4555 70.6349H88.4874C88.4874 70.6349 88.4874 70.6349 88.4683 70.6573C88.463 70.6712 88.4634 70.6867 88.4693 70.7005C88.4753 70.7142 88.4864 70.725 88.5002 70.7307H88.4108H88.2128C87.6826 70.7307 87.1844 70.7307 86.7245 70.7307H86.6893V70.6988C86.223 69.4947 85.8557 68.5398 85.6002 67.8755L85.316 67.1281L85.2457 66.9333L85.2266 66.8662C85.2266 66.8662 85.2266 66.8854 85.2585 66.9269L85.3415 67.1185L85.6609 67.8563C85.926 68.5174 86.2997 69.4532 86.7947 70.6636L86.7468 70.6317C87.2099 70.6317 87.7049 70.6062 88.2383 70.6062H88.4395C88.4778 70.6033 88.5162 70.6033 88.5545 70.6062H88.5737C88.5819 70.6143 88.5877 70.6246 88.5905 70.6359C88.5933 70.6471 88.593 70.6589 88.5896 70.67C88.5705 70.7052 88.5737 70.6924 88.5673 70.6988H88.5385H88.5226C88.5091 70.705 88.4963 70.7125 88.4842 70.7211C88.3721 70.7954 88.2654 70.8776 88.1649 70.9671C87.9509 71.1459 87.7305 71.3343 87.5261 71.5356V71.4589C88.4108 73.0973 89.4424 74.9944 90.5666 77.0736C91.6908 79.1528 92.9045 81.4204 94.1053 83.8317C94.2673 84.1624 94.4092 84.5027 94.5301 84.8505C94.6419 85.1986 94.7569 85.5404 94.8495 85.8853C95.0624 86.573 95.2562 87.2512 95.4308 87.9197C95.798 89.2579 96.1302 90.5514 96.4464 91.7874C97.0851 94.2562 97.6153 96.4855 98.0656 98.3603L99.1068 102.803C99.2218 103.32 99.3144 103.726 99.3783 104.013C99.4038 104.144 99.4262 104.25 99.4422 104.333C99.4496 104.384 99.4485 104.435 99.439 104.486Z" fill="#263238"/>
<path id="Vector_110" d="M109.778 88.6734C109.769 88.5905 109.769 88.5071 109.778 88.4243C109.778 88.2422 109.8 88.0059 109.819 87.7088C109.819 87.5523 109.838 87.3895 109.851 87.1914V86.5782C109.851 86.1343 109.851 85.6201 109.819 85.0803C109.653 82.1893 109.085 79.3355 108.133 76.6008C107.745 75.4577 107.288 74.3389 106.766 73.2505C106.3 72.1949 105.772 71.1679 105.185 70.1749C104.664 69.2678 104.185 68.479 103.783 67.8274L102.825 66.304C102.719 66.1379 102.636 65.9846 102.569 65.8984C102.539 65.8514 102.512 65.8023 102.489 65.7515C102.529 65.7915 102.564 65.8354 102.595 65.8824L102.869 66.2752C103.106 66.6202 103.444 67.128 103.859 67.7731C104.275 68.4183 104.766 69.204 105.297 70.1078C105.893 71.1008 106.426 72.1301 106.894 73.1898C107.426 74.2877 107.888 75.4185 108.276 76.5753C109.236 79.3228 109.791 82.1954 109.924 85.1027C109.96 85.6616 109.94 86.1662 109.924 86.607C109.924 86.8274 109.924 87.0349 109.908 87.2234C109.892 87.4118 109.877 87.5843 109.864 87.7408C109.835 88.0378 109.809 88.2773 109.793 88.4562C109.792 88.5288 109.786 88.6013 109.778 88.6734Z" fill="#263238"/>
<path id="Vector_111" d="M121.119 97.8585C121.054 97.8831 120.986 97.9013 120.918 97.9128L120.333 98.047L118.126 98.5292L110.41 100.168L110.343 100.184L110.321 100.117C109.682 98.2003 108.96 96.1051 108.216 93.9046L107.443 91.6146L107.411 91.5284L107.501 91.5061L113.304 90.1423L115.804 89.5578L116.932 89.2959C117.278 89.2003 117.634 89.1403 117.992 89.1171C118.609 89.0957 119.222 89.2205 119.781 89.4812C120.2 89.6711 120.588 89.9242 120.93 90.2317C121.145 90.4239 121.339 90.638 121.509 90.8705C121.556 90.9471 121.598 91.0078 121.63 91.0557C121.662 91.1036 121.671 91.1228 121.668 91.1228C121.44 90.8131 121.179 90.5293 120.889 90.2764C120.546 89.9815 120.16 89.7393 119.746 89.5578C119.194 89.3199 118.595 89.2107 117.995 89.2385C117.646 89.2647 117.3 89.3278 116.964 89.4269L115.836 89.6984L113.339 90.2988C111.573 90.7172 109.615 91.1835 107.539 91.6817L107.596 91.5731L108.372 93.8631C109.113 96.0668 109.822 98.1651 110.468 100.081L110.378 100.03L118.107 98.4526L120.324 98.0118L120.911 97.9C120.979 97.8815 121.049 97.8676 121.119 97.8585Z" fill="#263238"/>
<path id="Vector_112" d="M83.3993 109.027L94.089 110.011L92.2494 113.281L80.9912 112.18L83.3993 109.027Z" fill="#3FC1C0"/>
<path id="Vector_113" d="M83.3993 109.021C83.3993 109.021 83.3993 109.047 83.3609 109.085L83.2428 109.251L82.7765 109.89L81.0327 112.215L80.9943 112.125L91.8628 113.173L92.2589 113.211L92.179 113.253L94.0186 109.979L94.0793 110.097L86.4334 109.34L84.1977 109.114L83.5973 109.047C83.5262 109.042 83.4556 109.032 83.3865 109.015H83.5877L84.1785 109.056L86.4142 109.238L94.0985 109.931H94.2199L94.1592 110.04L92.3259 113.314L92.2972 113.358H92.2429L91.8469 113.32L80.9879 112.231H80.8857L80.9464 112.151L82.7477 109.845L83.2332 109.232C83.2844 109.158 83.3399 109.088 83.3993 109.021Z" fill="#263238"/>
<path id="Vector_114" d="M112.176 110.126L113.846 113.282L117.436 112.547L115.532 109.641L112.176 110.126Z" fill="#3FC1C0"/>
<path id="Vector_115" d="M112.176 110.126C112.248 110.105 112.322 110.09 112.396 110.081L113.067 109.966C113.648 109.867 114.494 109.727 115.523 109.57H115.568L115.593 109.609C116.149 110.452 116.807 111.445 117.509 112.509L117.576 112.611L117.455 112.636L117.276 112.671L113.862 113.358H113.811L113.785 113.31C113.281 112.352 112.875 111.538 112.597 110.982C112.47 110.723 112.364 110.509 112.278 110.343C112.24 110.273 112.206 110.201 112.179 110.126C112.179 110.126 112.233 110.212 112.319 110.362L112.68 111.001C113 111.55 113.415 112.317 113.913 113.237L113.833 113.202L117.244 112.493L117.423 112.458L117.372 112.582C116.676 111.515 116.028 110.519 115.478 109.669L115.545 109.701C114.552 109.839 113.725 109.938 113.131 110.021L112.438 110.1C112.272 110.12 112.182 110.129 112.176 110.126Z" fill="#263238"/>
<g id="Group_5" opacity="0.3">
<path id="Vector_116" d="M82.2945 112.311L81.8506 113.282L92.9554 114.301L93.7826 110.554L92.2496 113.282L82.2945 112.311Z" fill="black"/>
</g>
<g id="Group_6" opacity="0.3">
<path id="Vector_117" d="M84.585 97.9004C84.585 97.9004 86.3288 101.554 88.5932 102.624C91.6816 104.08 99.417 103.129 99.417 103.129L99.4393 100.909L90.4743 101.42L84.585 97.9004Z" fill="black"/>
</g>
<path id="Vector_118" d="M79.0886 69.1462C79.0886 69.1462 75.9555 69.3602 75.8948 77.5491C75.8341 85.738 85.4347 99.4778 87.0731 100.832C88.7115 102.186 90.5863 103.093 95.5175 102.362C101.707 101.445 106.012 100.618 106.012 100.618L105.156 93.1413L94.0995 92.643L85.1345 74.2084C85.1345 74.2084 82.1451 68.779 79.0886 69.1462Z" fill="#56AB91"/>
<g id="Group_7" opacity="0.3">
<path id="Vector_119" d="M107.832 96.281C106.618 95.7764 105.277 95.7668 103.951 95.7636L98.7261 95.7477C97.5989 95.6972 96.4698 95.7906 95.3662 96.0255C94.2528 96.2676 93.2738 96.9256 92.6291 97.8652L89.8984 100.123C93.3948 100.97 97.0642 100.755 100.438 99.5068C101.26 99.1434 102.116 98.8631 102.993 98.67C105.353 98.2995 107.742 99.6697 110.09 99.2321C110.093 97.9163 109.042 96.7889 107.832 96.281Z" fill="black"/>
</g>
<path id="Vector_120" d="M90.1324 88.6733C91.1519 89.0844 92.1988 89.4238 93.2655 89.689C94.5992 89.9661 95.9006 90.3803 97.1492 90.925C98.0339 91.274 98.8986 91.6717 99.7393 92.1163L101.387 97.8651C101.387 97.8651 98.6503 99.5865 95.5618 99.4971C92.4734 99.4077 89.7364 100.407 89.3403 100.136C88.9443 99.8644 88.8996 99.3726 89.3403 99.1522C89.7811 98.9318 91.6526 98.6667 91.6526 98.6667L93.2495 98.0056C93.2495 98.0056 87.7338 98.4911 87.2931 98.2707C86.8524 98.0503 86.4116 97.7405 86.5873 97.2551C86.6285 97.1211 86.7096 97.0029 86.8197 96.9162C86.9299 96.8295 87.0638 96.7783 87.2037 96.7696C87.2037 96.7696 86.0124 96.8143 86.0571 96.3289C86.0918 96.1233 86.1684 95.9271 86.2821 95.7523C86.3958 95.5776 86.5443 95.4282 86.7182 95.3132C86.8971 95.2238 89.2094 94.2848 89.2094 94.2848L92.186 93.6908L89.3275 93.5758L86.83 94.2721C86.83 94.2721 85.8335 94.387 86.0571 93.5471C86.2807 92.7071 89.3403 91.7745 89.3403 91.7745L93.224 91.5094C93.224 91.5094 90.2218 91.0687 89.912 90.1425C89.8114 89.9008 89.7788 89.6361 89.8177 89.3772C89.8565 89.1183 89.9653 88.8749 90.1324 88.6733Z" fill="#FFBE9D"/>
<path id="Vector_121" d="M99.7393 92.1161H99.9309L107.51 91.7808L109.777 98.3983L101.387 97.8522L99.7393 92.1161Z" fill="#FFBE9D"/>
<path id="Vector_122" d="M93.1404 95.8785C92.8339 95.9256 92.5244 95.9501 92.2142 95.952C91.6426 95.9839 90.8537 96.051 89.9786 96.182C89.1035 96.3129 88.3465 96.4822 87.7908 96.6195C87.4935 96.7091 87.1905 96.7785 86.8838 96.8271C87.1625 96.688 87.4561 96.5808 87.7589 96.5077C89.2017 96.0851 90.695 95.8595 92.1983 95.837C92.5129 95.8162 92.8289 95.8301 93.1404 95.8785Z" fill="#EB996E"/>
<path id="Vector_123" d="M87.453 78.3767C87.3561 78.2647 87.2715 78.1427 87.2007 78.0126C87.0474 77.7763 86.8302 77.4281 86.562 77.0066C85.8361 75.9087 85.0525 74.85 84.2145 73.8351C83.3871 72.8127 82.4499 71.8841 81.4199 71.0661C80.9794 70.7459 80.522 70.4495 80.0498 70.1782C80.1912 70.22 80.3282 70.2756 80.4586 70.3443C80.616 70.4174 80.7686 70.5007 80.9153 70.5934C81.1142 70.7076 81.3062 70.8335 81.4902 70.9703C82.5507 71.7682 83.5086 72.6939 84.3423 73.7265C85.1863 74.7466 85.961 75.8221 86.661 76.9459C86.9293 77.3739 87.1337 77.7316 87.271 77.9807C87.3441 78.1066 87.405 78.2392 87.453 78.3767Z" fill="#263238"/>
<path id="Vector_124" d="M92.3584 89.2833C92.2892 89.1672 92.2324 89.044 92.1891 88.916L91.7739 87.8972C91.429 87.0348 90.9403 85.8467 90.375 84.5469C89.8097 83.247 89.2732 82.0812 88.8771 81.2381C88.6919 80.8421 88.5354 80.5067 88.414 80.2416C88.3477 80.1228 88.2962 79.9962 88.2607 79.8647C88.3418 79.9739 88.4124 80.0905 88.4715 80.2129C88.5961 80.4396 88.7717 80.7718 88.9825 81.187C89.4041 82.0174 89.9598 83.1767 90.5283 84.4798C91.0968 85.7829 91.5663 86.9805 91.8857 87.8524C92.0454 88.29 92.17 88.6477 92.2498 88.8936C92.3005 89.019 92.3369 89.1497 92.3584 89.2833Z" fill="#263238"/>
<path id="Vector_125" d="M97.4653 70.3028C97.4653 70.3028 97.395 70.2804 97.2737 70.2197L96.7531 69.945L94.9198 68.9326L95.0284 68.8783C94.939 69.7023 94.7889 70.6637 94.6356 71.6889C94.5749 72.1073 94.5174 72.5129 94.4695 72.9025L94.4503 73.0526L94.3386 72.9568C93.3549 72.1232 92.5053 71.3886 91.8985 70.8585L91.1959 70.2197C91.1068 70.1474 91.0255 70.066 90.9531 69.977C91.0542 70.0303 91.1476 70.0969 91.231 70.175L91.9688 70.7659C92.5915 71.2737 93.4571 71.9923 94.4408 72.8195L94.3098 72.8706C94.3545 72.4809 94.4088 72.0721 94.4727 71.6537C94.6228 70.6253 94.7921 69.664 94.8847 68.8464V68.7378L94.9773 68.7921L96.7818 69.8588L97.28 70.1782C97.3475 70.2105 97.4099 70.2525 97.4653 70.3028Z" fill="#263238"/>
<path id="Vector_126" d="M100.266 65.6011C100.286 65.7449 100.292 65.8905 100.282 66.0354C100.282 66.3548 100.282 66.7413 100.259 67.2139C100.234 68.2136 100.189 69.5901 100.129 71.1104C100.129 71.1487 100.129 71.1838 100.129 71.2222V71.4872L99.9848 71.2637L98.1644 68.3893H98.2761C98.0749 68.9418 97.9089 69.4049 97.7779 69.7594C97.7255 69.932 97.6559 70.0989 97.5703 70.2576C97.6012 70.0802 97.6482 69.9059 97.7108 69.737L98.1548 68.3477L98.1963 68.22L98.2698 68.3318L100.125 71.1838L99.9721 71.2254C99.9721 71.1902 99.9721 71.1519 99.9721 71.1168C100.033 69.5965 100.097 68.22 100.151 67.2235C100.183 66.7508 100.205 66.3548 100.228 66.045C100.226 65.8961 100.238 65.7474 100.266 65.6011Z" fill="#263238"/>
<path id="Vector_127" d="M110.288 70.0216C110.197 69.9874 110.112 69.9424 110.032 69.8874L110.071 69.8619C110.272 70.5773 110.84 72.9119 111.485 75.6842C111.881 77.3737 112.226 78.9035 112.469 80.015C112.584 80.5483 112.677 80.9923 112.75 81.3308C112.791 81.491 112.818 81.6545 112.83 81.8195C112.77 81.6659 112.722 81.5079 112.686 81.3468C112.6 81.0082 112.491 80.5707 112.367 80.0405C112.092 78.9387 111.728 77.412 111.335 75.7225C110.697 72.9503 110.166 70.6124 110.032 69.8715V69.814L110.077 69.8459C110.154 69.8963 110.224 69.9553 110.288 70.0216Z" fill="#263238"/>
<path id="Vector_128" d="M100.266 101.583C100.203 101.609 100.138 101.63 100.072 101.647L99.4999 101.8C99.0016 101.931 98.2734 102.1 97.3696 102.266C96.3076 102.461 95.2345 102.59 94.1566 102.653C92.8329 102.742 91.5032 102.654 90.2027 102.391C89.5281 102.248 88.8744 102.019 88.2577 101.711C87.9652 101.561 87.6835 101.391 87.4145 101.203C87.1664 101.008 86.9336 100.795 86.7183 100.564C85.9983 99.7557 85.3305 98.9023 84.7189 98.009C84.1888 97.2553 83.7832 96.6325 83.5053 96.1981L83.1859 95.6967C83.1474 95.6392 83.1143 95.5782 83.0869 95.5146C83.1351 95.5643 83.1779 95.6189 83.2147 95.6775C83.3009 95.8021 83.4127 95.965 83.5532 96.163C83.847 96.5846 84.2686 97.1978 84.8084 97.9387C85.43 98.8136 86.1029 99.6507 86.8237 100.446C87.0323 100.67 87.2587 100.878 87.5007 101.065C87.7627 101.25 88.0381 101.414 88.3247 101.557C88.9321 101.861 89.5762 102.084 90.241 102.222C91.5267 102.482 92.8408 102.575 94.1502 102.496C95.2205 102.438 96.2868 102.321 97.344 102.145C98.2479 101.992 98.9761 101.842 99.4775 101.733L100.056 101.608C100.124 101.59 100.195 101.582 100.266 101.583Z" fill="#263238"/>
<g id="Group_8" opacity="0.3">
<path id="Vector_129" d="M85.5039 67.626L86.3503 71.647L87.0401 71.2158L86.6441 72.1739L95.2961 87.8651L94.1719 84.2816L87.4362 71.5352L88.5029 70.6824H86.7112L85.5039 67.626Z" fill="black"/>
</g>
<path id="Vector_130" d="M103.68 83.5698C103.581 83.6944 101.53 89.3634 101.53 89.3634L103.552 88.0859C103.552 88.0859 104.395 90.5515 104.376 90.4652C104.357 90.379 105.957 84.314 105.957 84.314L103.68 83.5698Z" fill="#263238"/>
<path id="Vector_131" d="M107.433 84.3715C107.433 84.3715 108.95 90.1011 108.991 90.0373C109.033 89.9734 109.815 88.1625 109.815 88.1625L111.773 89.4049L109.71 83.5698L107.433 84.3715Z" fill="#263238"/>
<path id="Vector_132" d="M106.654 85.0226C109.379 85.0226 111.589 82.8134 111.589 80.0882C111.589 77.363 109.379 75.1538 106.654 75.1538C103.929 75.1538 101.72 77.363 101.72 80.0882C101.72 82.8134 103.929 85.0226 106.654 85.0226Z" fill="#455A64"/>
<path id="Vector_133" d="M110.515 79.9322C110.486 79.6173 110.436 79.3047 110.365 78.9964C110.142 78.1626 109.646 77.4274 108.957 76.9077C108.45 76.5259 107.857 76.2774 107.229 76.1847C106.602 76.0921 105.962 76.1584 105.367 76.3775C105.023 76.4981 104.699 76.6716 104.409 76.8917C104.102 77.1162 103.832 77.3878 103.61 77.6966C103.132 78.344 102.875 79.1276 102.875 79.9322C102.875 80.7369 103.132 81.5204 103.61 82.1679C103.831 82.4781 104.1 82.75 104.409 82.9727C104.699 83.1936 105.023 83.3682 105.367 83.4901C105.962 83.7082 106.603 83.7736 107.23 83.6805C107.857 83.5873 108.45 83.3385 108.957 82.9567C109.648 82.4399 110.144 81.7051 110.365 80.8712C110.436 80.5629 110.486 80.2503 110.515 79.9354C110.524 80.0171 110.524 80.0996 110.515 80.1813C110.516 80.2819 110.509 80.3823 110.493 80.4816C110.48 80.6185 110.455 80.7542 110.419 80.8872C110.216 81.7482 109.722 82.5129 109.021 83.0526C108.501 83.4546 107.887 83.7187 107.238 83.8204C106.589 83.922 105.924 83.8578 105.306 83.6338C104.948 83.5066 104.611 83.3268 104.306 83.1005C103.986 82.8683 103.705 82.5869 103.473 82.2669C102.973 81.5924 102.703 80.775 102.703 79.9354C102.703 79.0958 102.973 78.2785 103.473 77.6039C103.708 77.2799 103.993 76.9962 104.319 76.764C104.623 76.5352 104.96 76.3552 105.319 76.2306C105.981 75.992 106.694 75.9357 107.385 76.0677C108.119 76.2082 108.797 76.5574 109.338 77.0734C109.878 77.5895 110.258 78.2506 110.432 78.9773C110.468 79.1102 110.492 79.2459 110.506 79.3829C110.521 79.4811 110.529 79.5805 110.528 79.6799C110.533 79.7642 110.529 79.8488 110.515 79.9322Z" fill="#263238"/>
<g id="Group_9" opacity="0.2">
<path id="Vector_134" d="M107.813 75.2915L101.719 80.7657L102.105 82.0049L109.071 75.7833C108.698 75.5182 108.266 75.3493 107.813 75.2915Z" fill="white"/>
</g>
<g id="Group_10" opacity="0.2">
<path id="Vector_135" d="M109.624 76.1446C109.599 76.1254 102.502 82.7557 102.502 82.7557L102.924 83.3178C102.94 83.3338 110.062 76.5182 110.062 76.5182L109.624 76.1446Z" fill="white"/>
</g>
<path id="Vector_136" d="M107.238 78.2744V82.1325H106.344V78.9994H105.571V78.284L107.238 78.2744Z" fill="white"/>
<g id="Group_11" opacity="0.3">
<path id="Vector_137" d="M103.405 79.932C103.405 77.9104 104.836 76.2528 106.653 76.0835C106.554 76.0835 106.452 76.0835 106.334 76.0835C104.37 76.0835 102.779 77.8113 102.779 79.9448C102.779 82.0783 104.376 83.8061 106.334 83.8061C106.439 83.8061 106.542 83.8061 106.653 83.7901C104.836 83.6081 103.405 81.9505 103.405 79.932Z" fill="black"/>
</g>
<g id="Group_12" opacity="0.3">
<path id="Vector_138" d="M109.604 31.1147L110.515 63.2827L127.863 68.4087V31.1147H109.604Z" fill="white"/>
</g>
<path id="Vector_139" d="M84.5844 92.5539C84.6195 92.5826 81.9207 95.8723 78.5545 99.8996C75.1882 103.927 72.432 107.166 72.3968 107.137C72.3617 107.108 75.0604 103.818 78.4267 99.7911C81.793 95.7637 84.5492 92.5252 84.5844 92.5539Z" fill="white"/>
<path id="Vector_140" d="M86.0415 86.2873C86.0734 86.3161 83.1287 89.6791 79.4622 93.796C75.7958 97.9128 72.7936 101.228 72.7553 101.196C72.7169 101.164 75.6648 97.8042 79.3313 93.6874C82.9978 89.5706 86.0063 86.2554 86.0415 86.2873Z" fill="white"/>
<path id="Vector_141" d="M123.769 54.2248C123.804 54.2536 120.543 57.9648 116.484 62.5063C112.424 67.0479 109.109 70.7112 109.077 70.6952C109.045 70.6793 112.303 66.9393 116.362 62.3914C120.422 57.8434 123.734 54.1929 123.769 54.2248Z" fill="white"/>
<path id="Vector_142" d="M75.0698 30.9741L75.5074 36.806C75.5594 37.5701 75.8808 38.291 76.4144 38.8405C76.5479 38.9767 76.6887 39.1057 76.836 39.2269C77.4036 39.6931 78.1 39.975 78.8321 40.0349L83.0926 40.3958L78.4489 40.8557C78.1123 40.8904 77.7912 41.0151 77.5195 41.2166C77.4141 41.2965 77.3119 41.3763 77.2001 41.4626C76.3166 42.2328 75.7669 43.3161 75.6671 44.4839L75.3477 47.9364L74.9964 44.7426C74.9274 44.0506 74.6995 43.384 74.3306 42.7945C73.9616 42.2051 73.4615 41.7088 72.8693 41.3444L72.8405 41.3252C72.6034 41.1875 72.338 41.1056 72.0644 41.0857L66.9512 40.6961L71.3969 40.284C72.2737 40.2103 73.0925 39.8157 73.6965 39.1758C73.8178 39.0449 73.936 38.9043 74.0478 38.7606C74.4302 38.2501 74.6525 37.6377 74.6866 37.0008L75.0698 30.9741Z" fill="white"/>
<path id="Vector_143" d="M61.7585 45.6431L62.0396 49.4118C62.0741 49.905 62.2824 50.3701 62.6272 50.7244C62.713 50.8134 62.8037 50.8976 62.8987 50.9767C63.263 51.2739 63.7079 51.4553 64.1762 51.4973L66.9293 51.7304L63.9367 52.0275C63.7191 52.0495 63.5116 52.1301 63.3362 52.2606C63.266 52.3117 63.2021 52.3628 63.1382 52.4171C62.5679 52.9148 62.213 53.6144 62.1481 54.3685L61.9374 56.6042L61.7138 54.5474C61.6684 54.1005 61.5206 53.67 61.2819 53.2895C61.0432 52.9089 60.7199 52.5886 60.3373 52.3532H60.3181C60.1652 52.2638 59.9935 52.2113 59.8167 52.1999L56.4951 51.938L59.3695 51.673C59.9357 51.6253 60.4645 51.3706 60.8547 50.9576C60.9345 50.8713 61.0111 50.7819 61.0814 50.6893C61.3315 50.3607 61.4773 49.9646 61.4998 49.5523L61.7585 45.6431Z" fill="white"/>
<path id="Vector_144" d="M58.1558 131.346L138.994 132.017L138.924 132.087C138.924 100.922 138.924 62.462 138.908 20.8979V20.5146L138.994 20.5976H58.1558L58.2292 20.521C58.1845 86.1184 58.1558 130.688 58.1558 131.346C58.1558 130.682 58.1238 86.1121 58.0791 20.521V20.4443H58.1558H138.994H139.077V20.9042C139.077 62.4556 139.077 100.928 139.061 132.093V132.16H138.991L58.1558 131.346Z" fill="#263238"/>
<path id="Vector_145" d="M119.004 126.319H78.9825C78.03 126.319 77.2578 127.091 77.2578 128.043V134.744C77.2578 135.697 78.03 136.469 78.9825 136.469H119.004C119.956 136.469 120.729 135.697 120.729 134.744V128.043C120.729 127.091 119.956 126.319 119.004 126.319Z" fill="#3FC1C0"/>
<g id="Group_13" opacity="0.3">
<path id="Vector_146" d="M97.4206 126.319L88.7207 136.469H91.7388L100.512 126.319H97.4206Z" fill="white"/>
</g>
<path id="Vector_147" d="M90.8095 130.052V130.519H88.8613V128.002H90.7776V128.468H89.4522V129.014H90.6211V129.462H89.4522V130.046L90.8095 130.052Z" fill="white"/>
<path id="Vector_148" d="M93.5622 130.519V129.008L92.8212 130.254H92.5593L91.8215 129.04V130.519H91.2754V128.002H91.7577L92.7158 129.567L93.6452 128.002H94.0987V130.519H93.5622Z" fill="white"/>
<path id="Vector_149" d="M96.8906 128.915C96.8906 129.474 96.469 129.826 95.7951 129.826H95.2905V130.519H94.7061V128.002H95.7951C96.469 128.002 96.8906 128.35 96.8906 128.915ZM96.2998 128.915C96.2998 128.638 96.1209 128.475 95.7632 128.475H95.2905V129.35H95.7632C96.1209 129.35 96.2998 129.187 96.2998 128.915Z" fill="white"/>
<path id="Vector_150" d="M97.293 128.002H97.8742V130.043H99.1518V130.519H97.293V128.002Z" fill="white"/>
<path id="Vector_151" d="M99.2728 129.26C99.2568 128.984 99.324 128.71 99.4657 128.472C99.6074 128.235 99.8171 128.046 100.068 127.929C100.318 127.813 100.598 127.774 100.871 127.818C101.143 127.862 101.397 127.987 101.598 128.177C101.798 128.367 101.938 128.612 101.997 128.882C102.057 129.152 102.034 129.433 101.932 129.69C101.83 129.947 101.653 130.167 101.424 130.322C101.196 130.477 100.926 130.56 100.649 130.56C100.472 130.57 100.295 130.544 100.129 130.483C99.9624 130.422 99.8101 130.328 99.6812 130.206C99.5524 130.084 99.4497 129.938 99.3795 129.775C99.3093 129.612 99.273 129.437 99.2728 129.26ZM101.438 129.26C101.435 129.105 101.386 128.954 101.298 128.826C101.209 128.698 101.085 128.6 100.94 128.543C100.796 128.485 100.638 128.472 100.486 128.504C100.334 128.536 100.195 128.613 100.086 128.724C99.9774 128.835 99.9038 128.975 99.8747 129.128C99.8455 129.28 99.862 129.438 99.9222 129.581C99.9823 129.725 100.083 129.847 100.213 129.933C100.342 130.019 100.494 130.065 100.649 130.065C100.756 130.069 100.862 130.051 100.961 130.012C101.06 129.973 101.15 129.913 101.224 129.838C101.299 129.762 101.357 129.671 101.395 129.572C101.433 129.472 101.45 129.366 101.445 129.26H101.438Z" fill="white"/>
<path id="Vector_152" d="M103.565 129.628V130.519H102.981V129.618L102.007 128.002H102.626L103.297 129.12L103.971 128.002H104.543L103.565 129.628Z" fill="white"/>
<path id="Vector_153" d="M106.711 130.052V130.519H104.76V128.002H106.676V128.468H105.341V129.014H106.51V129.462H105.341V130.046L106.711 130.052Z" fill="white"/>
<path id="Vector_154" d="M109.109 130.052V130.519H107.161V128.002H109.061V128.468H107.739V129.014H108.908V129.462H107.739V130.046L109.109 130.052Z" fill="white"/>
<g id="Group_14" opacity="0.3">
<path id="Vector_155" d="M119.41 127.72C119.411 127.838 119.377 127.952 119.312 128.05C119.247 128.148 119.155 128.224 119.047 128.269C118.939 128.314 118.82 128.326 118.705 128.303C118.59 128.281 118.484 128.224 118.402 128.141C118.319 128.059 118.262 127.953 118.24 127.838C118.217 127.723 118.229 127.604 118.274 127.496C118.319 127.388 118.395 127.296 118.493 127.231C118.591 127.166 118.705 127.132 118.823 127.133C118.978 127.133 119.128 127.195 119.238 127.305C119.348 127.415 119.41 127.565 119.41 127.72Z" fill="black"/>
</g>
<g id="Group_15" opacity="0.3">
<path id="Vector_156" d="M119.41 134.817C119.411 134.934 119.377 135.049 119.312 135.147C119.247 135.244 119.155 135.321 119.047 135.366C118.939 135.411 118.82 135.423 118.705 135.4C118.59 135.377 118.484 135.321 118.402 135.238C118.319 135.155 118.262 135.05 118.24 134.935C118.217 134.82 118.229 134.701 118.274 134.593C118.319 134.485 118.395 134.392 118.493 134.328C118.591 134.263 118.705 134.229 118.823 134.23C118.978 134.23 119.128 134.291 119.238 134.402C119.348 134.512 119.41 134.661 119.41 134.817Z" fill="black"/>
</g>
<g id="Group_16" opacity="0.3">
<path id="Vector_157" d="M79.2378 127.865C79.2378 127.981 79.2034 128.094 79.1388 128.191C79.0742 128.288 78.9824 128.363 78.875 128.407C78.7677 128.452 78.6495 128.464 78.5355 128.441C78.4215 128.418 78.3168 128.362 78.2346 128.28C78.1524 128.198 78.0965 128.093 78.0738 127.979C78.0511 127.865 78.0628 127.747 78.1072 127.64C78.1517 127.532 78.227 127.44 78.3237 127.376C78.4203 127.311 78.5339 127.277 78.6502 127.277C78.806 127.277 78.9555 127.339 79.0657 127.449C79.1759 127.559 79.2378 127.709 79.2378 127.865Z" fill="black"/>
</g>
<g id="Group_17" opacity="0.3">
<path id="Vector_158" d="M79.4429 134.817C79.4429 134.933 79.4084 135.047 79.3439 135.144C79.2793 135.24 79.1875 135.316 79.0801 135.36C78.9727 135.405 78.8546 135.416 78.7406 135.394C78.6266 135.371 78.5219 135.315 78.4397 135.233C78.3575 135.151 78.3015 135.046 78.2789 134.932C78.2562 134.818 78.2678 134.7 78.3123 134.592C78.3568 134.485 78.4321 134.393 78.5288 134.329C78.6254 134.264 78.739 134.229 78.8552 134.229C79.0111 134.229 79.1606 134.291 79.2708 134.402C79.381 134.512 79.4429 134.661 79.4429 134.817Z" fill="black"/>
</g>
<g id="Group_18" opacity="0.3">
<path id="Vector_159" d="M94.4187 126.319L85.5112 136.469H84.2656L93.0518 126.319H94.4187Z" fill="white"/>
</g>
<path id="Vector_160" d="M82.8636 133.294C82.8431 132.974 82.9191 132.656 83.0817 132.381C83.2442 132.105 83.4859 131.884 83.7753 131.748C84.0647 131.611 84.3885 131.564 84.7047 131.614C85.0208 131.664 85.3148 131.807 85.5485 132.026C85.7822 132.244 85.9447 132.528 86.0151 132.841C86.0854 133.153 86.0604 133.479 85.9431 133.777C85.8258 134.075 85.6218 134.33 85.3574 134.511C85.093 134.691 84.7806 134.788 84.4605 134.789C84.2558 134.803 84.0504 134.774 83.8571 134.705C83.6638 134.637 83.4867 134.529 83.3369 134.389C83.1871 134.248 83.0678 134.079 82.9863 133.89C82.9049 133.702 82.8631 133.499 82.8636 133.294ZM85.3484 133.294C85.3446 133.116 85.2884 132.943 85.1868 132.797C85.0853 132.651 84.9428 132.538 84.7774 132.473C84.6119 132.407 84.4308 132.392 84.2568 132.429C84.0827 132.466 83.9235 132.553 83.799 132.681C83.6745 132.808 83.5903 132.969 83.5569 133.144C83.5236 133.318 83.5426 133.499 83.6115 133.663C83.6804 133.827 83.7963 133.967 83.9445 134.066C84.0926 134.164 84.2666 134.217 84.4446 134.217C84.5656 134.22 84.686 134.197 84.7982 134.152C84.9103 134.106 85.0119 134.038 85.0966 133.951C85.1814 133.865 85.2474 133.762 85.2908 133.649C85.3341 133.536 85.3537 133.415 85.3484 133.294Z" fill="white"/>
<path id="Vector_161" d="M87.1939 132.377V133.141H88.5321V133.677H87.1939V134.731H86.5264V131.841H88.7109V132.377H87.1939Z" fill="white"/>
<path id="Vector_162" d="M90.9301 132.387H90.0039V131.841H92.5206V132.387H91.5976V134.731H90.9301V132.387Z" fill="white"/>
<path id="Vector_163" d="M95.5295 131.841V134.731H94.862V133.546H93.5493V134.731H92.8818V131.841H93.5493V132.975H94.862V131.834L95.5295 131.841Z" fill="white"/>
<path id="Vector_164" d="M98.4525 134.195V134.731H96.2168V131.841H98.3982V132.377H96.8811V133.016H98.2225V133.537H96.8811V134.204L98.4525 134.195Z" fill="white"/>
<path id="Vector_165" d="M102.78 134.731V132.997L101.93 134.425H101.627L100.78 133.035V134.731H100.142V131.841H100.694L101.777 133.639L102.84 131.841H103.39V134.731H102.78Z" fill="white"/>
<path id="Vector_166" d="M103.91 133.294C103.89 132.974 103.966 132.655 104.13 132.379C104.293 132.103 104.535 131.882 104.826 131.746C105.116 131.61 105.441 131.564 105.757 131.615C106.074 131.666 106.368 131.811 106.601 132.031C106.834 132.252 106.996 132.537 107.064 132.85C107.133 133.164 107.105 133.49 106.986 133.788C106.866 134.085 106.659 134.34 106.393 134.518C106.126 134.697 105.812 134.791 105.491 134.788C105.288 134.8 105.084 134.77 104.893 134.7C104.701 134.631 104.526 134.522 104.378 134.382C104.23 134.242 104.112 134.074 104.032 133.886C103.951 133.699 103.91 133.498 103.91 133.294ZM106.395 133.294C106.392 133.116 106.335 132.943 106.234 132.797C106.132 132.651 105.99 132.538 105.824 132.473C105.659 132.407 105.478 132.392 105.304 132.429C105.13 132.466 104.97 132.553 104.846 132.681C104.721 132.808 104.637 132.969 104.604 133.144C104.57 133.318 104.589 133.499 104.658 133.663C104.727 133.827 104.843 133.967 104.991 134.066C105.14 134.164 105.313 134.217 105.491 134.217C105.613 134.22 105.733 134.198 105.846 134.153C105.958 134.107 106.06 134.039 106.145 133.952C106.229 133.866 106.295 133.763 106.339 133.649C106.382 133.536 106.401 133.415 106.395 133.294Z" fill="white"/>
<path id="Vector_167" d="M110.224 131.841V134.731H109.675L108.234 132.974V134.728H107.573V131.837H108.129L109.563 133.594V131.837L110.224 131.841Z" fill="white"/>
<path id="Vector_168" d="M111.508 132.387H110.582V131.841H113.099V132.387H112.176V134.731H111.508V132.387Z" fill="white"/>
<path id="Vector_169" d="M116.108 131.841V134.731H115.44V133.546H114.127V134.731H113.46V131.841H114.127V132.975H115.44V131.834L116.108 131.841Z" fill="white"/>
<path id="Vector_170" d="M114.048 125.208L114.179 126.939C114.194 127.164 114.289 127.377 114.447 127.539C114.635 127.74 114.889 127.866 115.162 127.894L116.44 128.002L115.067 128.139C114.967 128.148 114.872 128.185 114.792 128.245L114.699 128.318C114.438 128.546 114.275 128.867 114.246 129.213L114.15 130.238L114.045 129.28C114.023 129.074 113.954 128.876 113.843 128.702C113.732 128.527 113.583 128.381 113.406 128.274C113.335 128.233 113.257 128.209 113.176 128.203L111.652 128.082L112.968 127.961C113.227 127.94 113.47 127.827 113.652 127.641L113.754 127.517C113.869 127.366 113.936 127.185 113.945 126.996L114.048 125.208Z" fill="white"/>
</g>
<g id="Confetti">
<path id="Vector_171" d="M131.917 3.15249C131.917 3.15249 129.518 4.80368 130.786 6.93395L128.892 7.10961C128.892 7.10961 128.036 3.08222 130.92 2.46582L131.917 3.15249Z" fill="#FF725E"/>
<path id="Vector_172" d="M109.073 146.286C109.073 146.286 106.166 146.423 106.115 148.899L104.416 148.049C104.416 148.049 105.815 144.175 108.59 145.175L109.073 146.286Z" fill="#FF725E"/>
<path id="Vector_173" d="M165.609 55.4415C165.609 55.4415 162.699 55.5789 162.651 58.0573L160.952 57.2077C160.952 57.2077 162.351 53.3336 165.126 54.3333L165.609 55.4415Z" fill="#FF725E"/>
<path id="Vector_174" d="M36.0812 13.9985C36.0812 13.9985 38.7034 15.276 39.9138 13.1074L41.0029 14.6628C41.0029 14.6628 37.94 17.4031 35.9727 15.2057L36.0812 13.9985Z" fill="#FF725E"/>
<path id="Vector_175" d="M37.4482 70.7333C37.4482 70.7333 40.3227 70.3181 40.1406 67.8589L41.9132 68.5392C41.9132 68.5392 40.8912 72.5314 38.0359 71.8032L37.4482 70.7333Z" fill="#FF725E"/>
<path id="Vector_176" d="M85.5015 7.10965C85.5015 7.25747 85.4577 7.40196 85.3756 7.52486C85.2935 7.64776 85.1767 7.74355 85.0402 7.80011C84.9036 7.85668 84.7534 7.87148 84.6084 7.84264C84.4634 7.81381 84.3302 7.74263 84.2257 7.63811C84.1212 7.53359 84.05 7.40043 84.0212 7.25546C83.9924 7.11048 84.0072 6.96022 84.0637 6.82366C84.1203 6.6871 84.2161 6.57038 84.339 6.48826C84.4619 6.40614 84.6064 6.3623 84.7542 6.3623C84.9521 6.36315 85.1417 6.44215 85.2817 6.58213C85.4217 6.7221 85.5007 6.9117 85.5015 7.10965Z" fill="#FF725E"/>
<path id="Vector_177" d="M57.5269 144.232C57.5269 144.38 57.4831 144.525 57.401 144.647C57.3189 144.77 57.2021 144.866 57.0656 144.923C56.929 144.979 56.7787 144.994 56.6338 144.965C56.4888 144.936 56.3556 144.865 56.2511 144.761C56.1466 144.656 56.0754 144.523 56.0466 144.378C56.0178 144.233 56.0325 144.083 56.0891 143.946C56.1457 143.81 56.2415 143.693 56.3644 143.611C56.4873 143.529 56.6318 143.485 56.7796 143.485C56.9775 143.486 57.1671 143.565 57.3071 143.705C57.4471 143.845 57.5261 144.034 57.5269 144.232Z" fill="#FF725E"/>
<path id="Vector_178" d="M33.1236 56.6902C33.1236 56.838 33.0798 56.9825 32.9977 57.1054C32.9155 57.2283 32.7988 57.3241 32.6623 57.3807C32.5257 57.4372 32.3754 57.452 32.2305 57.4232C32.0855 57.3944 31.9523 57.3232 31.8478 57.2187C31.7433 57.1142 31.6721 56.981 31.6433 56.836C31.6144 56.691 31.6292 56.5408 31.6858 56.4042C31.7424 56.2677 31.8381 56.1509 31.9611 56.0688C32.084 55.9867 32.2284 55.9429 32.3763 55.9429C32.5742 55.9437 32.7638 56.0227 32.9038 56.1627C33.0438 56.3027 33.1228 56.4923 33.1236 56.6902Z" fill="#FF725E"/>
<path id="Vector_179" d="M153.268 139.493C153.681 139.493 154.015 139.158 154.015 138.745C154.015 138.333 153.681 137.998 153.268 137.998C152.855 137.998 152.521 138.333 152.521 138.745C152.521 139.158 152.855 139.493 153.268 139.493Z" fill="#FF725E"/>
<path id="Vector_180" d="M158.458 13.1077C158.459 13.2564 158.415 13.402 158.333 13.5259C158.251 13.6498 158.134 13.7465 157.996 13.8037C157.859 13.8609 157.708 13.876 157.562 13.8472C157.416 13.8183 157.282 13.7468 157.177 13.6416C157.072 13.5365 157 13.4024 156.971 13.2565C156.942 13.1106 156.958 12.9595 157.015 12.8222C157.072 12.6849 157.169 12.5677 157.293 12.4855C157.417 12.4033 157.562 12.3597 157.711 12.3604C157.909 12.3604 158.099 12.4391 158.239 12.5793C158.379 12.7194 158.458 12.9095 158.458 13.1077Z" fill="#FF725E"/>
<path id="Vector_181" d="M162.866 74.2784C162.865 74.4261 162.821 74.5702 162.738 74.6927C162.656 74.8152 162.539 74.9105 162.402 74.9666C162.266 75.0226 162.115 75.037 161.971 75.0078C161.826 74.9786 161.693 74.9072 161.589 74.8025C161.485 74.6979 161.414 74.5647 161.385 74.4198C161.357 74.2749 161.372 74.1248 161.428 73.9885C161.485 73.8521 161.581 73.7355 161.704 73.6536C161.826 73.5716 161.971 73.5278 162.118 73.5278C162.217 73.5278 162.314 73.5473 162.405 73.585C162.496 73.6228 162.579 73.6781 162.648 73.7479C162.717 73.8176 162.772 73.9004 162.81 73.9914C162.847 74.0824 162.866 74.18 162.866 74.2784Z" fill="#FF725E"/>
</g>
</g>
</g>
</svg>
