<svg width="12" height="12" viewBox="0 0 12 12" fill="none" xmlns="http://www.w3.org/2000/svg">
<g id="help">
<path id="Vector" d="M5.29999 8C5.29999 7.325 5.36041 6.83958 5.48124 6.54375C5.60208 6.24792 5.85833 5.925 6.24999 5.575C6.59166 5.275 6.85208 5.01458 7.03124 4.79375C7.21041 4.57292 7.29999 4.32083 7.29999 4.0375C7.29999 3.69583 7.18541 3.4125 6.95624 3.1875C6.72708 2.9625 6.40833 2.85 5.99999 2.85C5.57499 2.85 5.25208 2.97917 5.03124 3.2375C4.81041 3.49583 4.65416 3.75833 4.56249 4.025L3.27499 3.475C3.44999 2.94167 3.77083 2.47917 4.23749 2.0875C4.70416 1.69583 5.29166 1.5 5.99999 1.5C6.87499 1.5 7.54791 1.74375 8.01874 2.23125C8.48958 2.71875 8.72499 3.30417 8.72499 3.9875C8.72499 4.40417 8.63541 4.76042 8.45624 5.05625C8.27708 5.35208 7.99583 5.6875 7.61249 6.0625C7.20416 6.45417 6.95624 6.75208 6.86874 6.95625C6.78124 7.16042 6.73749 7.50833 6.73749 8H5.29999ZM5.99999 11C5.72499 11 5.48958 10.9021 5.29374 10.7063C5.09791 10.5104 4.99999 10.275 4.99999 10C4.99999 9.725 5.09791 9.48958 5.29374 9.29375C5.48958 9.09792 5.72499 9 5.99999 9C6.27499 9 6.51041 9.09792 6.70624 9.29375C6.90208 9.48958 6.99999 9.725 6.99999 10C6.99999 10.275 6.90208 10.5104 6.70624 10.7063C6.51041 10.9021 6.27499 11 5.99999 11Z" fill="white"/>
</g>
</svg>
