<svg width="14" height="13" viewBox="0 0 14 13" fill="none" xmlns="http://www.w3.org/2000/svg">
<g id="lock (1) 1">
<path id="Vector" d="M11.0833 5.95703H2.91667C2.27233 5.95703 1.75 6.44206 1.75 7.04036V10.832C1.75 11.4303 2.27233 11.9154 2.91667 11.9154H11.0833C11.7277 11.9154 12.25 11.4303 12.25 10.832V7.04036C12.25 6.44206 11.7277 5.95703 11.0833 5.95703Z" stroke="white" stroke-linecap="round" stroke-linejoin="round"/>
<path id="Vector_2" d="M4.0835 5.95703V3.79036C4.0835 3.07207 4.39079 2.38319 4.93777 1.87528C5.48475 1.36737 6.22661 1.08203 7.00016 1.08203C7.77371 1.08203 8.51558 1.36737 9.06256 1.87528C9.60954 2.38319 9.91683 3.07207 9.91683 3.79036V5.95703" stroke="white" stroke-linecap="round" stroke-linejoin="round"/>
<path id="Vector_3" d="M7 9H7.01" stroke="white" stroke-width="2" stroke-linecap="round" stroke-linejoin="round"/>
</g>
</svg>
