<svg width="40" height="21" viewBox="0 0 40 21" fill="none" xmlns="http://www.w3.org/2000/svg">
<g id="logo-70" clip-path="url(#clip0_6591_15600)">
<path id="Vector" d="M9.49472 0.25C7.93262 0.25 6.43451 1.0567 5.32995 2.49264L1.72511 7.17893C0.620539 8.61487 0 10.5624 0 12.5931C0 16.8219 2.637 20.25 5.8899 20.25C7.452 20.25 8.9501 19.4433 10.0547 18.0073L12.5482 14.7658C12.5482 14.7657 12.5482 14.7659 12.5482 14.7658L19.8133 5.32107C20.3409 4.63527 21.0564 4.25 21.8024 4.25C23.0514 4.25 24.1104 5.30827 24.4775 6.77271L26.7704 3.79197C25.7244 1.66223 23.8903 0.25 21.8024 0.25C20.2403 0.25 18.7422 1.0567 17.6376 2.49264L7.87897 15.1789C7.35144 15.8647 6.63595 16.25 5.8899 16.25C4.33633 16.25 3.07692 14.6128 3.07692 12.5931C3.07692 11.6233 3.37329 10.6931 3.90082 10.0073L7.50564 5.32107C8.03318 4.63527 8.74867 4.25 9.49472 4.25C10.7438 4.25 11.8027 5.30832 12.1698 6.77281L14.4627 3.79205C13.4167 1.66227 11.5826 0.25 9.49472 0.25Z" fill="#036666"/>
<path id="Vector_2" d="M20.1867 15.1789C19.6591 15.8647 18.9437 16.25 18.1976 16.25C16.9487 16.25 15.8899 15.192 15.5227 13.7278L13.2299 16.7085C14.2759 18.8379 16.1099 20.25 18.1976 20.25C19.7597 20.25 21.2578 19.4433 22.3624 18.0073L32.121 5.32107C32.6486 4.63527 33.3641 4.25 34.1101 4.25C35.6637 4.25 36.9231 5.88723 36.9231 7.90687C36.9231 8.87673 36.6267 9.80687 36.0992 10.4927L32.4944 15.1789C31.9668 15.8647 31.2513 16.25 30.5053 16.25C29.2563 16.25 28.1974 15.1918 27.8303 13.7275L25.5374 16.7082C26.5834 18.8379 28.4175 20.25 30.5053 20.25C32.0674 20.25 33.5655 19.4433 34.6701 18.0073L38.2749 13.3211C39.3794 11.8851 40 9.9376 40 7.90687C40 3.67809 37.363 0.25 34.1101 0.25C32.548 0.25 31.0499 1.0567 29.9453 2.49264L20.1867 15.1789Z" fill="#036666"/>
</g>
<defs>
<clipPath id="clip0_6591_15600">
<rect width="40" height="20" fill="white" transform="translate(0 0.25)"/>
</clipPath>
</defs>
</svg>
