<svg width="80" height="40" viewBox="0 0 80 40" fill="none" xmlns="http://www.w3.org/2000/svg">
<g id="logo-70" clip-path="url(#clip0_2296_18584)">
<path id="Vector" d="M18.9894 0C15.8652 0 12.869 1.6134 10.6599 4.48528L3.45022 13.8579C1.24108 16.7297 0 20.6248 0 24.6863C0 33.1439 5.27399 40 11.7798 40C14.904 40 17.9002 38.3865 20.1093 35.5147L25.0963 29.0316C25.0963 29.0315 25.0964 29.0317 25.0963 29.0316L39.6267 10.1421C40.6817 8.77055 42.1127 8 43.6048 8C46.1029 8 48.2207 10.1165 48.955 13.0454L53.5407 7.08395C51.4487 2.82445 47.7805 0 43.6048 0C40.4806 0 37.4844 1.6134 35.2753 4.48528L15.7579 29.8579C14.7029 31.2295 13.2719 32 11.7798 32C8.67266 32 6.15385 28.7256 6.15385 24.6863C6.15385 22.7465 6.74657 20.8863 7.80164 19.5147L15.0113 10.1421C16.0664 8.77055 17.4973 8 18.9894 8C21.4876 8 23.6053 10.1166 24.3396 13.0456L28.9254 7.08409C26.8334 2.82453 23.1652 0 18.9894 0Z" fill="#036666"/>
<path id="Vector_2" d="M40.3726 29.8579C39.3175 31.2295 37.8866 32 36.3945 32C33.8967 32 31.7791 29.884 31.0446 26.9556L26.459 32.9169C28.5511 37.1759 32.2191 40 36.3945 40C39.5187 40 42.5149 38.3865 44.724 35.5147L64.2413 10.1421C65.2964 8.77055 66.7274 8 68.2195 8C71.3267 8 73.8454 11.2745 73.8454 15.3137C73.8454 17.2535 73.2527 19.1137 72.1977 20.4853L64.988 29.8579C63.9329 31.2295 62.502 32 61.0099 32C58.5119 32 56.3942 29.8836 55.6598 26.9549L51.0742 32.9164C53.1662 37.1757 56.8343 40 61.0099 40C64.1341 40 67.1303 38.3865 69.3394 35.5147L76.549 26.1421C78.7582 23.2703 79.9993 19.3752 79.9993 15.3137C79.9993 6.85619 74.7253 0 68.2195 0C65.0953 0 62.0991 1.6134 59.89 4.48528L40.3726 29.8579Z" fill="#036666"/>
</g>
<defs>
<clipPath id="clip0_2296_18584">
<rect width="80" height="40" fill="white"/>
</clipPath>
</defs>
</svg>
