<svg width="11" height="11" viewBox="0 0 11 11" fill="none" xmlns="http://www.w3.org/2000/svg">
<path id="Vector" d="M5.92706 0.276883L7.27563 3.1159C7.3063 3.18796 7.35455 3.25037 7.41556 3.29693C7.47657 3.34348 7.54822 3.37255 7.62337 3.38123L10.6004 3.84113C10.6866 3.85268 10.7679 3.88957 10.8347 3.94749C10.9015 4.0054 10.9512 4.08195 10.9779 4.1682C11.0046 4.25445 11.0072 4.34683 10.9854 4.43456C10.9636 4.52229 10.9183 4.60175 10.8548 4.66365L8.70901 6.88356C8.65424 6.93692 8.61314 7.0037 8.58944 7.07785C8.56573 7.15199 8.56019 7.23114 8.5733 7.30809L9.09067 10.4301C9.10565 10.5198 9.09618 10.6121 9.06334 10.6965C9.03051 10.7809 8.97561 10.8539 8.90492 10.9074C8.83422 10.9608 8.75055 10.9925 8.66344 10.9988C8.57632 11.0051 8.48926 10.9858 8.41215 10.9431L5.73199 9.46609C5.66336 9.43096 5.58792 9.41269 5.51147 9.41269C5.43502 9.41269 5.35958 9.43096 5.29095 9.46609L2.61079 10.9431C2.53368 10.9858 2.44661 11.0051 2.3595 10.9988C2.27239 10.9925 2.18872 10.9608 2.11802 10.9074C2.04732 10.8539 1.99243 10.7809 1.95959 10.6965C1.92675 10.6121 1.91728 10.5198 1.93226 10.4301L2.44964 7.27271C2.46275 7.19576 2.4572 7.11661 2.4335 7.04247C2.4098 6.96833 2.3687 6.90154 2.31393 6.84819L0.142661 4.66365C0.0784241 4.60005 0.0332492 4.5184 0.0126087 4.42858C-0.00803177 4.33876 -0.00325222 4.24462 0.0263683 4.15758C0.0559889 4.07053 0.109179 3.99431 0.179497 3.93814C0.249815 3.88198 0.334242 3.84828 0.422552 3.84113L3.39957 3.38123C3.47471 3.37255 3.54636 3.34348 3.60738 3.29693C3.66839 3.25037 3.71664 3.18796 3.74731 3.1159L5.09587 0.276883C5.1326 0.194196 5.19124 0.124191 5.26488 0.07513C5.33852 0.026069 5.42408 0 5.51147 0C5.59886 0 5.68442 0.026069 5.75806 0.07513C5.8317 0.124191 5.89034 0.194196 5.92706 0.276883Z" fill="#FFC200"/>
</svg>
