<svg width="43" height="34" viewBox="0 0 43 34" fill="none" xmlns="http://www.w3.org/2000/svg">
<g id="Vector">
<path d="M40.7573 2.76052C41.0077 2.24381 41.0927 2.18133 41.5685 2.1651C41.8609 2.15513 42.1178 2.16492 42.1397 2.18686C42.1616 2.20881 41.7503 2.65094 41.2258 3.16957C40.2129 4.17057 40.115 4.08523 40.7573 2.76052Z" fill="#31A991"/>
<path d="M41.3415 3.79611C41.7232 3.41485 42.1055 2.97119 42.1911 2.81022C42.2768 2.64912 42.2822 2.75851 42.2033 3.05335C42.1243 3.34795 41.9588 3.61265 41.8357 3.64154C41.7066 3.67176 41.6998 3.71493 41.8195 3.74342C42.2096 3.83642 41.8235 4.24985 41.2349 4.36949L40.6474 4.48902L41.3415 3.79611Z" fill="#31A991"/>
<path d="M40.2989 2.36176C40.3415 2.30324 40.4404 2.20958 40.5187 2.15332C40.5971 2.09719 40.5214 2.34408 40.3505 2.70237C40.1798 3.06053 39.9996 3.61983 39.9502 3.94531C39.8413 4.66319 39.1034 5.51165 39.0545 4.97516C39.0148 4.53988 39.5108 2.75351 39.7734 2.38585C39.8955 2.21491 40.0265 2.17405 40.0994 2.28406C40.1665 2.38525 40.2563 2.42017 40.2989 2.36176Z" fill="#31A991"/>
<path d="M37.9538 4.08334C38.1504 2.59518 38.3653 2.18693 38.9667 2.1581C39.4215 2.13632 39.4243 2.15015 39.1366 3.02026C38.9756 3.50667 38.8006 4.26308 38.7475 4.70112C38.675 5.29941 38.519 5.62922 38.1205 6.02623L37.59 6.55476L37.695 5.90062C37.7525 5.5409 37.8691 4.72307 37.9538 4.08334Z" fill="#31A991"/>
<path d="M39.4259 5.45854C39.7198 5.1657 40.1819 4.96176 40.8133 4.84623L41.76 4.67318L41.4264 5.41755C41.1024 6.14016 41.0769 6.16262 40.5501 6.19209C40.2517 6.20878 39.7774 6.14927 39.4963 6.06003L38.9852 5.89756L39.4259 5.45854Z" fill="#31A991"/>
<path d="M36.4584 3.01042C36.5826 2.6803 36.7608 2.53676 37.2714 2.35591C37.631 2.22849 37.9451 2.14417 37.9693 2.16844C37.9934 2.19271 37.94 2.44233 37.8501 2.72308C37.7604 3.00395 37.6164 3.85794 37.53 4.62101C37.366 6.07154 36.9905 7.0582 36.5238 7.26495C36.2949 7.36644 36.2467 7.24766 36.2372 6.56076C36.231 6.10634 36.3147 5.71375 36.4232 5.68826C36.5317 5.66289 36.528 5.62019 36.4149 5.59318C36.1831 5.53805 36.2147 3.65817 36.4584 3.01042Z" fill="#31A991"/>
<path d="M39.3951 6.43045C39.5617 6.51727 39.9053 6.57824 40.1585 6.56611C40.7271 6.53893 40.887 6.68054 40.6251 6.97956C39.8625 7.84988 39.8559 7.85256 38.8522 7.6511C37.4521 7.37034 37.2855 7.15334 38.0364 6.58754C38.4831 6.25094 38.6769 6.19686 38.8222 6.36794C38.9284 6.49294 39.0324 6.52263 39.0535 6.43396C39.0746 6.3453 39.2283 6.34363 39.3951 6.43045Z" fill="#31A991"/>
<path d="M34.9909 6.46737C34.8203 4.48483 34.9837 3.66722 35.6333 3.25332L36.0879 2.96383L36.0201 3.52261C35.9619 4.00114 35.8982 4.08801 35.577 4.12643C35.2472 4.16581 35.2434 4.17645 35.5457 4.21446C35.8315 4.25049 35.8871 4.37172 35.874 4.92889C35.8655 5.29788 35.7927 5.60901 35.7123 5.61999C35.6318 5.63109 35.6266 5.64944 35.7007 5.66083C35.8726 5.68722 35.9795 6.58157 35.8946 7.28162C35.8495 7.65312 35.721 7.87054 35.4818 7.98008C35.1608 8.12703 35.1238 8.01293 34.9909 6.46737Z" fill="#31A991"/>
<path d="M38.5385 8.18849C38.5387 8.11092 38.7962 8.03921 39.1109 8.02929L39.6832 8.01092L39.3167 8.45668C38.8872 8.97905 38.3181 8.98446 37.4204 8.47487C36.5121 7.95903 36.4027 7.78937 36.8038 7.51826C37.0686 7.33915 37.2888 7.36673 37.6988 7.63068C37.9979 7.8231 38.3091 8.05897 38.3904 8.15505C38.4717 8.25088 38.5383 8.26593 38.5385 8.18849Z" fill="#31A991"/>
<path d="M33.8116 5.6504C33.6986 5.57763 33.7749 5.31497 34.0035 4.99105C34.2123 4.69511 34.4201 4.48983 34.4649 4.53481C34.6311 4.70165 34.5032 5.72011 34.3147 5.7288C34.2075 5.73374 34.2277 5.76718 34.3598 5.80304C34.5039 5.84222 34.6512 6.37839 34.7279 7.1436C34.8335 8.19591 34.7922 8.46782 34.4924 8.69861C34.2924 8.8524 34.0898 8.97902 34.0421 8.9799C33.8491 8.98333 33.7732 6.95411 33.9648 6.90932C34.0885 6.88032 34.0748 6.83808 33.9302 6.80355C33.6511 6.73719 33.5579 5.87505 33.8229 5.81303C33.9201 5.79021 33.915 5.71716 33.8116 5.6504Z" fill="#31A991"/>
<path d="M36.5267 8.31425C36.7054 8.48991 37.1757 8.75043 37.572 8.89299C38.5003 9.22693 38.5325 9.25844 38.1637 9.47345C37.9936 9.57247 37.8028 9.6016 37.7395 9.53798C37.6762 9.47448 37.7274 9.39835 37.8531 9.36886C37.9959 9.33548 37.9947 9.29474 37.85 9.26033C37.7225 9.22999 37.5995 9.2842 37.5764 9.38094C37.5191 9.62223 36.4022 9.24449 36.2663 8.93787C36.206 8.80158 36.1379 8.76805 36.1153 8.86332C36.0809 9.0075 35.3957 8.74413 35.398 8.58752C35.3983 8.55962 35.5793 8.41474 35.8003 8.26564C36.1159 8.05261 36.2716 8.06306 36.5267 8.31425Z" fill="#31A991"/>
<path d="M35.6682 9.20199C35.9828 9.35871 36.4565 9.54632 36.7207 9.61888C37.5552 9.84779 37.5583 9.96538 36.7362 10.2253C36.4071 10.3294 35.8429 10.257 35.21 10.0294C34.6577 9.8308 34.1799 9.64245 34.1482 9.61058C34.0567 9.51877 34.6221 9.01147 34.8709 8.9619C34.9948 8.93717 35.3536 9.04528 35.6682 9.20199Z" fill="#31A991"/>
<path d="M32.8288 7.16876C32.6054 7.1156 32.6334 6.97507 32.9792 6.4145C33.1206 6.18548 33.2594 6.02155 33.2878 6.05011C33.4239 6.18667 33.4883 8.06807 33.3594 8.13769C33.2785 8.18134 33.2942 8.23679 33.3944 8.2606C33.4945 8.2844 33.5998 8.52857 33.6281 8.80342C33.6686 9.19515 33.5889 9.35687 33.2583 9.55384L32.8369 9.80508L32.7897 8.82386C32.7636 8.28424 32.7986 7.81411 32.8674 7.779C32.9363 7.74389 32.9104 7.66003 32.8094 7.59255C32.7086 7.52519 32.7143 7.41227 32.822 7.34187C32.9298 7.27136 32.9328 7.19343 32.8288 7.16876Z" fill="#31A991"/>
<path d="M33.294 10.0712C33.5535 9.92194 33.9569 9.95623 34.5675 10.1798C35.0593 10.3599 35.4645 10.535 35.4681 10.569C35.472 10.603 35.216 10.7006 34.8994 10.7856C34.5379 10.8827 34.0615 10.8193 33.6189 10.6151L32.9141 10.2897L33.294 10.0712Z" fill="#31A991"/>
<path d="M25.9059 2.14902C25.7964 2.12299 25.6599 1.78688 25.6027 1.4021L25.4985 0.702541L25.9068 1.24594C26.5359 2.08365 26.5721 2.21121 26.2359 2.40719C26.0669 2.50573 25.9963 2.60238 26.079 2.62211C26.1618 2.64172 26.1545 2.8573 26.0628 3.10109L25.8962 3.54406L25.8034 2.91646C25.7523 2.57121 25.7991 2.26786 25.9077 2.2425C26.016 2.21713 26.0152 2.17516 25.9059 2.14902Z" fill="#31A991"/>
<path d="M32.2558 10.31C31.8314 10.8782 31.5863 9.12146 31.9786 8.32276L32.2907 7.68725L32.3737 8.39569C32.4193 8.78523 32.3785 9.15172 32.2828 9.21014C32.1873 9.26845 32.1902 9.33562 32.2894 9.35918C32.4956 9.40827 32.4741 10.0175 32.2558 10.31Z" fill="#31A991"/>
<path d="M24.762 2.29869C24.3783 2.06232 24.3665 1.73941 24.7214 1.18999C24.8931 0.924196 25.0697 0.74284 25.1138 0.787092C25.254 0.927817 25.5316 3.45955 25.4067 3.45944C25.2072 3.45906 24.688 2.54167 24.8639 2.50052C24.9538 2.4794 24.908 2.38865 24.762 2.29869Z" fill="#31A991"/>
<path d="M25.8456 5.16292C25.8465 4.69602 26.491 2.72726 26.7228 2.48336C26.734 2.47152 26.894 2.72386 27.0785 3.04367C27.5368 3.83811 27.4477 4.20243 26.5843 5.06252L25.8443 5.79975L25.8456 5.16292Z" fill="#31A991"/>
<path d="M25.9579 6.66573C25.8149 6.51802 25.9687 6.29062 26.7147 5.54544L27.651 4.61049L27.8291 5.16582C28.0751 5.9333 28.0236 6.06351 27.1175 6.96622C26.177 7.90312 25.7634 8.06996 25.7145 7.53201C25.6966 7.33633 25.7844 7.10305 25.9097 7.01373C26.0349 6.9244 26.0565 6.76783 25.9579 6.66573Z" fill="#31A991"/>
<path d="M32.212 10.7949C32.2122 10.6573 32.6311 10.6274 33.0243 10.7368C33.5385 10.8798 33.6374 10.9913 33.3593 11.1147C33.1375 11.2129 32.2117 10.955 32.212 10.7949Z" fill="#31A991"/>
<path d="M24.9168 4.75128C23.8315 3.65014 23.4827 2.79302 23.9332 2.33395C24.0433 2.22184 24.1386 2.26717 24.221 2.47104C24.2888 2.63842 24.6024 3.08854 24.918 3.471C25.3333 3.9744 25.4864 4.32254 25.4728 4.73153L25.4542 5.29664L24.9168 4.75128Z" fill="#31A991"/>
<path d="M30.7643 11.0993C30.8212 10.964 30.9837 10.5657 31.1253 10.214L31.3827 9.57488L31.5642 10.1212C31.746 10.6679 31.6038 10.9351 30.9891 11.2024C30.7339 11.3132 30.6838 11.2901 30.7643 11.0993Z" fill="#31A991"/>
<path d="M26.1723 8.1784C26.4808 8.05137 27.0515 7.62251 27.4406 7.22536L28.1482 6.5036L28.1616 7.1888C28.1768 7.96233 28.1507 7.99899 27.1129 8.66751C26.6458 8.96822 26.3419 9.07164 26.3111 8.93993C26.2819 8.8152 26.2393 8.82124 26.2075 8.95503C26.1777 9.07965 26.0206 9.21908 25.8583 9.26453C25.601 9.33672 25.5663 9.28723 25.5875 8.87825C25.6091 8.46156 25.6741 8.38362 26.1723 8.1784Z" fill="#31A991"/>
<path d="M31.4008 11.3909C31.6429 11.2308 31.9463 11.1232 32.0752 11.1521C32.4257 11.2308 32.4387 11.2892 32.1122 11.3189C31.9516 11.3335 31.6269 11.4211 31.3904 11.5138C30.9863 11.6722 30.9869 11.665 31.4008 11.3909Z" fill="#31A991"/>
<path d="M24.3726 6.21541C22.8517 4.57742 22.6756 4.24258 23.0436 3.68768C23.3303 3.25534 23.3551 3.25331 23.5708 3.64438C23.6953 3.87011 24.1771 4.51508 24.6415 5.07756C25.3557 5.94284 25.4836 6.19916 25.4711 6.7414L25.4561 7.38249L24.3726 6.21541Z" fill="#31A991"/>
<path d="M26.0341 9.61185C26.3329 9.51735 26.9036 9.24608 27.3023 9.00886C27.8962 8.65529 28.0258 8.63486 28.0203 8.89582C28.0127 9.25662 26.7741 10.2309 25.8112 10.6336L25.2639 10.8624L25.3774 10.3232C25.4805 9.83312 25.5404 9.76802 26.0341 9.61185Z" fill="#31A991"/>
<path d="M24.5661 16.1119C25.6954 14.9899 27.5827 13.5188 29.2452 12.4647C30.8933 11.4197 31.2643 11.5333 29.6724 12.5954C26.8392 14.4862 23.8943 17.0189 22.8652 18.4498C22.4007 19.0957 22.4628 19.1894 23.2262 18.9946C23.6779 18.8792 23.9226 18.6955 24.2978 18.1901L24.7837 17.5351L24.8014 18.0608C24.8158 18.4906 24.7492 18.6079 24.4375 18.7015C24.2278 18.7646 23.9538 18.9181 23.8289 19.0426C23.704 19.167 23.2507 19.2987 22.8217 19.3348C22.2867 19.38 21.9613 19.5124 21.7858 19.7567C21.6451 19.9525 20.7503 21.2672 19.7975 22.6782C18.8449 24.0893 17.7137 25.6281 17.2839 26.0977C16.5181 26.9349 16.5124 26.9504 16.9882 26.8901C17.5901 26.8137 17.5208 26.8937 16.6081 27.3281C16.2131 27.5162 15.3109 28.1385 14.6029 28.7112C13.5039 29.6002 11.545 30.9103 10.4155 31.5116C10.106 31.6763 10.1105 31.6823 10.5648 31.709C10.8225 31.724 11.4081 31.6224 11.8659 31.4828C12.7362 31.2176 13.0279 31.2682 12.6723 31.6224C12.5568 31.7375 12.1804 31.8287 11.8362 31.8251C10.7395 31.8136 9.26255 32.1119 8.33617 32.5316C6.02137 33.5806 1.46457 34.7711 0.88873 34.4772C0.467271 34.2623 0.608714 33.8063 1.12644 33.7116C1.35421 33.6699 1.58905 33.7146 1.64808 33.8109C1.70712 33.9071 1.77614 33.8992 1.8013 33.7931C1.82658 33.687 2.43162 33.4919 3.14591 33.3592C5.02981 33.0094 7.92833 32.0357 9.55645 31.2056C11.2626 30.3356 11.4968 29.9833 11.1433 28.817C10.8948 27.9965 11.0143 27.8222 11.4947 28.3045C11.6775 28.488 11.7129 28.7537 11.5976 29.079C11.2974 29.9272 11.6447 30.1214 12.4889 29.5777C14.8327 28.0681 17.9218 24.974 18.3111 23.7465C18.5399 23.0247 18.4967 22.2139 18.1983 21.6324L17.9607 21.1696L18.412 21.3394C18.8115 21.4897 18.8512 21.5667 18.7578 22.0102C18.6999 22.2857 18.7376 22.5315 18.8417 22.5563C18.9458 22.581 18.9338 22.698 18.8153 22.8161C18.6759 22.9549 18.6836 23.031 18.837 23.0313C19.0629 23.0318 20.0379 21.5812 20.0386 21.244C20.0387 21.1666 19.8498 21.1263 19.6186 21.1541C19.2703 21.196 19.3228 21.1494 19.925 20.8821C20.8002 20.4933 20.8911 20.2139 20.0564 20.4778C19.6697 20.6001 19.4607 20.5825 19.461 20.4277C19.4616 20.1384 21.3034 19.1838 21.3128 19.468C21.3231 19.7814 22.8053 17.8749 23.1208 17.1422C23.3247 16.669 23.3554 16.1472 23.2208 15.4499L23.0261 14.4417L23.463 14.7683C23.8542 15.0604 23.8759 15.169 23.6689 15.8031C23.3078 16.909 23.6466 17.0255 24.5661 16.1119Z" fill="#31A991"/>
<path d="M33.5488 16.6908C33.9411 16.2973 34.2612 16.0925 34.3946 16.1494C34.7309 16.2931 35.0655 16.6417 34.9618 16.7403C34.9102 16.7895 34.4289 16.941 33.8926 17.0769L32.9175 17.3239L33.5488 16.6908Z" fill="#31A991"/>
<path d="M32.0221 17.0149C32.1631 16.7245 32.5461 16.2202 32.8731 15.8944C33.3904 15.379 33.5003 15.3346 33.7175 15.5526C33.9334 15.7694 33.9028 15.8472 33.493 16.1265C33.2321 16.3044 32.9221 16.6635 32.8042 16.9248C32.6397 17.2892 32.494 17.4163 32.1777 17.4715C31.7823 17.5404 31.776 17.522 32.0221 17.0149Z" fill="#31A991"/>
<path d="M22.0983 5.13526C22.1602 5.07359 22.2563 4.92169 22.3116 4.79773C22.3921 4.61815 22.6355 4.8096 23.5107 5.74028C24.6889 6.99306 25.3949 8.05947 25.0929 8.13023C24.9905 8.15414 25.006 8.21828 25.1273 8.27259C25.2487 8.32678 25.3088 8.53893 25.2611 8.74377C25.1803 9.09024 25.1122 9.06455 24.2821 8.37523C22.5951 6.9738 21.9838 6.27194 21.9848 5.73677C21.9853 5.4676 22.0364 5.19693 22.0983 5.13526Z" fill="#31A991"/>
<path d="M26.1186 10.9071C26.5914 10.6957 27.1543 10.3721 27.3698 10.188C27.8615 9.76752 27.9152 9.96143 27.5259 10.7507C27.1802 11.4515 27.125 11.4998 25.8979 12.1774L24.9919 12.6777L25.1256 11.9845L25.2592 11.2911L26.1186 10.9071Z" fill="#31A991"/>
<path d="M30.9257 16.7131C31.3078 15.8747 31.9267 14.999 32.3866 14.6457C32.4435 14.6019 32.6277 14.7039 32.7957 14.8724C33.0694 15.1473 33.0513 15.2284 32.6199 15.6581C32.3554 15.9216 31.9253 16.4776 31.6642 16.8938C31.2823 17.5023 31.1189 17.6568 30.8289 17.6832C30.5129 17.7119 30.5249 17.5921 30.9257 16.7131Z" fill="#31A991"/>
<path d="M33.8702 17.4488C34.3171 17.3487 34.7621 17.2062 34.8589 17.1323C34.9559 17.0583 34.8429 17.2332 34.608 17.5209C34.144 18.0894 33.9866 18.1305 33.4268 17.8294L33.0575 17.6309L33.8702 17.4488Z" fill="#31A991"/>
<path d="M30.4885 14.4449C30.8092 14.0018 30.9103 13.9643 31.3848 14.1125C31.9138 14.2777 31.9164 14.2848 31.6231 14.758C31.46 15.0211 31.0507 15.7464 30.7138 16.3695C30.1351 17.4394 29.4441 18.1277 29.1976 17.8803C29.0502 17.7323 30.0663 15.0284 30.4885 14.4449Z" fill="#31A991"/>
<path d="M28.9523 14.7761C29.2575 14.2114 29.3777 14.1036 29.7807 14.0334L30.2519 13.9513L29.9631 14.5431C29.8043 14.8686 29.474 15.7352 29.2291 16.4691C28.8903 17.4842 28.6976 17.8361 28.4234 17.9406C28.0988 18.0641 28.0862 17.9638 28.2979 16.9257C28.4272 16.292 28.6299 15.7509 28.7486 15.7232C28.8672 15.6954 28.8813 15.6196 28.7798 15.5547C28.6765 15.4888 28.7528 15.1453 28.9523 14.7761Z" fill="#31A991"/>
<path d="M21.6927 6.44207L23.0028 7.67749C23.7235 8.3568 24.5002 9.07733 24.7288 9.27842C25.0321 9.54511 25.1222 9.7709 25.0618 10.1125C24.979 10.5796 24.9761 10.5789 24.006 9.89591C23.4711 9.51903 22.7242 8.90733 22.3463 8.53638C21.7412 7.94219 21.6615 7.77735 21.676 7.15204L21.6927 6.44207Z" fill="#31A991"/>
<path d="M31.8859 17.8643C32.1002 17.7999 32.6073 17.8755 33.0131 18.0322C33.4187 18.1891 33.7684 18.3273 33.7898 18.3394C33.8113 18.3515 33.6084 18.5812 33.3387 18.8499L32.8484 19.3384L32.1724 18.6599C31.5264 18.0114 31.5138 17.9762 31.8859 17.8643Z" fill="#31A991"/>
<path d="M25.5041 12.7971C25.7968 12.7014 26.243 12.4995 26.4957 12.3486L26.9551 12.0743L26.5879 12.7565C26.2746 13.3382 26.1208 13.4819 25.5446 13.7319C24.7683 14.0684 24.5906 13.9856 24.814 13.3916C24.9342 13.0721 25.0999 12.9295 25.5041 12.7971Z" fill="#31A991"/>
<path d="M27.5335 15.4739C27.6534 15.0999 27.8779 14.7903 28.159 14.6111C28.5752 14.346 28.855 14.524 28.5304 14.8474C28.4466 14.9309 28.2412 15.6775 28.0739 16.5064C27.8326 17.7036 27.6991 18.0349 27.4254 18.1173C26.9992 18.2453 26.9689 18.1254 27.1613 17.0751C27.2954 16.3439 27.3625 16.2338 27.6985 16.1939C28.044 16.1528 28.0456 16.1436 27.7146 16.1026C27.393 16.0627 27.3703 15.9835 27.5335 15.4739Z" fill="#31A991"/>
<path d="M22.3541 9.03253C22.7289 9.39797 23.327 9.90123 23.6832 10.1509C24.751 10.8991 24.9015 11.088 24.8152 11.5723C24.7025 12.205 24.507 12.1221 23.0172 10.8085C21.8315 9.7632 21.7824 9.6963 21.7287 9.04492L21.6728 8.36797L22.3541 9.03253Z" fill="#31A991"/>
<path d="M30.121 18.1476C30.1501 18.1186 30.4034 18.0587 30.6834 18.0147C30.9634 17.9707 31.2397 18.0342 31.2974 18.1558C31.3549 18.2773 31.6646 18.6404 31.9856 18.9627C32.5364 19.5156 32.5495 19.5621 32.218 19.7861C31.9571 19.9628 31.7435 19.9391 31.3873 19.6943C30.9279 19.3788 30.0101 18.258 30.121 18.1476Z" fill="#31A991"/>
<path d="M26.1432 17.1051C26.3666 16.0844 26.5219 15.7394 26.8761 15.4769C27.1602 15.2664 27.2846 15.2387 27.2142 15.4014C27.153 15.543 26.9946 16.2364 26.8621 16.9422C26.6563 18.0394 26.5661 18.2382 26.2405 18.3127C25.8928 18.3924 25.8844 18.2872 26.1432 17.1051Z" fill="#31A991"/>
<path d="M22.0391 10.4798L22.6879 11.0374C24.2834 12.4088 24.5762 12.7422 24.5229 13.1265C24.4941 13.3337 24.4309 13.5461 24.3825 13.5985C24.3342 13.651 23.8415 13.2386 23.2878 12.6818C22.4988 11.8886 22.255 11.5412 22.16 11.0748L22.0391 10.4798Z" fill="#31A991"/>
<path d="M24.4883 14.7047C24.4885 14.5787 24.7751 14.3797 25.1717 14.2299C25.8155 13.9864 25.8386 13.9919 25.5766 14.3247C25.2418 14.7499 24.4877 15.0131 24.4883 14.7047Z" fill="#31A991"/>
<path d="M30.0574 19.7096C29.1493 18.5543 28.995 18.203 29.3802 18.168C29.5948 18.1483 29.7687 18.2709 29.9261 18.5527C30.0533 18.7802 30.4385 19.2484 30.782 19.5932C31.368 20.1815 31.384 20.2287 31.0398 20.3566C30.7093 20.4794 30.6121 20.4154 30.0574 19.7096Z" fill="#31A991"/>
<path d="M28.4957 18.9808C28.1676 18.5211 28.1629 18.4362 28.4603 18.3468C28.7778 18.2513 28.8277 18.2944 29.1281 18.9255C29.3067 19.3005 29.6074 19.7627 29.7966 19.9526C29.9857 20.1423 30.1192 20.3867 30.0933 20.4955C30.0402 20.7186 29.0983 19.8256 28.4957 18.9808Z" fill="#31A991"/>
<path d="M24.1094 14.4889C23.8047 14.7925 22.8702 13.8589 22.6845 13.0655L22.5288 12.4L23.411 13.3529C24.1024 14.0997 24.2536 14.3453 24.1094 14.4889Z" fill="#31A991"/>
<path d="M25.1527 18.4782C24.8852 18.2097 25.1765 16.9674 25.608 16.5375L26.0526 16.0946L25.8084 17.1863C25.563 18.2837 25.3591 18.6854 25.1527 18.4782Z" fill="#31A991"/>
<path d="M24.0536 15.8346C24.1761 15.5822 24.3881 15.3262 24.5248 15.2656C24.9141 15.0932 24.8787 15.1858 24.3358 15.7596C23.8686 16.2537 23.8477 16.2591 24.0536 15.8346Z" fill="#31A991"/>
<path d="M27.0174 18.7243C27.0177 18.6392 27.1672 18.5247 27.3498 18.4698C27.627 18.3864 27.7406 18.4642 28.0351 18.9387C28.2293 19.2516 28.6309 19.754 28.9275 20.0549C29.4282 20.5629 29.4369 20.5981 29.0499 20.5436C28.6298 20.4845 27.0168 19.0407 27.0174 18.7243Z" fill="#31A991"/>
<path d="M27.3382 20.1019C26.606 19.8718 25.7342 18.6334 26.3034 18.6322C26.3593 18.6322 26.7329 18.9999 27.1336 19.4494C27.8538 20.2572 27.8563 20.2648 27.3382 20.1019Z" fill="#31A991"/>
<path d="M19.563 15.0434C19.8057 14.7648 20.0826 14.3631 20.1785 14.1508C20.3416 13.7893 20.3761 13.7943 20.7159 14.2256C21.0276 14.6211 21.0332 14.7498 20.7555 15.1323C20.3539 15.6853 20.0575 16.0255 19.6905 16.3548C19.4175 16.5998 19.4006 16.589 19.264 16.0799C19.153 15.6662 19.2188 15.4385 19.563 15.0434Z" fill="#31A991"/>
<path d="M25.5318 19.3008C25.3542 19.0931 25.2794 18.9065 25.3656 18.8863C25.452 18.8662 25.6875 19.015 25.889 19.2173C26.1048 19.4339 26.173 19.6043 26.0551 19.6319C25.9451 19.6577 25.7094 19.5088 25.5318 19.3008Z" fill="#31A991"/>
<path d="M18.8504 13.2577C18.8766 12.9819 18.9521 12.9543 19.2869 13.0983C20.1106 13.453 20.1321 13.7207 19.4186 14.7447L19.0416 15.2854L18.8509 14.7927C18.6091 14.1682 18.6529 13.931 19.0625 13.6471C19.2469 13.5194 19.3079 13.4 19.2018 13.3748C19.0981 13.3501 18.9934 13.4127 18.9693 13.5141C18.8996 13.8063 18.8155 13.6248 18.8504 13.2577Z" fill="#31A991"/>
<path d="M19.9807 16.6228C20.2966 16.3859 20.7134 15.9375 20.9069 15.626C21.157 15.2237 21.2988 15.101 21.3968 15.202C21.7212 15.5365 21.6301 15.9006 21.0866 16.4421C20.2215 17.3039 19.6564 17.6177 19.5208 17.3117C19.4333 17.1141 19.5416 16.9517 19.9807 16.6228Z" fill="#31A991"/>
<path d="M24.6047 19.1856C24.2224 19.0683 24.2177 19.0529 24.5545 19.0212C24.7589 19.002 24.9744 19.0347 25.0333 19.0938C25.2199 19.2811 25.0409 19.3194 24.6047 19.1856Z" fill="#31A991"/>
<path d="M18.0565 13.4081C17.3699 12.4941 17.3434 12.3618 17.8777 12.515C18.5071 12.6954 18.506 12.6938 18.4837 13.3675L18.4644 13.9509L18.0565 13.4081Z" fill="#31A991"/>
<path d="M20.5566 17.3237C21.0877 16.9948 21.5667 16.6264 21.6212 16.5046C21.6837 16.3648 21.7602 16.3737 21.8289 16.529C21.9609 16.8267 21.0863 17.7449 20.1907 18.249C19.677 18.5382 19.584 18.5393 19.5873 18.2561C19.5905 17.9745 19.7443 17.8266 20.5566 17.3237Z" fill="#31A991"/>
<path d="M25.6504 24.7189C26.4462 23.7854 26.8209 23.4561 27.4955 23.0977C27.6051 23.0393 27.8535 23.1506 28.0473 23.3451L28.3996 23.6988L27.5862 24.1694C27.139 24.4283 26.5841 24.8738 26.3536 25.1594C26.034 25.555 25.794 25.689 25.3463 25.7218L24.7585 25.7649L25.6504 24.7189Z" fill="#31A991"/>
<path d="M27.0497 25.1151C27.3872 24.7789 27.8974 24.3913 28.1835 24.2538C28.572 24.067 28.7777 24.0783 28.9969 24.2983C29.3428 24.6456 29.3463 24.64 28.6621 24.8537C28.3687 24.9453 27.9575 25.1901 27.7484 25.3975C27.5251 25.6193 27.1761 25.7647 26.9022 25.7506C26.4419 25.7267 26.4438 25.7188 27.0497 25.1151Z" fill="#31A991"/>
<path d="M20.2216 18.6246C20.5896 18.4495 21.1185 18.0799 21.3971 17.8033L21.9033 17.3004L21.78 17.9121C21.6526 18.5428 21.4449 18.7415 20.184 19.4382C19.6311 19.7439 19.5906 19.7383 19.5722 19.3543C19.5543 18.9804 19.6129 18.9144 20.2216 18.6246Z" fill="#31A991"/>
<path d="M25.344 22.6623C25.8557 22.1526 26.02 22.0775 26.362 22.1977C27.2772 22.5194 27.2561 22.5848 25.7251 24.1753C24.499 25.4487 24.2286 25.6646 23.8037 25.7084C23.3108 25.7593 23.3114 25.7558 24.0217 24.5148C24.4134 23.8302 25.0085 22.9965 25.344 22.6623Z" fill="#31A991"/>
<path d="M28.9757 25.2957C29.0056 25.1701 29.1193 25.0464 29.2282 25.0209C29.4737 24.9635 30.1455 25.6168 30.0881 25.8573C30.0392 26.0634 28.9675 25.8842 28.843 25.6489C28.7964 25.561 28.7582 25.5707 28.7579 25.6704C28.7575 25.8711 28.2186 25.9688 28.0495 25.799C27.9905 25.7398 28.0283 25.6056 28.1334 25.501C28.2384 25.3963 28.3434 25.3914 28.3666 25.4902C28.3895 25.589 28.4966 25.5202 28.6041 25.3371C28.7498 25.0893 28.8153 25.0707 28.8606 25.2643C28.9009 25.4364 28.9398 25.447 28.9757 25.2957Z" fill="#31A991"/>
<path d="M17.4001 13.841C16.7259 13.5873 16.4698 13.2587 16.6746 12.91C16.8316 12.6429 16.9154 12.6618 17.3007 13.0517C17.9322 13.691 17.9786 14.0585 17.4001 13.841Z" fill="#31A991"/>
<path d="M16.6783 13.8931C16.7961 14.0106 17.1635 14.1668 17.4946 14.24C18.1561 14.3863 18.5511 14.6703 18.4842 14.9514C18.4604 15.0513 17.93 14.9615 17.3056 14.752C16.4406 14.4616 16.1837 14.3106 16.227 14.1185C16.3155 13.7255 16.4454 13.6605 16.6783 13.8931Z" fill="#31A991"/>
<path d="M28.5839 26.4531C28.5894 26.3451 28.8965 26.2509 29.2667 26.2436C29.6368 26.2364 29.9396 26.2625 29.9396 26.3015C29.9394 26.3406 29.6796 26.5098 29.362 26.6774C28.8447 26.9505 28.7301 26.9369 28.2596 26.5471C27.8131 26.1769 27.7888 26.1203 28.0969 26.1687C28.2959 26.2 28.4848 26.321 28.5165 26.4375C28.5482 26.5541 28.5786 26.561 28.5839 26.4531Z" fill="#31A991"/>
<path d="M16.6767 15.1129C16.725 15.0329 17.1973 15.0838 17.7264 15.2259C18.5065 15.4355 18.7168 15.5603 18.8377 15.8854L18.9868 16.2864L18.5657 16.1608C18.3339 16.0917 17.6173 15.9071 16.9732 15.7508C16.3291 15.5943 15.764 15.4282 15.7175 15.3815C15.5784 15.2419 15.9803 14.6766 16.1842 14.7252C16.288 14.7499 16.4217 14.88 16.4811 15.0142C16.5406 15.1484 16.6286 15.1929 16.6767 15.1129Z" fill="#31A991"/>
<path d="M23.8298 22.2169C23.9239 22.1231 24.2742 22.0142 24.608 21.975L25.2152 21.9037L24.5941 22.8393C24.2525 23.3537 23.7571 24.209 23.493 24.7397C23.0903 25.5491 22.9506 25.7153 22.6261 25.772C22.2651 25.8348 22.2527 25.7912 22.4412 25.1287C22.6589 24.3634 23.5495 22.496 23.8298 22.2169Z" fill="#31A991"/>
<path d="M17.3466 16.4005C17.3521 16.2932 17.6083 16.2577 17.9162 16.3215C18.5009 16.4427 19.0458 16.8783 19.1388 17.2988C19.1767 17.4701 19.0171 17.4992 18.6133 17.3944C18.2942 17.3117 18.0091 17.1412 17.9797 17.0156C17.949 16.8843 17.9057 16.8739 17.8777 16.9915C17.8336 17.1769 17.2539 17.1108 15.7815 16.7526C15.2723 16.6288 15.253 16.6035 15.3311 16.1648C15.4035 15.7582 15.4452 15.7155 15.6992 15.7878C15.8567 15.8326 16.0095 15.9715 16.0387 16.0963C16.0696 16.228 16.1126 16.2366 16.1411 16.1167C16.206 15.8444 17.1922 16.0563 17.2736 16.3598C17.3084 16.4894 17.3413 16.5076 17.3466 16.4005Z" fill="#31A991"/>
<path d="M17.7319 17.6968C17.7631 17.5658 18.0687 17.5681 18.4851 17.7024C18.9748 17.8603 19.1939 18.0113 19.2121 18.2039C19.2317 18.4082 18.9238 18.4113 18.0205 18.2152C17.3505 18.0701 16.7797 17.854 16.752 17.7353C16.7235 17.614 16.6798 17.6099 16.6522 17.7261C16.5713 18.0656 15.5683 17.7683 15.4124 17.3585C15.293 17.0451 15.4047 17.032 16.4271 17.2405C17.0589 17.3694 17.5992 17.5744 17.6278 17.696C17.6585 17.8273 17.7008 17.8276 17.7319 17.6968Z" fill="#31A991"/>
<path d="M26.1875 26.2681C26.1881 25.9725 27.1348 26.126 27.5901 26.4955C27.8608 26.7153 28.1551 26.9497 28.2442 27.0163C28.3656 27.1073 28.2615 27.2139 27.8274 27.443L27.2488 27.7485L26.718 27.0725C26.426 26.7007 26.1874 26.3388 26.1875 26.2681Z" fill="#31A991"/>
<path d="M21.8528 23.2419C22.0776 22.8013 22.2799 22.6009 22.7081 22.3952C23.2687 22.1256 23.2687 22.1256 23.0855 22.5434C22.9846 22.7731 22.6621 23.6107 22.3689 24.4047C21.9274 25.6007 21.7749 25.8576 21.4801 25.9029C21.2844 25.9328 21.0944 25.9274 21.0578 25.8906C20.9541 25.7865 21.5252 23.8843 21.8528 23.2419Z" fill="#31A991"/>
<path d="M18.3406 18.803C18.3689 18.6841 18.5463 18.6278 18.7348 18.678C19.1852 18.7979 19.2433 18.8614 19.2112 19.1999C19.1755 19.5762 16.0537 18.7466 15.8598 18.3093C15.7428 18.0451 15.7589 18.0271 16.0397 18.1069C16.2094 18.1552 16.3721 18.2969 16.4014 18.4216C16.432 18.5521 16.4753 18.562 16.5031 18.4448C16.5694 18.1669 18.1616 18.4745 18.2329 18.7791C18.2675 18.9273 18.3089 18.9364 18.3406 18.803Z" fill="#31A991"/>
<path d="M24.4441 26.0427L24.9958 26.0219C25.3977 26.0066 25.6115 26.1031 25.7829 26.3771C26.2378 27.1039 26.3091 27.2019 26.6303 27.5428C26.9318 27.863 26.9234 27.898 26.5085 28.0522C26.115 28.1986 25.9875 28.1422 25.4167 27.5692C25.0612 27.2124 24.6969 26.7229 24.6072 26.4816L24.4441 26.0427Z" fill="#31A991"/>
<path d="M18.3191 19.8224C18.3244 19.7121 18.5203 19.6803 18.7546 19.7517C19.2242 19.8947 19.3377 20.0974 19.0879 20.3463C18.998 20.4358 18.7401 20.398 18.5145 20.2623C18.2889 20.1268 17.7769 19.9009 17.3764 19.7606C16.9318 19.6047 16.6489 19.4176 16.6491 19.2796C16.6497 18.9874 18.1605 19.4691 18.2462 19.7888C18.2809 19.9175 18.3136 19.9326 18.3191 19.8224Z" fill="#31A991"/>
<path d="M20.126 24.9104C20.4674 23.8888 20.6892 23.483 21.0521 23.2158C21.4331 22.9351 21.5113 22.9275 21.44 23.1781C21.3909 23.3506 21.243 23.5206 21.1113 23.5559C20.9795 23.5911 20.9584 23.6244 21.0644 23.6297C21.1703 23.635 21.1048 24.1665 20.9188 24.8108C20.6173 25.8549 20.5313 25.9969 20.1288 26.118C19.6897 26.2499 19.6895 26.2167 20.126 24.9104Z" fill="#31A991"/>
<path d="M17.3972 20.4897C16.8965 20.0018 17.3101 19.9891 18.1836 20.4654C18.5933 20.6888 18.9486 20.9499 18.9734 21.0456C19.0425 21.3138 17.7894 20.8718 17.3972 20.4897Z" fill="#31A991"/>
<path d="M23.5365 26.3561C23.1955 26.1509 23.1969 26.1488 23.6886 26.1193C24.0005 26.1004 24.1947 26.1793 24.211 26.3315C24.2411 26.6098 24.6574 27.2712 25.1819 27.8732C25.4915 28.2286 25.4951 28.303 25.2065 28.3897C25.0152 28.4472 24.7323 28.3533 24.5522 28.1725C24.1174 27.736 23.546 26.6417 23.7303 26.5985C23.8129 26.5792 23.7258 26.4701 23.5365 26.3561Z" fill="#31A991"/>
<path d="M19.0174 22.1263C19.0534 21.9602 19.1686 21.7448 19.2735 21.6479C19.3991 21.5315 19.4163 21.5904 19.3238 21.821C19.1311 22.3015 18.9375 22.4943 19.0174 22.1263Z" fill="#31A991"/>
<path d="M22.9946 27.3114C22.2017 26.2372 22.1658 26.0964 22.6858 26.0974C22.8502 26.0977 23.0312 26.2196 23.088 26.3683C23.1448 26.517 23.448 27.0829 23.7618 27.6257C24.5058 28.9126 24.0339 28.7194 22.9946 27.3114Z" fill="#31A991"/>
<path d="M18.9666 26.2432C18.679 25.9545 19.0412 24.7968 19.5726 24.3057L20.0465 23.8678L19.7906 24.789C19.4422 26.0427 19.1974 26.4749 18.9666 26.2432Z" fill="#31A991"/>
<path d="M21.276 26.8922C20.9145 26.3663 20.9172 26.3421 21.3474 26.2679C21.7345 26.201 21.8431 26.2667 22.1511 26.7554C22.347 27.066 22.6849 27.5666 22.9022 27.8678C23.2671 28.3736 23.2668 28.4111 22.8988 28.3596C22.4682 28.2993 21.873 27.7612 21.276 26.8922Z" fill="#31A991"/>
<path d="M12.039 17.1149L12.4198 17.405C13.253 18.0398 13.3706 18.2829 13.1677 18.9506C13.0587 19.3093 12.8151 19.7567 12.6262 19.9449C12.3089 20.2609 12.2731 20.2551 12.1533 19.8664C12.082 19.635 12.0272 18.9215 12.0314 18.2804L12.039 17.1149Z" fill="#31A991"/>
<path d="M12.8429 20.2189C13.1114 19.949 13.4059 19.4917 13.4974 19.2025L13.6638 18.6769L13.9754 19.1552C14.1468 19.4185 14.285 19.7585 14.2827 19.9112C14.273 20.5352 13.212 22.0745 12.7923 22.0737C12.7107 22.0735 12.5789 21.7666 12.4994 21.3916C12.3753 20.8056 12.4236 20.6406 12.8429 20.2189Z" fill="#31A991"/>
<path d="M10.1734 16.5266C10.2003 16.4997 10.5102 16.5482 10.8621 16.6342C11.2141 16.7203 11.5317 16.8201 11.568 16.8562C11.6044 16.8922 11.6564 17.2801 11.6836 17.718C11.7268 18.4157 11.7068 18.4679 11.521 18.1392C11.4041 17.9329 11.0423 17.4967 10.7166 17.1697C10.3909 16.8428 10.1464 16.5535 10.1734 16.5266Z" fill="#31A991"/>
<path d="M13.5404 21.8553C13.9896 21.3866 14.4129 20.855 14.4811 20.6739C14.5988 20.3615 14.6142 20.3733 14.7827 20.9064C15.0495 21.7497 14.7259 22.2529 13.4154 23.0328C12.7979 23.4003 12.7225 23.405 12.7233 23.0763C12.7236 22.829 12.9934 22.4261 13.5404 21.8553Z" fill="#31A991"/>
<path d="M21.208 27.9132C20.4704 27.6926 19.558 26.5164 20.0869 26.4682C20.3298 26.4461 20.5334 26.5837 20.79 26.9436C20.9886 27.222 21.2857 27.5906 21.4502 27.7626L21.7492 28.0753L21.208 27.9132Z" fill="#31A991"/>
<path d="M17.7106 26.3309C17.8694 26.0857 18.1291 25.7425 18.2877 25.5686L18.5763 25.2523L18.5755 25.7785C18.5746 26.264 18.5297 26.3231 17.9982 26.5409L17.4221 26.7768L17.7106 26.3309Z" fill="#31A991"/>
<path d="M10.3889 18.2294C9.67217 17.8446 9.64886 17.8131 9.66729 17.2572L9.68624 16.6824L10.408 17.4106C10.8047 17.811 11.1584 18.2747 11.1938 18.4409C11.2292 18.6071 11.2293 18.717 11.1939 18.6851C11.1586 18.6531 10.7963 18.4481 10.3889 18.2294Z" fill="#31A991"/>
<path d="M13.4738 23.4585C13.8119 23.2769 14.3233 22.8947 14.6103 22.6088C15.0603 22.1605 15.1363 22.1353 15.1627 22.4249C15.1946 22.7753 14.1074 23.9454 13.2344 24.5002L12.8065 24.7721L12.8327 24.2803C12.8555 23.8492 12.9348 23.7475 13.4738 23.4585Z" fill="#31A991"/>
<path d="M19.3953 27.1638C19.1826 26.9503 19.0648 26.7196 19.1335 26.6512C19.2076 26.5773 19.3619 26.6964 19.5133 26.9444C19.8774 27.5406 19.8399 27.6102 19.3953 27.1638Z" fill="#31A991"/>
<path d="M9.49083 18.6256C9.58202 18.2204 9.65127 18.2206 10.4553 18.6271C11.1517 18.9794 11.8441 19.6411 11.8436 19.9537C11.8431 20.1246 11.7934 20.1053 10.5534 19.4561C9.69627 19.0074 9.44839 18.8137 9.49083 18.6256Z" fill="#31A991"/>
<path d="M13.0837 25.0128C13.2358 24.9541 13.7579 24.5605 14.2438 24.138C14.7298 23.7156 15.1441 23.3869 15.1646 23.4075C15.1852 23.4281 15.1306 23.745 15.0433 24.1114C14.8611 24.8766 14.4851 25.2944 13.4147 25.9214L12.656 26.3658L12.7315 25.7427C12.7776 25.3641 12.9157 25.0778 13.0837 25.0128Z" fill="#31A991"/>
<path d="M18.483 27.0547C18.3133 26.9549 18.2552 26.8542 18.354 26.8313C18.4528 26.8081 18.6127 26.8686 18.7095 26.9658C18.9623 27.2195 18.8431 27.2663 18.483 27.0547Z" fill="#31A991"/>
<path d="M9.70558 19.3884C9.82185 19.4997 10.2951 19.7637 10.7572 19.975C11.8435 20.4721 12.0872 20.7148 12.1671 21.3792L12.2326 21.9245L11.9394 21.6356C11.7782 21.4767 11.1274 21.1017 10.4933 20.8023C9.15071 20.1686 8.8474 19.9097 9.01316 19.5397C9.16847 19.1925 9.43873 19.1335 9.70558 19.3884Z" fill="#31A991"/>
<path d="M20.3969 32.137C20.4927 31.7343 21.5215 31.5451 21.9383 31.8536C22.8389 32.5201 22.8705 32.5692 22.4131 32.5913C22.1846 32.6023 21.374 32.843 20.6117 33.1264C19.8494 33.4098 19.2051 33.5537 19.1799 33.4461C19.1526 33.3299 19.0812 33.369 19.0034 33.5425C18.9022 33.7687 18.8437 33.7686 18.7433 33.542C18.672 33.3812 18.5949 33.3284 18.572 33.4245C18.5492 33.5207 18.4167 33.5484 18.2776 33.4862C17.9679 33.3476 17.9274 33.3869 19.1986 32.5902C19.8598 32.1757 20.2626 32.0128 20.2942 32.1472C20.3231 32.2711 20.3659 32.2668 20.3969 32.137Z" fill="#31A991"/>
<path d="M21.0169 33.3233C21.0906 33.2499 21.5634 33.0983 22.0674 32.9865C22.8505 32.8129 23.0371 32.8406 23.3465 33.1777C23.5458 33.3949 23.6949 33.5863 23.6779 33.6032C23.661 33.6201 23.2266 33.6896 22.713 33.7575C22.1992 33.8256 21.5434 33.9782 21.2556 34.0966C20.9573 34.2196 20.4771 34.2213 20.1382 34.1005L19.5439 33.8887L20.2134 33.6727C20.5816 33.5539 20.9432 33.3967 21.0169 33.3233Z" fill="#31A991"/>
<path d="M23.2209 34.1635C23.2462 34.0574 23.4137 33.9573 23.593 33.9409C23.9634 33.9072 24.163 34.0669 24.2523 34.4684C24.302 34.6914 24.2407 34.723 23.9379 34.6306C23.731 34.5676 23.5576 34.433 23.5526 34.3316C23.5476 34.2303 23.5159 34.2477 23.4824 34.3705C23.386 34.7217 22.3372 34.92 21.8195 34.6847L21.3498 34.4714L22.0587 34.243C22.4486 34.1174 22.8716 34.0394 22.9989 34.0696C23.153 34.1063 23.1437 34.145 22.9709 34.1854C22.7981 34.2259 22.7889 34.2645 22.9434 34.3012C23.0709 34.3316 23.1958 34.2696 23.2209 34.1635Z" fill="#31A991"/>
<path d="M9.38509 20.6453C9.79561 20.8882 10.4083 21.1958 10.7467 21.3288C11.5057 21.6273 12.3233 22.422 12.3917 22.9276C12.4373 23.2654 12.2996 23.2465 11.0994 22.7496C10.3605 22.4438 9.48166 22.0436 9.1464 21.8603C8.56877 21.5445 8.53938 21.4925 8.5878 20.8656L8.63885 20.2039L9.38509 20.6453Z" fill="#31A991"/>
<path d="M19.3433 31.1797C19.4185 31.0117 19.6801 30.9787 20.1057 31.0832C20.8431 31.2645 20.9135 31.379 20.3853 31.5379C20.1828 31.5987 19.6889 31.8571 19.2878 32.112C17.7865 33.066 17.3914 33.2417 17.0084 33.1249C16.6243 33.0079 16.6338 32.9904 17.4161 32.3737C18.7273 31.3398 19.1451 31.0774 19.1881 31.2612C19.2107 31.357 19.2804 31.3203 19.3433 31.1797Z" fill="#31A991"/>
<path d="M23.9275 35.4917C22.8152 35.0252 22.7859 34.8342 23.8462 34.962C24.5809 35.0505 24.9306 35.2988 25.17 35.9025C25.2641 36.1397 25.2461 36.197 25.1143 36.0802C25.0071 35.9854 24.4731 35.7207 23.9275 35.4917Z" fill="#31A991"/>
<path d="M13.453 26.2965C13.9005 26.0685 14.3612 25.7967 14.4767 25.6921C14.5922 25.5875 14.5351 25.8185 14.3496 26.2053C14.0431 26.8448 13.9429 26.9395 13.2476 27.249C12.505 27.5794 12.4851 27.5765 12.5611 27.15C12.6304 26.7608 12.7319 26.6639 13.453 26.2965Z" fill="#31A991"/>
<path d="M9.21225 22.3015C9.64633 22.5107 10.4716 22.8728 11.0464 23.1063C12.266 23.6014 12.5108 23.7986 12.4679 24.2512C12.4419 24.5252 12.3655 24.553 12.0324 24.4098C11.81 24.3143 10.9704 23.9631 10.1663 23.6291C8.74897 23.0407 8.7001 23.0054 8.56395 22.4716L8.42344 21.9211L9.21225 22.3015Z" fill="#31A991"/>
<path d="M22.7245 35.4078L23.6974 35.782C24.8336 36.2189 25.0177 36.3488 24.5598 36.3905C24.3763 36.4071 24.2074 36.3395 24.1841 36.2404C24.1609 36.1411 24.0839 36.1477 24.013 36.2552C23.9239 36.3904 23.7058 36.2901 23.3045 35.9292L22.7245 35.4078Z" fill="#31A991"/>
<path d="M15.743 32.1381C17.0157 31.1733 17.7577 30.7636 18.2583 30.7489C18.5547 30.7402 18.797 30.777 18.7969 30.8306C18.7968 30.8842 18.4191 31.1869 17.9575 31.5031C17.4959 31.8194 16.9368 32.2589 16.7149 32.48C16.3926 32.801 16.202 32.8468 15.7669 32.7073L15.2222 32.5328L15.743 32.1381Z" fill="#31A991"/>
<path d="M10.3737 24.3093C10.4148 24.1362 11.1401 24.3431 11.9592 24.7615C12.4224 24.998 12.5179 25.1659 12.403 25.5424C12.3159 25.8283 12.2376 25.8936 12.082 25.8097C11.9689 25.7487 11.2894 25.4042 10.5723 25.044C9.57958 24.5455 9.22293 24.2885 9.07891 23.9672C8.8908 23.5479 8.89386 23.5468 9.55918 23.8199C9.92742 23.9711 10.2505 24.1883 10.2773 24.3025C10.304 24.4166 10.3475 24.4197 10.3737 24.3093Z" fill="#31A991"/>
<path d="M21.4485 35.7573C20.7635 34.8883 20.7197 34.632 21.284 34.7949C21.5334 34.867 22.0649 35.2507 22.4652 35.6476L23.193 36.3697L22.5782 36.3899C22.0337 36.408 21.9045 36.3357 21.4485 35.7573Z" fill="#31A991"/>
<path d="M12.6858 28.1725C12.1719 28.2193 12.3005 28.0098 12.983 27.688C13.5879 27.4028 13.5982 27.4053 13.3106 27.768C13.1472 27.974 12.8661 28.1561 12.6858 28.1725Z" fill="#31A991"/>
<path d="M16.2274 30.9528C16.2275 30.8531 16.363 30.7591 16.5282 30.744C17.0466 30.6968 17.0057 30.7421 15.64 31.73C15.4448 31.8712 15.1658 32.0974 15.0199 32.2327C14.8669 32.3747 14.5689 32.409 14.3155 32.3135C13.8996 32.1571 13.8972 32.1341 14.2712 31.8795C14.4885 31.7316 14.9573 31.4063 15.3131 31.1566C15.7644 30.8399 16.0002 30.7679 16.0935 30.9184C16.1668 31.0371 16.2271 31.0525 16.2274 30.9528Z" fill="#31A991"/>
<path d="M9.74959 25.4186C9.39456 24.8837 9.4819 24.8947 10.8334 25.554C11.4532 25.8563 12.0597 26.1971 12.1811 26.3111C12.402 26.5184 12.3042 26.7783 12.0343 26.7016C11.9556 26.6791 11.9694 26.7098 12.0647 26.7694C12.1602 26.8292 12.238 26.9478 12.2379 27.0329C12.2374 27.2879 10.0474 25.8671 9.74959 25.4186Z" fill="#31A991"/>
<path d="M19.2139 34.8141C18.8091 34.0949 18.8989 33.9813 19.671 34.2367C20.0001 34.3456 20.3491 34.5748 20.4465 34.7464C20.5441 34.9178 20.795 35.348 21.0043 35.7023L21.3846 36.3463L20.8719 36.284C20.2978 36.2144 19.7073 35.6909 19.2139 34.8141Z" fill="#31A991"/>
<path d="M17.9378 34.4678C17.6619 33.6976 17.6651 33.6834 18.0861 33.8118C18.4428 33.9205 18.5627 34.0671 18.7876 34.6696C18.9367 35.0691 19.222 35.5632 19.4216 35.7674L19.7845 36.1386L19.1754 36.0126C18.5179 35.8766 18.3816 35.7066 17.9378 34.4678Z" fill="#31A991"/>
<path d="M10.5399 26.9862C10.1139 26.3609 10.2239 26.3438 11.0606 26.9052C11.8436 27.4308 12.0416 27.6629 11.9175 27.9097C11.7886 28.1658 10.9693 27.6165 10.5399 26.9862Z" fill="#31A991"/>
<path d="M13.1209 31.9989C12.7462 31.8312 13.6653 31.0408 14.3714 30.9234C14.7061 30.8678 14.9942 30.8366 15.0117 30.8541C15.1331 30.976 13.3063 32.0819 13.1209 31.9989Z" fill="#31A991"/>
<path d="M12.091 28.9491C11.9543 29.0073 11.9544 28.9493 12.0914 28.8011C12.2153 28.6672 12.3164 28.624 12.3163 28.7053C12.3161 28.7865 12.2148 28.8963 12.091 28.9491Z" fill="#31A991"/>
<path d="M16.5993 33.8425C16.3801 33.3015 16.3907 33.2602 16.7261 33.3498C17.262 33.493 17.3365 33.6043 17.6573 34.7383L17.9488 35.7691L17.3936 35.101C17.0882 34.7336 16.7307 34.1673 16.5993 33.8425Z" fill="#31A991"/>
<path d="M14.9118 33.068C14.8308 32.8932 14.9568 32.8651 15.3657 32.9666C15.9146 33.1028 15.9463 33.1404 16.4092 34.2082L16.8866 35.3094L16.2757 34.9674C15.68 34.6337 15.5593 34.4657 14.9118 33.068Z" fill="#31A991"/>
<path d="M13.8151 33.0537C13.576 32.5415 13.5862 32.4898 13.9181 32.5322C14.3054 32.5816 14.3663 32.6584 14.845 33.7021L15.1432 34.3523L14.6116 33.9871C14.2966 33.7707 13.9721 33.3906 13.8151 33.0537Z" fill="#31A991"/>
<path d="M13.2313 33.0012C12.9468 32.9333 12.7327 32.5392 12.8934 32.3791C13.0225 32.2505 13.179 32.3865 13.3522 32.7774C13.4454 32.9876 13.4146 33.0447 13.2313 33.0012Z" fill="#31A991"/>
<path d="M12.0595 32.3624C11.8618 32.2277 11.7763 32.0994 11.8694 32.0777C12.0336 32.0392 12.5608 32.4662 12.4661 32.5606C12.4402 32.5864 12.2574 32.4972 12.0595 32.3624Z" fill="#31A991"/>
</g>
</svg>
