<svg width="63" height="54" viewBox="0 0 63 54" fill="none" xmlns="http://www.w3.org/2000/svg">
<path d="M3.05608 18.3062C1.23828 19.2034 0.788734 19.2253 0.574965 18.4275C0.510186 18.1857 0.531195 17.8597 0.621695 17.703C0.858337 17.2931 2.4816 17.1132 3.0387 17.4348C3.29879 17.585 3.81371 17.6429 4.18285 17.5634C4.55162 17.484 4.04465 17.8183 3.05608 18.3062Z" fill="#34CBAA"/>
<path d="M6.55711 13.6661C5.71427 13.3514 5.27051 13.0608 5.15463 12.7477C4.68431 11.4767 5.79784 11.675 6.92619 13.0633L7.79041 14.1268L6.55711 13.6661Z" fill="#34CBAA"/>
<path d="M4.52311 17.2025C4.06912 17.2284 3.62379 17.1122 3.53364 16.9449C3.19027 16.3067 3.90111 16.2328 5.04488 16.7879C5.69952 17.1058 6.16021 17.3746 6.06872 17.3855C5.97724 17.3965 5.61088 17.4417 5.25466 17.4859C4.7647 17.5467 4.69746 17.5162 4.9778 17.361C5.22657 17.2235 5.07699 17.1715 4.52311 17.2025Z" fill="#34CBAA"/>
<path d="M5.29298 18.4267C4.63797 19.1858 4.00551 19.5412 3.66228 19.343C3.24637 19.1029 4.01091 18.3123 4.94828 18.0128L5.91714 17.7033L5.29298 18.4267Z" fill="#34CBAA"/>
<path d="M11.499 9.46128C10.8387 9.20793 10.1752 8.84842 10.0248 8.66279C9.8746 8.4773 9.83685 8.17746 9.94116 7.99679C10.2525 7.45756 11.2532 7.92357 12.0002 8.9558L12.6998 9.92236L11.499 9.46128Z" fill="#34CBAA"/>
<path d="M8.53084 14.9707C6.95086 15.7686 6.69759 15.827 6.40253 15.4629C5.95928 14.9156 6.55932 14.2378 7.29978 14.4488C7.66535 14.5531 8.00865 14.5618 8.06255 14.4684C8.11645 14.3751 8.48198 14.3297 8.87485 14.3674L9.58924 14.4364L8.53084 14.9707Z" fill="#34CBAA"/>
<path d="M8.52529 12.6775C8.32527 12.6834 8.09425 12.5633 8.01211 12.4106C7.80027 12.017 8.2931 11.2578 8.71091 11.3343C9.21559 11.4266 9.95967 12.6622 9.93699 13.3702C9.92603 13.7029 10.0766 14.067 10.2712 14.1793C10.4658 14.2917 10.4998 14.451 10.3466 14.5334C10.1607 14.6335 9.96862 14.5226 9.7677 14.1992C9.60252 13.9329 9.19273 13.5567 8.85763 13.3632C8.45589 13.1313 8.35731 12.9523 8.56848 12.8386C8.76722 12.732 8.75072 12.6705 8.52529 12.6775Z" fill="#34CBAA"/>
<path d="M4.55876 20.5195C4.09961 21.3319 3.2283 21.7856 3.09354 21.2827C2.97217 20.829 3.49085 20.2417 4.26418 19.9571L5.03729 19.6724L4.55876 20.5195Z" fill="#34CBAA"/>
<path d="M6.81481 20.389C6.6151 20.2737 6.58181 19.8616 6.73587 19.4146C7.0836 18.4068 7.40817 18.2152 7.47505 18.9784C7.55551 19.8977 7.21702 20.6212 6.81481 20.389Z" fill="#34CBAA"/>
<path d="M13.0503 11.7453C12.549 11.9742 11.9816 12.0705 11.7896 11.9596C11.1605 11.5964 12.0102 11.0615 13.0006 11.1974L13.9615 11.3292L13.0503 11.7453Z" fill="#34CBAA"/>
<path d="M18.5482 3.47647C18.2289 3.29212 17.8235 2.90942 17.6476 2.6258C17.4453 2.30034 17.4617 1.93888 17.692 1.64515C18.2789 0.89685 19.2846 1.84539 19.7591 3.59469C20.1318 4.96883 20.1247 5.01801 19.642 4.43305C19.3598 4.09151 18.8678 3.66096 18.5482 3.47647Z" fill="#34CBAA"/>
<path d="M14.7715 11.1838C14.6156 11.8196 14.5904 11.7951 14.0836 10.516C13.7762 9.74033 13.6783 9.04871 13.8481 8.85264C14.5361 8.05839 15.1549 9.62041 14.7715 11.1838Z" fill="#34CBAA"/>
<path d="M9.21999 21.0445C9.05334 21.3331 8.4764 21.2598 8.19656 20.9143C8.01357 20.6885 8.14535 20.2243 8.63097 19.3832C9.38541 18.0765 9.63947 18.0708 9.09243 19.3728C8.90573 19.8174 8.7892 20.2916 8.8336 20.4266C8.87787 20.5618 8.96582 20.4233 9.02878 20.1191C9.14136 19.5744 9.14452 19.5759 9.23199 20.2181C9.28062 20.5769 9.27523 20.9488 9.21999 21.0445Z" fill="#34CBAA"/>
<path d="M11.2073 18.675C10.7977 19.3844 10.363 18.9419 10.6115 18.0685C10.7126 17.7138 10.9306 17.3077 11.0962 17.1668C11.5346 16.7925 11.6205 17.9593 11.2073 18.675Z" fill="#34CBAA"/>
<path d="M12.8876 16.0209C12.6879 16.2032 12.3381 16.3226 12.1101 16.2863C11.882 16.2503 11.7516 16.1233 11.8201 16.0046C12.0207 15.6572 18.9189 13.9374 20.5008 13.8404L21.9452 13.752L20.5749 13.9801C18.1333 14.387 13.2603 15.6806 12.8876 16.0209Z" fill="#34CBAA"/>
<path d="M15.7873 13.7584C14.7876 14.3829 14.009 14.4009 13.991 13.7998C13.9735 13.2193 14.8443 12.7932 15.8013 12.914C16.2676 12.973 16.6192 12.9085 16.5822 12.7707C16.5453 12.633 16.6808 12.6162 16.8833 12.7331C17.0856 12.8499 17.4768 12.9971 17.7522 13.0601C18.0278 13.1232 17.9028 13.1783 17.4745 13.1828C17.0462 13.1872 16.287 13.4462 15.7873 13.7584Z" fill="#34CBAA"/>
<path d="M17.0008 11.0268C17.1695 10.8901 17.1672 10.7825 16.9961 10.7878C16.8247 10.7929 16.7526 10.6791 16.8359 10.5349C17.1133 10.0544 17.9355 11.0072 17.8885 11.7551C17.8302 12.6853 17.7176 12.7097 17.1509 11.915C16.8763 11.5305 16.8165 11.1761 17.0008 11.0268Z" fill="#34CBAA"/>
<path d="M21.3425 7.95479C20.4162 8.08503 19.4716 7.85209 19.1086 7.40383C18.9593 7.21946 18.8919 6.97371 18.9589 6.8576C19.2192 6.40685 19.9992 6.52587 21.0263 7.17306C22.093 7.84498 22.0949 7.84917 21.3425 7.95479Z" fill="#34CBAA"/>
<path d="M14.4954 17.8687C13.865 18.0225 13.2842 18.0272 13.2048 17.8795C12.9288 17.3665 13.3315 17.1506 14.3258 17.2785C15.7587 17.4627 15.785 17.5544 14.4954 17.8687Z" fill="#34CBAA"/>
<path d="M11.1075 23.9511C10.8075 23.7779 10.589 23.4774 10.6219 23.2837C10.6934 22.8621 11.4318 21.9619 12.5608 20.9198C13.254 20.28 13.3335 20.2577 13.0568 20.7813C12.8759 21.1243 12.6659 21.8843 12.5906 22.47C12.4203 23.7957 11.8407 24.3744 11.1075 23.9511Z" fill="#34CBAA"/>
<path d="M21.6855 5.05956C21.866 4.91302 21.8512 4.81649 21.6486 4.82248C21.4384 4.82896 21.4354 4.68449 21.6411 4.4472C21.8326 4.22611 22.1705 4.17443 22.4331 4.32607C22.9939 4.64986 22.9359 6.00319 22.326 6.82519L21.8872 7.41684L21.6337 6.36173C21.4944 5.78151 21.5175 5.19544 21.6855 5.05956Z" fill="#34CBAA"/>
<path d="M16.034 20.1913C15.4522 20.0991 15.3317 19.5542 15.6547 18.4774C16.0363 17.2056 16.0711 17.1523 16.3261 17.4512C16.4531 17.6001 16.3862 17.9563 16.1778 18.2428C15.9247 18.5905 15.9215 18.7011 16.1678 18.5755C16.4705 18.4211 16.5478 18.4658 16.5969 18.8232C16.7163 19.6938 16.4823 20.2622 16.034 20.1913Z" fill="#34CBAA"/>
<path d="M24.4433 11.5762C24.3552 12.1322 22.4719 12.3887 22.0753 11.899C21.3481 11.0014 23.1731 10.2437 24.5248 10.8816C24.8621 11.0411 25.1802 11.0984 25.2317 11.0093C25.283 10.9203 25.1358 10.2099 24.9045 9.43073C24.4833 8.01247 24.6736 7.01296 25.2967 7.37268C25.7764 7.64968 25.9712 8.60528 25.713 9.41511C25.3063 10.6901 25.3275 10.7961 26.0798 11.2667C26.5627 11.5687 26.6391 11.6788 26.2964 11.5785C26.005 11.4932 25.5168 11.4742 25.2119 11.5363C24.9067 11.5985 24.6252 11.5304 24.5862 11.385C24.5472 11.2396 24.483 11.3257 24.4433 11.5762Z" fill="#34CBAA"/>
<path d="M30.564 0.83907C30.1822 0.39195 29.7994 -0.15327 29.7129 -0.372541C29.6269 -0.591909 29.6997 -1.01991 29.8749 -1.32342C30.3723 -2.18497 31.0784 -1.55501 31.2252 -0.118978C31.2946 0.559507 31.6593 2.17272 32.0355 3.46525C32.4119 4.75792 32.5176 5.38777 32.2707 4.86465C31.853 3.98073 31.7415 3.89716 30.6841 3.67739C29.4728 3.4258 28.8802 2.81274 29.2422 2.18573C29.4516 1.823 30.5164 2.36096 31.2799 3.21483L31.7502 3.74113L31.5042 2.69657C31.3691 2.1219 30.9459 1.28619 30.564 0.83907Z" fill="#34CBAA"/>
<path d="M20.4809 19.7742C19.6496 21.2139 18.0095 22.005 17.7632 21.085C17.5498 20.2893 19.753 18.7604 20.1229 19.4477C20.2112 19.6117 20.2789 19.6012 20.2736 19.4241C20.2683 19.2473 20.5786 19.0348 20.9628 18.9523C21.3618 18.8662 21.5952 18.9167 21.5067 19.07C21.4216 19.2174 21.2473 19.2779 21.1196 19.2041C20.9919 19.1304 20.7045 19.3868 20.4809 19.7742Z" fill="#34CBAA"/>
<path d="M25.0972 13.6555C24.3303 13.8388 22.2952 13.9995 22.118 13.8908C22.0154 13.8278 22.2984 13.7274 22.7473 13.668C23.7079 13.5407 25.6199 13.5305 25.0972 13.6555Z" fill="#34CBAA"/>
<path d="M22.4211 22.123C21.7957 21.7619 21.6479 20.791 22.002 19.3668C22.3282 18.0537 22.3984 17.9599 22.6157 18.5473C22.7225 18.8359 22.9612 19.3041 23.146 19.5879C23.6343 20.3371 23.7437 21.8304 23.3345 22.1617C23.1408 22.3186 22.7298 22.3012 22.4211 22.123Z" fill="#34CBAA"/>
<path d="M28.2491 11.716C27.8025 11.1943 27.3644 10.5711 27.2755 10.3309C27.0562 9.73853 27.5341 8.97407 27.9674 9.22426C28.1597 9.33527 28.3922 9.8377 28.4839 10.3408C28.5752 10.8438 28.7428 11.5725 28.8557 11.96C29.0575 12.6524 29.0472 12.6483 28.2491 11.716Z" fill="#34CBAA"/>
<path d="M20.1203 26.8343C19.521 27.8723 18.6269 27.2849 18.6634 25.8771C18.6749 25.4282 19.058 24.4171 19.5329 23.5827L20.3817 22.0912L20.5252 23.4757C20.6908 25.0702 20.5723 26.0515 20.1203 26.8343Z" fill="#34CBAA"/>
<path d="M33.1428 2.56511C32.4253 3.99034 32.0778 3.88478 32.2531 2.2951C32.3825 1.11953 32.7492 0.683458 33.3272 1.01717C33.7208 1.24443 33.6941 1.47084 33.1428 2.56511Z" fill="#34CBAA"/>
<path d="M28.0332 13.9928C28.0108 13.9087 27.4066 13.8054 26.6906 13.7632C25.9746 13.7211 25.5533 13.6432 25.7543 13.5899C26.338 13.4355 31.105 13.7354 31.1572 13.9297C31.1832 14.0268 30.8092 14.0542 30.3261 13.9905C29.418 13.8708 27.6184 14.3835 27.3571 14.8361C27.2753 14.9777 27.2838 15.4248 27.376 15.8297C27.6044 16.8307 27.0576 18.1741 26.3442 18.365C25.4146 18.6141 25.3434 17.7875 26.1708 16.3545C26.5946 15.6204 26.7892 15.0463 26.6427 14.9617C26.5059 14.8827 26.7719 14.6666 27.2339 14.4816C27.6961 14.2967 28.0556 14.0767 28.0332 13.9928Z" fill="#34CBAA"/>
<path d="M32.0693 6.99506C30.9404 6.61423 30.5863 6.39956 30.4417 6.00898C30.1169 5.13159 31.0369 5.03879 32.0181 5.85022C32.641 6.36527 32.8441 6.44077 32.8353 6.1536C32.8292 5.94323 33.004 6.12841 33.2242 6.56487L33.6245 7.35823L33.6385 6.60403C33.6463 6.18895 33.7199 5.78406 33.8025 5.70384C33.8848 5.62349 33.8128 5.51224 33.6422 5.45647C33.1417 5.2926 33.5721 4.42955 34.1119 4.51517C34.7623 4.61847 34.8527 5.60733 34.2993 6.56595C33.9862 7.1082 33.9642 7.55343 34.2196 8.1787L34.5724 9.04249L34.0421 8.26199C33.6033 7.61598 33.2637 7.39797 32.0693 6.99506Z" fill="#34CBAA"/>
<path d="M34.282 10.514C33.2306 10.4312 32.4914 10.1177 32.3818 9.70859C32.2796 9.32728 32.5383 9.01807 32.7032 9.32447C32.7908 9.4871 32.8822 9.40177 32.9274 9.11483C32.9941 8.69416 33.1173 8.71825 33.8695 9.29837C35.2338 10.3505 35.6532 10.169 35.2808 8.68761C34.9637 7.42577 35.2277 6.91374 35.9736 7.34439C36.6296 7.72315 36.651 8.39191 36.0404 9.44946C35.5393 10.3175 35.5288 10.5378 35.956 11.2046C36.2248 11.6239 36.4145 12.0193 36.3777 12.0831C36.3408 12.147 36.079 11.8379 35.7959 11.3961C35.3219 10.6565 35.2016 10.5864 34.282 10.514Z" fill="#34CBAA"/>
<path d="M31.1851 18.8915C29.7909 19.7871 28.2159 19.8024 27.98 18.9227C27.8712 18.5159 28.4596 18.0143 28.7433 18.2722C28.8844 18.4005 28.9959 18.3571 28.9903 18.1758C28.9847 17.9865 29.6657 17.9106 30.5874 17.9978C31.4711 18.0813 32.4037 18.0723 32.6594 17.9775C33.0523 17.8322 33.2244 18.021 33.7684 19.194C34.53 20.8367 34.4195 21.6191 33.5004 21.0884C33.0032 20.8014 32.9134 20.5133 33.0314 19.5823C33.1923 18.3121 32.9904 17.9952 32.4007 18.5923C32.1876 18.808 31.9569 18.8798 31.8882 18.7522C31.8197 18.6247 31.5033 18.6873 31.1851 18.8915Z" fill="#34CBAA"/>
<path d="M36.7038 15.1925C35.6974 14.9111 34.9502 14.7454 31.9409 14.1366C31.6267 14.0728 31.7403 14.023 32.2034 14.021C33.1486 14.0174 37.7549 15.1095 37.82 15.3529C37.8441 15.443 37.3418 15.3707 36.7038 15.1925Z" fill="#34CBAA"/>
<path d="M28.9798 22.7514C28.4246 23.713 27.8246 24.0042 27.1732 23.6281C26.4278 23.1977 27.264 22.3472 28.8237 21.9491C29.6226 21.7453 30.2038 21.704 30.115 21.8577C30.0263 22.0115 29.8493 22.0768 29.7215 22.003C29.5938 21.9293 29.26 22.2661 28.9798 22.7514Z" fill="#34CBAA"/>
<path d="M33.766 16.6747C32.9687 16.7606 32.0093 16.3779 31.8884 15.926C31.7624 15.4563 32.2902 14.8805 32.7945 14.9375C33.0744 14.9691 33.9436 15.2764 34.7262 15.6209C36.1659 16.2539 36.3234 16.6188 35.1486 16.5995C34.8233 16.594 34.2011 16.628 33.766 16.6747Z" fill="#34CBAA"/>
<path d="M36.1028 13.7627C34.9342 13.5224 34.6123 13.3673 34.4673 12.9754C34.0597 11.8741 34.7503 11.7108 36.0262 12.6066C36.3396 12.8265 36.5383 12.8385 36.5322 12.6371C36.5187 12.1837 36.8118 12.4075 37.2775 13.2061C37.7479 14.0131 37.96 14.1692 38.1463 13.8464C38.2239 13.712 38.0353 13.3099 37.727 12.9526C37.1511 12.2848 37.036 11.4792 37.4213 10.8118C37.5809 10.5354 37.8014 10.5525 38.2362 10.8751C38.6468 11.1793 38.7498 11.4373 38.5675 11.7027C38.4218 11.9149 38.4169 12.0848 38.5565 12.0806C38.6963 12.0765 38.7215 12.5016 38.613 13.0253C38.4827 13.6521 38.5838 14.1795 38.9082 14.568C39.3724 15.1234 39.347 15.1261 38.4795 14.6101C37.9725 14.3084 36.903 13.9271 36.1028 13.7627Z" fill="#34CBAA"/>
<path d="M43.3328 0.933207C43.0985 0.896076 42.8713 0.484069 42.7957 -0.0413786C42.6464 -1.07906 43.2443 -2.32814 43.8448 -2.23287C44.3954 -2.14564 44.9973 -1.12008 44.6174 -0.915824C44.4376 -0.818974 44.4547 -0.755238 44.6588 -0.761249C45.0964 -0.774267 45.0667 0.0027883 44.5796 1.32111C44.3719 1.88242 44.1407 2.58491 44.0654 2.88205C43.9519 3.33019 43.8727 3.23677 43.6018 2.33475C43.4223 1.73663 43.3793 1.19104 43.5069 1.12229C43.6347 1.05391 43.5563 0.968725 43.3328 0.933207Z" fill="#34CBAA"/>
<path d="M32.4171 24.5297C31.816 24.8533 30.9132 23.8943 30.5809 22.5788C30.1721 20.9615 30.2221 20.677 30.7747 21.4741C30.9991 21.7975 31.1048 22.1041 31.01 22.1552C30.9149 22.2062 31.1411 22.3539 31.5124 22.4831C32.0204 22.6596 32.0982 22.7658 31.8268 22.912C31.5825 23.0434 31.5896 23.1023 31.8498 23.0946C32.2892 23.0811 32.7839 24.3325 32.4171 24.5297Z" fill="#34CBAA"/>
<path d="M42.3161 5.98648C41.6218 5.5104 40.9692 4.89144 40.8655 4.61083C40.6117 3.92524 41.1105 3.05765 41.4893 3.52561C41.6502 3.72413 41.7659 3.73887 41.7605 3.56051C41.7474 3.12351 41.9566 3.29164 42.5197 4.17036C42.8015 4.60955 42.8758 4.99832 42.697 5.09451C42.5169 5.19146 42.5309 5.25621 42.7303 5.25028C42.9184 5.24463 43.0765 5.37521 43.0815 5.54034C43.0863 5.7057 43.3205 6.18828 43.6016 6.61313C44.1016 7.36936 44.1159 7.37299 44.2664 6.78459C44.7384 4.93797 45.2441 4.10286 46.0144 3.89646C47.7961 3.41906 47.6124 5.23553 45.7411 6.60027C45.0742 7.08656 44.4155 7.65901 44.2771 7.87258C44.0445 8.23092 44.0081 8.20651 43.8017 7.55632C43.658 7.10428 43.1264 6.54221 42.3161 5.98648Z" fill="#34CBAA"/>
<path d="M30.2806 27.4703C29.6414 28.5773 28.3816 27.6725 28.7205 26.3498C28.8119 25.9929 29.0474 25.3991 29.2436 25.0296L29.6004 24.3581L30.1045 25.6301C30.4465 26.4932 30.5031 27.0848 30.2806 27.4703Z" fill="#34CBAA"/>
<path d="M36.4124 19.5312C36.1385 20.0057 35.3115 19.4607 35.3088 18.804C35.3075 18.5054 35.3653 18.1554 35.437 18.0265C35.6779 17.5925 36.4493 16.908 36.5944 16.9995C36.7942 17.1254 36.651 19.1179 36.4124 19.5312Z" fill="#34CBAA"/>
<path d="M37.7238 16.0987C37.353 16.3693 36.9974 16.4934 36.9334 16.3747C36.7417 16.0182 38.5858 15.3548 39.0401 15.6171C39.2716 15.7507 39.5212 15.7555 39.5949 15.6278C39.6736 15.4915 40.4165 15.8098 41.3944 16.3992C42.3104 16.9513 42.7769 17.2894 42.4312 17.1508C38.7388 15.6701 38.4113 15.5971 37.7238 16.0987Z" fill="#34CBAA"/>
<path d="M44.486 12.4414C44.0876 12.4535 40.7823 10.5294 40.5912 10.1744C40.4955 9.9969 40.6097 9.59253 40.8447 9.27614C41.1957 8.80344 41.4134 8.76474 42.0611 9.05975C42.4951 9.25735 43.2128 9.91541 43.6557 10.5222C44.0989 11.1292 44.5222 11.6606 44.5963 11.7034C44.6706 11.7463 44.5525 11.0161 44.3339 10.0812C44.059 8.90503 44.136 9.06343 44.5839 10.5949C44.9401 11.8125 45.3447 12.7786 45.4829 12.7414C45.6212 12.7045 45.8467 12.1993 45.9841 11.6191C46.3266 10.1731 46.8652 9.31325 47.3777 9.3946C48.5462 9.5797 47.8565 11.879 46.4141 12.6065C46.0273 12.8018 45.6821 13.1419 45.6471 13.3622C45.5929 13.7044 45.5214 13.6658 45.159 13.0987C44.9254 12.7331 44.6226 12.4376 44.486 12.4414Z" fill="#34CBAA"/>
<path d="M38.6955 25.9831C37.0835 26.3275 35.9546 26.3055 35.6451 25.9234C35.2384 25.4211 36.1133 24.2854 36.632 24.6419C36.8442 24.7876 37.0139 24.7812 37.0092 24.6274C37.0047 24.4737 37.5208 24.6481 38.1564 25.0151C39.1438 25.5852 39.4362 25.6301 40.1681 25.3251L41.0245 24.968L40.4014 25.4353C39.8723 25.8321 39.7929 26.0544 39.8745 26.9093C39.9273 27.4631 39.8254 27.9941 39.6482 28.0897C39.4457 28.1985 39.4635 28.2589 39.696 28.252C40.1838 28.2373 39.9413 30.3359 39.4402 30.4702C38.5021 30.7215 38.3352 28.5497 39.1795 27.0765C39.3078 26.8527 39.3115 26.6109 39.1877 26.5394C39.0641 26.4681 39.1336 26.2642 39.3422 26.0868C39.6169 25.8528 39.4387 25.8242 38.6955 25.9831Z" fill="#34CBAA"/>
<path d="M35.3534 30.9298C34.9691 30.9454 34.7727 30.8104 34.6334 30.4339C34.3324 29.6204 35.0272 28.7494 36.5233 28.0646L37.8993 27.4351L36.8904 29.1717C36.0977 30.5362 35.7685 30.9128 35.3534 30.9298Z" fill="#34CBAA"/>
<path d="M46.2224 17.422C44.6983 17.2168 43.7146 16.813 43.1996 16.1812C42.6856 15.5507 42.8929 14.8226 43.6438 14.6214C44.1834 14.4768 45.5359 15.2276 45.9571 15.9059C46.1487 16.2143 46.3169 16.3198 46.3967 16.1817C46.4679 16.0583 46.8481 16.498 47.2421 17.1586C47.636 17.8192 48.0273 18.3412 48.1119 18.3185C48.1967 18.296 48.1784 17.7469 48.0714 17.0984C47.8453 15.7293 47.8872 14.1363 48.1619 13.6605C48.2672 13.4782 48.593 13.2882 48.8857 13.238C49.7279 13.0944 49.8061 14.0181 49.1001 15.7698C48.3572 17.6126 48.319 18.2408 48.87 19.5603C49.1969 20.3429 49.6266 20.7926 50.7491 21.527C51.5497 22.0506 50.1674 21.3017 47.6774 19.8626C43.9173 17.6895 43.6312 17.4953 45.9895 18.7156C49.001 20.2741 49.2199 20.2376 47.8187 18.4112C47.2524 17.6733 47.0205 17.5295 46.2224 17.422Z" fill="#34CBAA"/>
<path d="M41.3424 23.7148C40.5194 23.6472 39.7743 23.4276 39.5562 23.1886C39.1239 22.7152 39.4491 21.9753 40.142 21.857C40.4027 21.8125 41.3676 22.2005 42.2857 22.7191C43.6371 23.4826 44.1312 23.635 44.879 23.5196C46.3438 23.294 46.884 23.3155 45.7137 23.5529C44.6977 23.759 44.5989 23.854 43.6002 25.5838C42.642 27.2435 42.5128 27.3755 42.0881 27.1303C41.479 26.7786 42.0806 25.3783 43.0514 24.8886C44.1996 24.3096 44.1306 23.961 42.9196 24.2239C42.1044 24.4007 41.9999 24.3886 42.5568 24.1819C42.9868 24.0221 43.2073 23.8779 43.0466 23.8612C42.8859 23.8446 42.1189 23.7786 41.3424 23.7148Z" fill="#34CBAA"/>
<path d="M46.2637 15.6076L45.9966 14.8635C45.8496 14.4542 45.7503 14.0835 45.7757 14.0394C45.883 13.8536 45.9907 14.0988 46.1229 14.8297L46.2637 15.6076Z" fill="#34CBAA"/>
<path d="M45.4355 21.6237C45.2033 21.6305 45.0277 21.452 45.0152 21.1964C44.9505 19.8546 46.5335 20.1444 47.7124 21.6904C48.0732 22.1638 48.5501 22.6559 48.7722 22.7841C49.0752 22.959 49.0673 23.1433 48.7405 23.5216C48.3953 23.9211 48.2757 23.9325 48.1651 23.5764C48.0881 23.3291 48.1178 23.076 48.2312 23.0136C48.5221 22.8536 48.3729 22.8009 47.1994 22.6501C45.9496 22.4896 45.0561 22.0304 45.5139 21.7838C45.7226 21.6718 45.6952 21.6157 45.4355 21.6237Z" fill="#34CBAA"/>
<path d="M43.1642 34.7176C41.7708 35.0539 40.6891 34.852 40.5211 34.2243C40.3862 33.7216 40.9564 33.1529 41.6569 33.0916C42.0554 33.0566 42.7831 33.2597 43.2741 33.5432C43.765 33.8266 44.4006 34.066 44.6867 34.0751C45.1138 34.0888 45.2346 34.4958 45.3627 36.3548C45.5322 38.8108 45.2922 39.6624 44.5507 39.2343C43.9636 38.8954 43.9038 37.7753 44.3796 36.0265C44.5866 35.2664 44.7381 34.5786 44.7166 34.4983C44.6951 34.4181 43.9964 34.5166 43.1642 34.7176Z" fill="#34CBAA"/>
<path d="M46.0115 27.1045C45.5745 27.1739 45.1568 27.1185 45.0831 26.9818C44.8302 26.5119 45.8206 25.2588 46.9117 24.6678C47.8789 24.1441 47.9943 24.1398 47.9195 24.6304C47.7401 25.8056 46.8395 26.9735 46.0115 27.1045Z" fill="#34CBAA"/>
<path d="M40.1117 40.0728C39.9511 39.9825 39.7311 39.579 39.6231 39.1761C39.5151 38.7732 39.5192 38.2835 39.6322 38.0877C39.965 37.5113 41.2949 36.6536 42.4456 36.2733L43.516 35.9193L42.3463 38.0617C41.1832 40.192 40.8535 40.489 40.1117 40.0728Z" fill="#34CBAA"/>
<path d="M54.038 18.3785C53.5213 17.8796 52.9725 17.0636 52.8185 16.5651C52.4894 15.501 52.9179 14.8467 53.7299 15.1731C54.1307 15.3342 54.4237 15.8527 54.7033 16.8962C55.1534 18.5757 55.216 18.6775 55.3888 18.0119C55.456 17.7528 55.4749 17.9619 55.4309 18.4768C55.3051 19.9421 55.5843 20.1113 56.2434 18.9697C56.9876 17.6806 57.8985 17.2089 58.1791 17.967C58.4288 18.6415 57.6869 19.4523 56.4798 19.8243C55.9857 19.9765 55.6115 20.2336 55.6483 20.3951C55.6851 20.5566 55.5492 20.3732 55.3463 19.9872C55.1433 19.6013 54.5548 18.8773 54.038 18.3785Z" fill="#34CBAA"/>
<path d="M55.6294 11.6782C55.8098 11.5319 55.8152 11.4202 55.6415 11.4255C55.4686 11.4306 55.4762 11.1814 55.6587 10.8654C55.8395 10.5521 56.1787 10.3262 56.4124 10.3632C56.9364 10.4462 57.0307 11.555 56.6178 12.7759C56.4516 13.2664 56.3744 13.886 56.4459 14.1527C56.5537 14.5552 56.6825 14.5509 57.2025 14.1272C58.4636 13.0991 60.0026 13.1262 59.8364 14.1734C59.7575 14.6716 57.9853 15.2913 57.1589 15.1096C56.8734 15.0469 56.4183 15.169 56.1476 15.3809C55.6773 15.7488 55.6701 15.7387 55.9867 15.1577C56.2146 14.7399 56.1598 14.1414 55.8119 13.2451C55.4967 12.433 55.4277 11.8414 55.6294 11.6782Z" fill="#34CBAA"/>
<path d="M48.3652 31.7163C48.357 32.256 45.3884 32.0735 44.7928 31.4968C44.4215 31.1369 44.3882 30.8959 44.6617 30.5482C45.2206 29.8376 46.3385 30.0218 48.0505 31.1067C48.8825 31.6339 49.5484 32.0122 49.5305 31.9476C49.4939 31.8147 51.9328 31.27 53.3931 31.0848C54.5258 30.9411 54.4308 30.8331 53.0124 30.6507C51.5383 30.4613 50.4206 29.7581 50.444 29.0354C50.4793 27.9349 51.0954 27.7725 52.2155 28.5688C52.7721 28.9647 53.4853 29.6289 53.8007 30.0447C54.3393 30.7557 54.4827 30.8039 56.1681 30.8391C57.155 30.8599 58.053 30.9306 58.1635 30.9966C58.2742 31.0623 57.5361 31.1034 56.5233 31.0878L54.6821 31.0592L53.736 32.8876C52.7834 34.7292 52.1787 35.2783 51.5208 34.8985C51.354 34.8022 51.1498 34.4706 51.0669 34.1615C50.8842 33.4794 51.5714 32.8377 53.0649 32.2964C54.6507 31.7217 54.1673 31.1447 52.3501 31.4434C50.4494 31.7558 49.5175 32.425 49.2854 33.6444C48.9094 35.6192 47.667 36.5439 47.2885 35.1311C47.1279 34.5318 47.6736 33.8028 49.0793 32.7383C49.4282 32.4741 49.4295 32.3854 49.0853 32.3306C48.8432 32.2924 48.5834 32.0619 48.5076 31.8187C48.4207 31.5391 48.3684 31.5015 48.3652 31.7163Z" fill="#34CBAA"/>
<path d="M52.6143 25.9312C51.176 26.8499 50.0573 26.8499 50.0193 25.9307C49.9815 25.019 51.022 24.1124 51.3682 24.7554C51.4838 24.9707 51.5533 24.9796 51.5474 24.779C51.5341 24.3372 52.1902 24.2556 53.327 24.5573C53.8437 24.6947 54.3113 24.663 54.3662 24.487C54.4403 24.2492 54.788 24.4042 55.7209 25.0902L56.9759 26.0135L56.675 25.1939C56.423 24.5075 56.1547 24.2749 55.0241 23.763C53.3651 23.0117 52.7129 22.1351 53.1937 21.3023C53.649 20.5137 54.5981 20.9239 55.1268 22.1382C55.4581 22.8992 55.5439 22.9769 55.6077 22.5741C55.654 22.2816 55.883 22.6438 56.1752 23.4721C56.4447 24.2355 56.7133 24.8472 56.7725 24.8316C56.8314 24.8158 56.9163 24.134 56.9612 23.3168C57.0568 21.574 57.6198 20.6159 58.313 21.0161C58.722 21.2522 58.6793 21.4871 57.9581 22.9786C57.5076 23.9106 57.1365 24.9668 57.1337 25.3262C57.131 25.6854 57.06 25.9977 56.9759 26.02C56.8919 26.0427 56.9949 26.1743 57.205 26.3129C57.4147 26.4517 57.8632 26.8701 58.2014 27.2428C58.6001 27.6823 58.863 27.8399 58.949 27.6908C59.022 27.5645 59.1593 27.6054 59.2543 27.7816C59.3571 27.9729 59.4225 27.9642 59.4162 27.7602C59.4013 27.263 60.0053 27.3232 60.5756 27.8757C60.8729 28.1637 60.9449 28.4202 60.7563 28.5216C60.5601 28.6272 60.5865 28.6855 60.8278 28.6783C61.0433 28.6718 61.3053 28.9587 61.4261 29.3334C61.5442 29.7001 61.6923 29.9113 61.755 29.8026C61.8178 29.6939 62.0415 30.1844 62.2522 30.8931C62.6147 32.1127 62.6444 32.1454 62.8099 31.508C63.2123 29.9578 63.7331 28.9373 64.2123 28.76C64.8416 28.527 65.6387 28.9751 65.3829 29.4182C65.1023 29.9043 63.999 30.6498 63.8821 30.4324C63.8277 30.3314 63.5907 30.7166 63.3556 31.289L62.9281 32.3293L64.7543 35.0971C65.7588 36.6196 66.7806 38.3137 67.025 38.8623C67.3883 39.6777 67.5404 39.8219 67.8604 39.6543C68.1801 39.4867 68.2128 39.518 68.0394 39.8254C67.9223 40.0324 68.2513 41.2243 68.7703 42.4743C69.7478 44.8276 70.7442 48.5029 70.9053 50.3476C71.0601 52.1195 70.5752 51.2797 70.312 49.3201C70.1767 48.3119 69.9029 47.3085 69.704 47.0905C69.505 46.8726 69.4171 46.5642 69.5087 46.4056C69.8772 45.7672 67.1458 39.3218 65.3263 36.5365C64.9113 35.9015 64.1813 34.9719 63.7042 34.471C63.227 33.9701 62.8087 33.3673 62.7749 33.131C62.696 32.5833 60.7018 30.2909 59.9022 29.8293C59.5674 29.6359 59.1567 29.1846 58.9897 28.8259C58.8226 28.4675 57.8462 27.4096 56.8198 26.4754C54.6778 24.5254 54.7919 24.5402 52.6143 25.9312Z" fill="#34CBAA"/>
<path d="M45.9962 33.7054C45.8056 33.8597 45.6086 33.9621 45.5585 33.9332C45.3704 33.8246 45.7316 33.443 46.0311 33.4342C46.2095 33.4288 46.1947 33.5444 45.9962 33.7054Z" fill="#34CBAA"/>
<path d="M59.7138 11.2952C58.9678 11.6321 58.3232 11.8879 58.2809 11.8635C58.2389 11.8392 58.569 11.1876 59.0148 10.4154C59.7071 9.21621 59.9631 8.97448 60.7693 8.75845C62.7613 8.22471 61.893 10.3104 59.7138 11.2952Z" fill="#34CBAA"/>
<path d="M47.6971 32.7683C47.3928 32.8905 47.1042 32.9678 47.0561 32.94C46.865 32.8297 47.0979 32.71 47.66 32.6298C48.195 32.5538 48.1984 32.5666 47.6971 32.7683Z" fill="#34CBAA"/>
<path d="M53.4795 23.9537C53.0919 23.7299 52.7405 23.4227 52.6985 23.2706C52.6564 23.1184 52.9258 23.1237 53.2971 23.2823C53.6685 23.4408 54.0198 23.7483 54.078 23.9655C54.1537 24.2479 53.9832 24.2445 53.4795 23.9537Z" fill="#34CBAA"/>
<path d="M55.7631 21.4791C55.8391 22.0141 55.8263 22.0175 55.6246 21.5162C55.5022 21.2118 55.4251 20.9233 55.4529 20.8752C55.5632 20.6841 55.6829 20.917 55.7631 21.4791Z" fill="#34CBAA"/>
<path d="M44.1704 47.146C44.0883 47.664 42.7683 47.9265 42.4181 47.4942C42.2654 47.3055 42.2966 46.8804 42.4876 46.5494C42.6786 46.2188 42.8944 46.0588 42.9674 46.1942C43.0402 46.3297 43.1894 46.2521 43.2991 46.0219C43.4316 45.7435 44.1038 45.6235 45.3076 45.6637C46.3028 45.697 47.3034 45.5759 47.5314 45.3945C47.9042 45.0979 47.9187 45.1152 47.6768 45.5685C47.5287 45.8453 47.4889 46.2908 47.5879 46.5585C47.6869 46.8262 47.6379 47.1149 47.4789 47.2006C47.3202 47.2861 47.3393 47.3516 47.522 47.3462C47.9648 47.3328 48.4178 49.6856 48.0837 50.2643C47.8957 50.5898 47.6621 50.6293 47.268 50.4018C46.6238 50.0298 46.3978 49.1621 46.8777 48.9035C47.0842 48.7927 47.0768 48.7287 46.8585 48.7352C46.6414 48.7417 46.5959 48.4077 46.7397 47.8631C46.8679 47.3776 46.8327 46.9361 46.6618 46.8824C46.431 46.8098 46.4836 46.7021 46.865 46.465C47.2895 46.2013 47.302 46.133 46.9357 46.0751C46.6912 46.0361 46.0469 46.293 45.5034 46.6455C44.96 46.9978 44.4518 47.1676 44.3736 47.0224C44.2957 46.8774 44.2042 46.933 44.1704 47.146Z" fill="#34CBAA"/>
<path d="M48.7903 43.2011C47.2208 43.4762 46.2931 43.3116 46.1375 42.7306C45.8776 41.7616 47.8869 41.3921 50.306 41.9639C51.6904 42.2913 52.5406 42.2899 53.9355 41.9579C54.9373 41.7195 55.2135 41.6981 54.549 41.9105C52.798 42.4704 52.1651 43.0636 52.007 44.2932C51.8633 45.4119 51.3898 46.4096 51.1841 46.0273C51.1113 45.8918 50.9634 45.9671 50.8555 46.1943C50.5612 46.814 49.7809 46.4198 49.8054 45.6642C49.8218 45.1519 50.0477 44.8111 50.8441 44.0968C52.0716 42.996 52.1704 42.8474 51.6217 42.9295C51.3889 42.9644 51.0319 42.8571 50.8287 42.6914C50.6255 42.5258 50.4627 42.5065 50.4669 42.6482C50.4712 42.79 49.7169 43.0388 48.7903 43.2011Z" fill="#34CBAA"/>
<path d="M44.1651 52.673C43.6158 53.3751 42.7068 52.9748 42.6162 51.9911C42.5412 51.1778 43.2243 50.1624 44.6802 48.9229L45.4496 48.2682L45.212 49.0599C45.0816 49.4955 44.8819 50.3723 44.7684 51.0087C44.6553 51.645 44.3838 52.394 44.1651 52.673Z" fill="#34CBAA"/>
<path d="M61.1116 25.7406C60.6258 25.1523 60.0342 24.2222 59.7974 23.674C59.3397 22.6139 59.4296 22.1695 60.1414 21.9788C60.8271 21.7951 61.1359 22.1038 61.5816 23.4197C61.8572 24.2331 61.8757 24.7593 61.6374 25.0004C61.4409 25.1993 61.4089 25.3583 61.5659 25.3533C61.7231 25.3487 61.7877 25.4556 61.7097 25.5908C61.6316 25.7259 61.6798 25.8667 61.8169 25.9032C61.9543 25.9398 62.1023 26.2692 62.1464 26.6353L62.2263 27.3007L62.6614 26.9326C64.2202 25.6144 64.5964 25.4179 65.056 25.6833C65.915 26.1792 65.4986 26.8838 64.2171 27.1025C63.5716 27.2129 62.7821 27.3516 62.463 27.411C62.0146 27.4942 61.8956 27.4386 61.939 27.1645C61.9698 26.9696 61.5976 26.3286 61.1116 25.7406Z" fill="#34CBAA"/>
<path d="M63.8726 22.0022C63.7133 22.0071 63.3722 21.3457 63.1148 20.5323C62.6303 19.0027 62.8823 18.1806 63.7442 18.479C64.421 18.7134 64.575 19.3944 64.195 20.4745C64.0102 21.0001 63.9272 21.5568 64.0107 21.7119C64.0996 21.8771 64.0426 21.9972 63.8726 22.0022Z" fill="#34CBAA"/>
<path d="M57.4198 34.6986C56.6525 34.9801 55.9775 34.496 56.085 33.7406C56.1355 33.3867 56.1822 33.0719 56.1891 33.0412C56.1962 33.0106 56.4749 32.7907 56.8092 32.5524C57.3421 32.172 58.438 32.1322 60.3977 32.4218C60.8854 32.494 60.8637 32.4147 60.2488 31.8751C59.6338 31.3352 59.734 31.3558 60.9404 32.018L62.3512 32.7923L61.3134 32.7347C60.5364 32.6914 59.9848 32.9057 59.1174 33.5887C58.4802 34.09 57.7162 34.5895 57.4198 34.6986Z" fill="#34CBAA"/>
<path d="M55.7527 40.9942C54.4187 40.899 53.1653 40.3884 53.0306 39.8855C52.884 39.3386 53.6777 38.7635 54.4916 38.8269C55.1941 38.8817 55.5505 39.0813 56.5471 39.9781C57.4723 40.8104 57.9362 41.085 58.539 41.1575C59.2576 41.2439 59.2705 41.2596 58.6879 41.3419C58.1735 41.4146 57.8561 41.7584 57.0352 43.132C55.8836 45.059 55.2196 45.4776 54.3454 44.8277C53.4477 44.1602 53.9766 43.4243 55.8116 42.7881C57.2588 42.2861 57.3939 42.1808 57.255 41.6625C57.1164 41.1443 56.9755 41.0815 55.7527 40.9942Z" fill="#34CBAA"/>
<path d="M59.0836 31.3126C59.2259 31.4935 59.1391 31.5168 58.8622 31.3718C58.6116 31.2404 58.5063 31.1065 58.6279 31.0739C58.7495 31.0413 58.9547 31.1487 59.0836 31.3126Z" fill="#34CBAA"/>
<path d="M65.2008 23.1242C64.3238 23.0296 63.4725 23.0577 63.3092 23.186C63.1198 23.3349 63.0924 23.2649 63.2341 22.9928C63.4744 22.5309 63.8171 22.3627 65.6716 21.7977C67.038 21.3815 68.0567 21.8374 67.5853 22.6539C67.4335 22.9168 67.1996 23.0136 67.0466 22.877C66.8975 22.7442 66.7803 22.7842 66.7857 22.9657C66.7915 23.1557 66.1192 23.2228 65.2008 23.1242Z" fill="#34CBAA"/>
<path d="M65.9745 20.081L66.2797 19.2209C67.1503 16.7668 68.3078 15.485 69.1923 15.9957C70.6957 16.8637 69.6864 18.4552 66.8427 19.7007L65.9745 20.081Z" fill="#34CBAA"/>
<path d="M56.5383 41.5883C56.234 41.7105 55.9454 41.7878 55.8973 41.7601C55.7062 41.6497 55.9391 41.53 56.5012 41.4499C57.0362 41.3739 57.0396 41.3867 56.5383 41.5883Z" fill="#34CBAA"/>
<path d="M61.2947 40.7204C60.4451 40.3476 59.7742 39.9008 59.5696 39.5718C58.9343 38.5485 60.4926 37.9109 61.7935 38.662C62.6746 39.1707 63.5183 40.2492 63.1783 40.4322C63.0496 40.5012 63.131 40.5876 63.3591 40.6236C63.5871 40.6599 63.9838 41.0112 64.2404 41.4043C64.4971 41.7974 65.078 42.4421 65.5312 42.8369C66.2747 43.4847 66.2899 43.5366 65.6888 43.3685C65.2967 43.2592 64.4663 43.4618 63.6734 43.8608C62.9316 44.2339 62.0142 44.6393 61.6345 44.7616C60.8095 45.0274 59.6433 44.4365 59.7437 43.8037C59.8302 43.257 60.7712 42.6305 60.965 42.9904C61.0421 43.1337 61.1337 43.0704 61.1687 42.85C61.2384 42.4101 62.5979 42.4333 64.0214 42.8987C64.4854 43.0502 64.9802 43.1123 65.1212 43.0365C65.5122 42.8259 64.1902 42.158 62.6908 41.8085C61.0338 41.4222 60.9184 41.3534 61.9053 41.3408C62.6403 41.3313 62.6054 41.2957 61.2947 40.7204Z" fill="#34CBAA"/>
<path d="M70.0983 31.5109C69.9392 31.5156 69.5606 30.697 69.2568 29.6915C68.8404 28.3125 68.8019 27.7395 69.1003 27.3584C69.3892 26.9893 69.6778 26.932 70.1708 27.1457C70.7103 27.3795 70.8507 27.6473 70.871 28.4789C70.8848 29.0513 70.7644 29.8953 70.6038 30.3543C70.443 30.8135 70.4376 31.1853 70.592 31.1807C70.7461 31.1761 70.7216 31.4335 70.5373 31.7528C69.9464 32.7763 70.4423 32.8719 71.8406 32.0047C73.3396 31.0746 74.3286 31.2049 73.8974 32.2757C73.5879 33.0441 72.9857 33.2343 71.2815 33.1024L69.8644 32.9927L69.9848 32.4213C70.0509 32.1068 70.1687 31.7713 70.2463 31.6759C70.3242 31.5803 70.2574 31.5061 70.0983 31.5109Z" fill="#34CBAA"/>
<path d="M67.512 35.8805C67.1258 35.3894 66.7276 34.527 66.6276 33.9639C66.5274 33.4011 66.4971 32.8513 66.5599 32.7426C66.6977 32.5039 67.7592 32.1981 67.9893 32.3309C68.4136 32.5759 68.7549 33.8102 68.4635 34.0463C68.2857 34.1902 68.2701 34.3041 68.429 34.2992C68.5879 34.2947 68.6627 34.5416 68.5953 34.8482C68.5279 35.1549 68.5834 35.4024 68.7186 35.3984C68.8535 35.3943 68.8529 35.8608 68.7169 36.4353C68.4133 37.7168 68.219 38.0635 68.2166 37.3277C68.2154 37.0229 67.8984 36.3718 67.512 35.8805Z" fill="#34CBAA"/>
<path d="M73.6499 27.0888C73.2509 27.4121 73.2536 27.4186 72.8961 25.3037C72.626 23.7051 72.7165 23.3205 73.407 23.1355C74.4026 22.8687 74.6375 23.8927 73.961 25.5531C73.6785 26.2461 73.5742 26.8092 73.7294 26.8047C73.8844 26.8 73.8484 26.9279 73.6499 27.0888Z" fill="#34CBAA"/>
<path d="M73.9385 28.3345C73.7511 28.2263 73.3387 28.2071 73.0219 28.2918C72.5343 28.4226 72.4764 28.3942 72.6428 28.106C72.7507 27.9191 73.0305 27.7964 73.2646 27.8334C73.4986 27.8706 73.7676 27.7671 73.8622 27.6034C74.095 27.2012 75.6087 26.6988 76.4919 26.7307C77.4161 26.7642 77.7389 27.6284 77.0591 28.249C76.6178 28.6519 74.5848 28.7077 73.9385 28.3345Z" fill="#34CBAA"/>
<path d="M68.312 38.7873C68.0086 39.2769 67.9972 39.2737 68.0625 38.7207C68.1002 38.4018 68.1388 38.1107 68.1483 38.0735C68.1579 38.0363 68.27 38.0664 68.3977 38.1401C68.5255 38.2138 68.4867 38.5051 68.312 38.7873Z" fill="#34CBAA"/>
<path d="M77.2895 24.0317C77.2956 24.2334 76.9602 24.5349 76.5443 24.7013L75.7878 25.0039L76.804 23.1172C77.481 21.8599 77.8715 21.3268 77.9748 21.5189C78.0642 21.6848 78.1566 21.6394 78.1926 21.4125C78.2717 20.9135 79.2244 20.7344 79.5645 21.1546C79.7056 21.3286 79.7101 21.8201 79.5747 22.2467C79.2729 23.1973 77.7162 24.4784 77.4541 23.9911C77.3436 23.7861 77.2826 23.8011 77.2895 24.0317Z" fill="#34CBAA"/>
<path d="M70.8795 36.7172C70.8851 36.9053 70.3833 37.2989 69.764 37.5917L68.6382 38.1241L69.5366 36.9398C70.7152 35.386 71.5199 34.8582 72.2576 35.155C72.7254 35.3434 72.7761 35.4605 72.4899 35.6923C72.2759 35.8657 72.2532 35.9848 72.4353 35.9794C72.9039 35.9653 72.6076 36.3191 71.8583 36.6683C71.4927 36.8387 71.1207 36.8422 71.0315 36.6765C70.9382 36.5034 70.8738 36.5207 70.8795 36.7172Z" fill="#34CBAA"/>
<path d="M67.4527 44.2014C67.5753 44.358 67.4142 44.3352 67.0948 44.1509C66.7755 43.9665 66.6755 43.8384 66.8721 43.8662C67.0692 43.8939 67.3304 44.0447 67.4527 44.2014Z" fill="#34CBAA"/>
<path d="M68.6813 45.4253C69.5719 46.4238 69.3096 46.4941 68.3882 45.5039C67.9995 45.0862 67.7528 44.7252 67.8399 44.7021C67.9271 44.6787 68.3055 45.0041 68.6813 45.4253Z" fill="#34CBAA"/>
</svg>
