<svg xmlns="http://www.w3.org/2000/svg" width="18" height="21" viewBox="0 0 18 21" fill="none">
<path d="M8.4103 8.94769C10.133 10.6704 10.3132 13.3515 8.95099 15.2747L8.80957 15.4644L13.0277 19.6835L13.1025 19.7702C13.3272 20.0731 13.3023 20.5026 13.0277 20.7772C12.7532 21.0517 12.3235 21.0767 12.0207 20.8521L11.934 20.7772L7.67677 16.52C5.76097 17.8118 3.13804 17.6101 1.44298 15.915C-0.480993 13.9911 -0.480993 10.8717 1.44298 8.94769C3.36695 7.02376 6.48633 7.02376 8.4103 8.94769ZM10.1307 0C10.7273 0 11.2996 0.236932 11.7216 0.658707L14.534 3.46961L17.3421 6.28199C17.7634 6.70392 18 7.2758 18 7.87206V17.7532C18 18.996 16.9925 20.0036 15.7496 20.0036L14.24 20.0042C14.2026 19.7111 14.0917 19.4249 13.9058 19.1743L13.7848 19.03L13.258 18.5023L15.7496 18.5033C16.1639 18.5033 16.4997 18.1674 16.4997 17.7532L16.4989 8.00442L12.2522 8.00532C11.0611 8.00532 10.0862 7.07999 10.007 5.90899L10.0018 5.75491V1.50027H4.25076C3.83647 1.50027 3.50062 1.83612 3.50062 2.2504L3.50029 6.67236C2.98132 6.79549 2.47573 6.98942 1.99892 7.25417L2.00036 2.2504C2.00036 1.00754 3.0079 0 4.25076 0H10.1307ZM2.53667 10.0414C1.21674 11.3613 1.21674 13.5014 2.53667 14.8213C3.85662 16.1413 5.99666 16.1413 7.3166 14.8213C8.63654 13.5014 8.63654 11.3613 7.3166 10.0414C5.99666 8.72145 3.85662 8.72145 2.53667 10.0414ZM11.502 2.56045V5.75491C11.502 6.13468 11.7843 6.44852 12.1504 6.49819L12.2522 6.50505L15.4437 6.50416L11.502 2.56045Z" fill="#2196F3"/>
</svg>