<svg xmlns="http://www.w3.org/2000/svg" width="20" height="20" viewBox="0 0 20 20" fill="none">
  <path fill-rule="evenodd" clip-rule="evenodd" d="M4.1338 1.66705H15.9505V1.67538C16.9463 1.65805 17.8507 2.2534 18.2285 3.17491C18.6064 4.09642 18.3802 5.15534 17.6588 5.84205L13.6838 9.81705C13.2413 10.2603 12.9875 10.8575 12.9755 11.4837V15.1504C12.9742 15.9107 12.6163 16.6265 12.0088 17.0837L10.9755 17.8587C10.2447 18.4148 9.26135 18.5069 8.44004 18.0962C7.61872 17.6856 7.1024 16.8436 7.1088 15.9254V11.4837C7.09677 10.8575 6.84294 10.2603 6.40047 9.81705L2.42547 5.84205C1.69776 5.15637 1.46745 4.09336 1.8461 3.16797C2.22475 2.24259 3.13417 1.64593 4.1338 1.66705ZM17.0338 3.64205C16.854 3.20236 16.4255 2.91562 15.9505 2.91705H4.1338C3.65877 2.91562 3.2303 3.20236 3.05047 3.64205C2.86482 4.07959 2.96748 4.58627 3.3088 4.91705L7.30047 8.89205C7.99136 9.57715 8.37861 10.5107 8.37547 11.4837V15.9254C8.37102 16.2326 8.4888 16.529 8.70292 16.7494C8.91703 16.9697 9.20992 17.096 9.51714 17.1004C9.7682 17.0993 10.0117 17.0142 10.2088 16.8587L11.2421 16.0837C11.5359 15.8634 11.7088 15.5176 11.7088 15.1504V11.4837C11.7101 10.5083 12.1035 9.57438 12.8005 8.89205L16.7755 4.91705C17.1168 4.58627 17.2194 4.07959 17.0338 3.64205Z" fill="#454545"/>
</svg>