<svg xmlns="http://www.w3.org/2000/svg" width="15" height="18" viewBox="0 0 15 18" fill="none">
  <path d="M7.78451 2.95833C11.6965 2.95833 14.8678 6.12965 14.8678 10.0417C14.8678 13.9537 11.6965 17.125 7.78451 17.125C3.87249 17.125 0.701172 13.9537 0.701172 10.0417C0.701172 6.12965 3.87249 2.95833 7.78451 2.95833ZM7.78451 4.20833C4.56285 4.20833 1.95117 6.82001 1.95117 10.0417C1.95117 13.2633 4.56285 15.875 7.78451 15.875C11.0062 15.875 13.6178 13.2633 13.6178 10.0417C13.6178 6.82001 11.0062 4.20833 7.78451 4.20833ZM7.78451 5.45833C8.10092 5.45833 8.36242 5.69346 8.40384 5.99852L8.40951 6.08333V9.83333C8.40951 10.1785 8.12967 10.4583 7.78451 10.4583C7.46809 10.4583 7.20659 10.2232 7.16517 9.91817L7.15951 9.83333V6.08333C7.15951 5.73816 7.43934 5.45833 7.78451 5.45833ZM13.7405 3.05309L13.8093 3.10296L14.7747 3.90644C15.04 4.12727 15.076 4.52135 14.8553 4.78665C14.6528 5.02984 14.3048 5.08041 14.0438 4.91706L13.975 4.86719L13.0097 4.06371C12.7443 3.84288 12.7083 3.4488 12.9291 3.1835C13.1316 2.94031 13.4796 2.88974 13.7405 3.05309ZM9.65951 0.875C10.0047 0.875 10.2845 1.15483 10.2845 1.5C10.2845 1.81642 10.0493 2.07791 9.74434 2.11929L9.65951 2.125H5.90951C5.56433 2.125 5.28451 1.84517 5.28451 1.5C5.28451 1.18358 5.51963 0.922092 5.8247 0.880708L5.90951 0.875H9.65951Z" fill="#469D89"/>
</svg>