<svg xmlns="http://www.w3.org/2000/svg" width="24" height="25" viewBox="0 0 24 25" fill="none">
<path d="M11.4791 20.9801C11.0833 20.9802 10.703 20.826 10.4191 20.5501L3.41915 13.5501C2.83424 12.9644 2.83424 12.0157 3.41915 11.4301L10.4191 4.43007C10.7996 4.05137 11.3533 3.90442 11.8715 4.04458C12.3897 4.18475 12.7937 4.59072 12.9315 5.10958C13.0692 5.62845 12.9196 6.18137 12.5391 6.56007L8.1067 11H19.519C20.3475 11 21.019 11.6716 21.019 12.5C21.019 13.3284 20.3475 14 19.519 14H8.11161L12.5391 18.4201C12.9676 18.849 13.0957 19.4938 12.8637 20.0539C12.6318 20.6141 12.0854 20.9795 11.4791 20.9801Z" fill="#454545"/>
</svg>