<svg width="101" height="54" viewBox="0 0 101 54" fill="none" xmlns="http://www.w3.org/2000/svg">
<g id="logo-70" clip-path="url(#clip0_2213_2554)">
<path id="Vector" d="M24.5141 0.913086C20.6089 0.913086 16.8636 3.01752 14.1022 6.76345L5.09011 18.9886C2.32869 22.7345 0.777344 27.815 0.777344 33.1126C0.777344 44.1442 7.36983 53.087 15.5021 53.087C19.4073 53.087 23.1526 50.9825 25.914 47.2366L32.1477 38.7804C32.1477 38.7802 32.1479 38.7806 32.1477 38.7804L50.3107 14.142C51.6295 12.3529 53.4183 11.3479 55.2834 11.3479C58.4059 11.3479 61.0532 14.1086 61.9711 17.9289L67.7033 10.153C65.0882 4.59716 60.503 0.913086 55.2834 0.913086C51.3781 0.913086 47.6329 3.01752 44.8714 6.76345L20.4748 39.8581C19.1559 41.6472 17.3672 42.6522 15.5021 42.6522C11.6182 42.6522 8.46965 38.3813 8.46965 33.1126C8.46965 30.5825 9.21056 28.156 10.5294 26.367L19.5414 14.142C20.8603 12.3529 22.649 11.3479 24.5141 11.3479C27.6368 11.3479 30.284 14.1087 31.2018 17.9291L36.9341 10.1532C34.3191 4.59726 29.7339 0.913086 24.5141 0.913086Z" fill="white"/>
<path id="Vector_2" d="M51.2436 39.8581C49.9248 41.6472 48.136 42.6522 46.2709 42.6522C43.1487 42.6522 40.5017 39.8922 39.5836 36.0726L33.8516 43.8482C36.4667 49.4034 41.0517 53.087 46.2709 53.087C50.1762 53.087 53.9214 50.9825 56.6828 47.2366L81.0795 14.142C82.3984 12.3529 84.1871 11.3479 86.0522 11.3479C89.9362 11.3479 93.0846 15.6189 93.0846 20.8875C93.0846 23.4176 92.3437 25.844 91.0249 27.6331L82.0128 39.8581C80.694 41.6472 78.9053 42.6522 77.0401 42.6522C73.9177 42.6522 71.2705 39.8917 70.3526 36.0717L64.6205 43.8475C67.2355 49.4032 71.8207 53.087 77.0401 53.087C80.9454 53.087 84.6907 50.9825 87.4521 47.2366L96.4641 35.0115C99.2255 31.2656 100.777 26.1851 100.777 20.8875C100.777 9.85594 94.1845 0.913086 86.0522 0.913086C82.1469 0.913086 78.4017 3.01752 75.6403 6.76345L51.2436 39.8581Z" fill="white"/>
</g>
<defs>
<clipPath id="clip0_2213_2554">
<rect width="100" height="52.1739" fill="white" transform="translate(0.777344 0.913086)"/>
</clipPath>
</defs>
</svg>
