<svg xmlns="http://www.w3.org/2000/svg" width="22" height="22" viewBox="0 0 22 22" fill="none">
  <path d="M20.3981 1.60043C18.9307 0.133133 16.5518 0.133196 15.0846 1.60058L2.53794 14.1487C2.11132 14.5754 1.81146 15.112 1.67172 15.6989L0.521428 20.5302C0.458096 20.7962 0.537292 21.076 0.730647 21.2693C0.924012 21.4627 1.20384 21.5419 1.46985 21.4786L6.30082 20.3284C6.88794 20.1885 7.42475 19.8886 7.85149 19.4618L20.3982 6.91359C21.8653 5.44633 21.8653 3.06759 20.3981 1.60043ZM16.1983 2.71413C17.0504 1.86185 18.4322 1.86181 19.2844 2.71404C20.1366 3.5662 20.1367 4.94782 19.2845 5.80004L18.3487 6.73599L15.2626 3.6499L16.1983 2.71413ZM14.149 4.76358L17.2352 7.84967L6.73781 18.3482C6.51717 18.5689 6.23961 18.724 5.93604 18.7963L2.34987 19.6501L3.20378 16.0638C3.27603 15.7603 3.43106 15.4829 3.65162 15.2623L14.149 4.76358Z" fill="#2196F3"/>
</svg>