<svg xmlns="http://www.w3.org/2000/svg" width="22" height="21" viewBox="0 0 22 21" fill="none">
<path d="M8.95098 3.58537H13.0485C13.0485 2.45386 12.1313 1.53659 10.9998 1.53659C9.86822 1.53659 8.95098 2.45386 8.95098 3.58537ZM7.4144 3.58537C7.4144 1.60522 9.01962 0 10.9998 0C12.9799 0 14.5851 1.60522 14.5851 3.58537H20.4754C20.8997 3.58537 21.2437 3.92935 21.2437 4.35366C21.2437 4.77797 20.8997 5.12195 20.4754 5.12195H19.1241L17.9235 17.5285C17.733 19.4976 16.0782 21 14.0999 21H7.89964C5.92139 21 4.2666 19.4976 4.07604 17.5285L2.8754 5.12195H1.52415C1.09984 5.12195 0.755859 4.77797 0.755859 4.35366C0.755859 3.92935 1.09984 3.58537 1.52415 3.58537H7.4144ZM9.46318 8.45122C9.46318 8.02691 9.11919 7.68293 8.69488 7.68293C8.27057 7.68293 7.92659 8.02691 7.92659 8.45122V16.1341C7.92659 16.5584 8.27057 16.9024 8.69488 16.9024C9.11919 16.9024 9.46318 16.5584 9.46318 16.1341V8.45122ZM13.3046 7.68293C13.7289 7.68293 14.0729 8.02691 14.0729 8.45122V16.1341C14.0729 16.5584 13.7289 16.9024 13.3046 16.9024C12.8803 16.9024 12.5363 16.5584 12.5363 16.1341V8.45122C12.5363 8.02691 12.8803 7.68293 13.3046 7.68293ZM5.60549 17.3805C5.71982 18.562 6.71269 19.4634 7.89964 19.4634H14.0999C15.2868 19.4634 16.2797 18.562 16.394 17.3805L17.5803 5.12195H4.41916L5.60549 17.3805Z" fill="#ED5554"/>
</svg>