<svg xmlns="http://www.w3.org/2000/svg" width="5" height="20" viewBox="0 0 5 20" fill="none">
  <path d="M2.8125 4.6875C1.60438 4.6875 0.625 3.70812 0.625 2.5C0.625 1.29188 1.60438 0.3125 2.8125 0.3125C4.02062 0.3125 5 1.29188 5 2.5C5 3.70812 4.02062 4.6875 2.8125 4.6875ZM2.8125 12.1875C1.60438 12.1875 0.625 11.2081 0.625 10C0.625 8.79187 1.60438 7.8125 2.8125 7.8125C4.02062 7.8125 5 8.79187 5 10C5 11.2081 4.02062 12.1875 2.8125 12.1875ZM0.625 17.5C0.625 18.7081 1.60438 19.6875 2.8125 19.6875C4.02062 19.6875 5 18.7081 5 17.5C5 16.2919 4.02062 15.3125 2.8125 15.3125C1.60438 15.3125 0.625 16.2919 0.625 17.5Z" fill="#454545"/>
</svg>