<svg xmlns="http://www.w3.org/2000/svg" width="24" height="21" viewBox="0 0 24 21" fill="none">
  <path d="M13.1329 16.4604C13.1329 15.8343 12.6254 15.3268 11.9993 15.3268C11.3733 15.3268 10.8659 15.8343 10.8659 16.4604C10.8659 17.0864 11.3733 17.5938 11.9993 17.5938C12.6254 17.5938 13.1329 17.0864 13.1329 16.4604ZM12.8387 7.54653C12.7819 7.13106 12.4255 6.81109 11.9945 6.81143C11.5244 6.8118 11.1436 7.19325 11.1439 7.66339L11.148 12.773L11.1559 12.8884C11.2126 13.3039 11.569 13.6239 12 13.6236C12.4701 13.6231 12.8509 13.2417 12.8506 12.7716L12.8465 7.66203L12.8387 7.54653ZM14.2339 1.3176C13.2619 -0.439222 10.7362 -0.439199 9.7644 1.31766L0.973181 17.21C0.0315924 18.9121 1.26269 21 3.2079 21H20.7909C22.7362 21 23.9672 18.9121 23.0256 17.2099L14.2339 1.3176ZM11.2543 2.14179C11.5782 1.55618 12.4201 1.55617 12.744 2.14177L21.5358 18.0341C21.8497 18.6014 21.4394 19.2974 20.7909 19.2974H3.2079C2.5595 19.2974 2.14913 18.6014 2.463 18.0341L11.2543 2.14179Z" fill="#FFCC00"/>
</svg>