<svg
    xmlns="http://www.w3.org/2000/svg"
    width="20"
    height="20"
    viewBox="0 0 20 20"
    fill="none"
>
    <path
        d="M9.99935 1.6665C14.6017 1.6665 18.3327 5.39746 18.3327 9.99984C18.3327 14.6022 14.6017 18.3332 9.99935 18.3332C5.39697 18.3332 1.66602 14.6022 1.66602 9.99984C1.66602 5.39746 5.39697 1.6665 9.99935 1.6665ZM9.99935 5.83317C9.68293 5.83317 9.42143 6.0683 9.38002 6.37336L9.37435 6.45817V9.37484H6.45768C6.11251 9.37484 5.83268 9.65467 5.83268 9.99984C5.83268 10.3163 6.06781 10.5778 6.37287 10.6192L6.45768 10.6248H9.37435V13.5415C9.37435 13.8867 9.65418 14.1665 9.99935 14.1665C10.3158 14.1665 10.5773 13.9313 10.6187 13.6263L10.6243 13.5415V10.6248H13.541C13.8862 10.6248 14.166 10.345 14.166 9.99984C14.166 9.68342 13.9308 9.42192 13.6258 9.3805L13.541 9.37484H10.6243V6.45817C10.6243 6.113 10.3445 5.83317 9.99935 5.83317Z"
        fill="white"
    ></path>
</svg>
