<svg width="30" height="30" viewBox="0 0 30 30" fill="none" xmlns="http://www.w3.org/2000/svg">
<path d="M15 27.5C21.9036 27.5 27.5 21.9036 27.5 15C27.5 8.09644 21.9036 2.5 15 2.5C8.09644 2.5 2.5 8.09644 2.5 15C2.5 21.9036 8.09644 27.5 15 27.5Z" fill="#56AB91"/>
<path d="M13.4375 19.6875H11.3542C11.0779 19.6875 10.8129 19.5778 10.6176 19.3824C10.4222 19.1871 10.3125 18.9221 10.3125 18.6458V11.3542C10.3125 11.0779 10.4222 10.8129 10.6176 10.6176C10.8129 10.4222 11.0779 10.3125 11.3542 10.3125H13.4375" stroke="white" stroke-linecap="round" stroke-linejoin="round"/>
<path d="M17.082 17.6048L19.6862 15.0007L17.082 12.3965" stroke="white" stroke-linecap="round" stroke-linejoin="round"/>
<path d="M19.6875 15H13.4375" stroke="white" stroke-linecap="round" stroke-linejoin="round"/>
</svg>
