<svg width="13" height="13" viewBox="0 0 13 13" fill="none" xmlns="http://www.w3.org/2000/svg">
<path d="M7.53125 8.71875L7.09375 8.28125C6.96875 8.15625 6.82042 8.09125 6.64875 8.08625C6.47708 8.08125 6.32854 8.14104 6.20312 8.26562C6.07812 8.39062 6.01562 8.53917 6.01562 8.71125C6.01562 8.88333 6.07812 9.03167 6.20312 9.15625L7.09375 10.0469C7.21875 10.1719 7.36458 10.2344 7.53125 10.2344C7.69792 10.2344 7.84375 10.1719 7.96875 10.0469L10.2031 7.8125C10.3281 7.6875 10.3881 7.54167 10.3831 7.375C10.3781 7.20833 10.3129 7.0625 10.1875 6.9375C10.0625 6.82292 9.91667 6.76312 9.75 6.75813C9.58333 6.75313 9.4375 6.81292 9.3125 6.9375L7.53125 8.71875ZM3.75 8.375H4.375C4.55208 8.375 4.70063 8.315 4.82063 8.195C4.94063 8.075 5.00042 7.92667 5 7.75C5 7.57292 4.94 7.42437 4.82 7.30437C4.7 7.18437 4.55167 7.12458 4.375 7.125H3.75C3.57292 7.125 3.42438 7.185 3.30438 7.305C3.18438 7.425 3.12458 7.57333 3.125 7.75C3.125 7.92708 3.185 8.07563 3.305 8.19563C3.425 8.31563 3.57333 8.37542 3.75 8.375ZM3.75 6.5H6.875C7.05208 6.5 7.20063 6.44 7.32063 6.32C7.44063 6.2 7.50042 6.05167 7.5 5.875C7.5 5.69792 7.44 5.54937 7.32 5.42937C7.2 5.30937 7.05167 5.24958 6.875 5.25H3.75C3.57292 5.25 3.42438 5.31 3.30438 5.43C3.18438 5.55 3.12458 5.69833 3.125 5.875C3.125 6.05208 3.185 6.20063 3.305 6.32063C3.425 6.44063 3.57333 6.50042 3.75 6.5ZM3.75 4.625H6.875C7.05208 4.625 7.20063 4.565 7.32063 4.445C7.44063 4.325 7.50042 4.17667 7.5 4C7.5 3.82292 7.44 3.67438 7.32 3.55438C7.2 3.43438 7.05167 3.37458 6.875 3.375H3.75C3.57292 3.375 3.42438 3.435 3.30438 3.555C3.18438 3.675 3.12458 3.82333 3.125 4C3.125 4.17708 3.185 4.32563 3.305 4.44563C3.425 4.56563 3.57333 4.62542 3.75 4.625ZM6.25 12.75C5.38542 12.75 4.57292 12.5858 3.8125 12.2575C3.05208 11.9292 2.39062 11.484 1.82813 10.9219C1.26563 10.3594 0.820417 9.69792 0.4925 8.9375C0.164583 8.17708 0.000416667 7.36458 0 6.5C0 5.63542 0.164167 4.82292 0.4925 4.0625C0.820833 3.30208 1.26604 2.64062 1.82813 2.07813C2.39062 1.51563 3.05208 1.07042 3.8125 0.7425C4.57292 0.414583 5.38542 0.250417 6.25 0.25C7.11458 0.25 7.92708 0.414167 8.6875 0.7425C9.44792 1.07083 10.1094 1.51604 10.6719 2.07813C11.2344 2.64062 11.6798 3.30208 12.0081 4.0625C12.3365 4.82292 12.5004 5.63542 12.5 6.5C12.5 7.36458 12.3358 8.17708 12.0075 8.9375C11.6792 9.69792 11.234 10.3594 10.6719 10.9219C10.1094 11.4844 9.44792 11.9298 8.6875 12.2581C7.92708 12.5865 7.11458 12.7504 6.25 12.75Z" fill="#6A6A6A"/>
</svg>
