     <svg xmlns="http://www.w3.org/2000/svg" width="20" height="22" viewBox="0 0 20 22" fill="none">
                            <path d="M10 13.018C9.68519 13.018 9.42148 12.9212 9.20889 12.7275C8.99556 12.5344 8.88889 12.295 8.88889 12.0091C8.88889 11.7233 8.99556 11.4835 9.20889 11.2898C9.42148 11.0967 9.68519 11.0002 10 11.0002C10.3148 11.0002 10.5789 11.0967 10.7922 11.2898C11.0048 11.4835 11.1111 11.7233 11.1111 12.0091C11.1111 12.295 11.0048 12.5344 10.7922 12.7275C10.5789 12.9212 10.3148 13.018 10 13.018ZM5.55556 13.018C5.24074 13.018 4.97667 12.9212 4.76333 12.7275C4.55074 12.5344 4.44444 12.295 4.44444 12.0091C4.44444 11.7233 4.55074 11.4835 4.76333 11.2898C4.97667 11.0967 5.24074 11.0002 5.55556 11.0002C5.87037 11.0002 6.13444 11.0967 6.34778 11.2898C6.56037 11.4835 6.66667 11.7233 6.66667 12.0091C6.66667 12.295 6.56037 12.5344 6.34778 12.7275C6.13444 12.9212 5.87037 13.018 5.55556 13.018ZM14.4444 13.018C14.1296 13.018 13.8659 12.9212 13.6533 12.7275C13.44 12.5344 13.3333 12.295 13.3333 12.0091C13.3333 11.7233 13.44 11.4835 13.6533 11.2898C13.8659 11.0967 14.1296 11.0002 14.4444 11.0002C14.7593 11.0002 15.023 11.0967 15.2356 11.2898C15.4489 11.4835 15.5556 11.7233 15.5556 12.0091C15.5556 12.295 15.4489 12.5344 15.2356 12.7275C15.023 12.9212 14.7593 13.018 14.4444 13.018ZM10 17.0537C9.68519 17.0537 9.42148 16.9568 9.20889 16.7631C8.99556 16.5701 8.88889 16.3306 8.88889 16.0448C8.88889 15.7589 8.99556 15.5195 9.20889 15.3264C9.42148 15.1327 9.68519 15.0359 10 15.0359C10.3148 15.0359 10.5789 15.1327 10.7922 15.3264C11.0048 15.5195 11.1111 15.7589 11.1111 16.0448C11.1111 16.3306 11.0048 16.5701 10.7922 16.7631C10.5789 16.9568 10.3148 17.0537 10 17.0537ZM5.55556 17.0537C5.24074 17.0537 4.97667 16.9568 4.76333 16.7631C4.55074 16.5701 4.44444 16.3306 4.44444 16.0448C4.44444 15.7589 4.55074 15.5195 4.76333 15.3264C4.97667 15.1327 5.24074 15.0359 5.55556 15.0359C5.87037 15.0359 6.13444 15.1327 6.34778 15.3264C6.56037 15.5195 6.66667 15.7589 6.66667 16.0448C6.66667 16.3306 6.56037 16.5701 6.34778 16.7631C6.13444 16.9568 5.87037 17.0537 5.55556 17.0537ZM14.4444 17.0537C14.1296 17.0537 13.8659 16.9568 13.6533 16.7631C13.44 16.5701 13.3333 16.3306 13.3333 16.0448C13.3333 15.7589 13.44 15.5195 13.6533 15.3264C13.8659 15.1327 14.1296 15.0359 14.4444 15.0359C14.7593 15.0359 15.023 15.1327 15.2356 15.3264C15.4489 15.5195 15.5556 15.7589 15.5556 16.0448C15.5556 16.3306 15.4489 16.5701 15.2356 16.7631C15.023 16.9568 14.7593 17.0537 14.4444 17.0537ZM2.22222 21.0893C1.61111 21.0893 1.08778 20.8919 0.652222 20.4971C0.217407 20.1016 0 19.6264 0 19.0715V4.94677C0 4.39187 0.217407 3.91701 0.652222 3.52219C1.08778 3.1267 1.61111 2.92895 2.22222 2.92895H3.33333V0.911133H5.55556V2.92895H14.4444V0.911133H16.6667V2.92895H17.7778C18.3889 2.92895 18.9122 3.1267 19.3478 3.52219C19.7826 3.91701 20 4.39187 20 4.94677V19.0715C20 19.6264 19.7826 20.1016 19.3478 20.4971C18.9122 20.8919 18.3889 21.0893 17.7778 21.0893H2.22222ZM2.22222 19.0715H17.7778V8.9824H2.22222V19.0715Z" fill="#56AB91" />
                        </svg>